<?xml version="1.0" encoding="UTF-8" standalone="no"?>
<svg
   xmlns:dc="http://purl.org/dc/elements/1.1/"
   xmlns:cc="http://creativecommons.org/ns#"
   xmlns:rdf="http://www.w3.org/1999/02/22-rdf-syntax-ns#"
   xmlns:svg="http://www.w3.org/2000/svg"
   xmlns="http://www.w3.org/2000/svg"
   xmlns:sodipodi="http://sodipodi.sourceforge.net/DTD/sodipodi-0.dtd"
   xmlns:inkscape="http://www.inkscape.org/namespaces/inkscape"
   inkscape:version="1.0beta2 (1:0.92.0+devel+201912091126+27db721)"
   sodipodi:docname="biography.svg"
   height="90.03"
   width="78.56"
   id="svg5124"
   xml:space="preserve"
   viewBox="0 0 78.56 90.03"
   y="0"
   x="0"
   version="1.1"><metadata
     id="metadata19"><rdf:RDF><cc:Work
         rdf:about=""><dc:format>image/svg+xml</dc:format><dc:type
           rdf:resource="http://purl.org/dc/dcmitype/StillImage" /></cc:Work></rdf:RDF></metadata><defs
     id="defs17" /><sodipodi:namedview
     inkscape:current-layer="svg5124"
     inkscape:window-maximized="1"
     inkscape:window-y="26"
     inkscape:window-x="0"
     inkscape:cy="45.014999"
     inkscape:cx="39.279999"
     inkscape:zoom="6.4189271"
     showgrid="false"
     id="namedview15"
     inkscape:window-height="714"
     inkscape:window-width="1366"
     inkscape:pageshadow="2"
     inkscape:pageopacity="0"
     guidetolerance="10"
     gridtolerance="10"
     objecttolerance="10"
     borderopacity="1"
     inkscape:document-rotation="0"
     bordercolor="#666666"
     pagecolor="#ffffff" /><g
     transform="translate(-11,-5.67)"
     style="fill:#000000;fill-opacity:1"
     id="g5704"><g
       style="fill:#000000;fill-opacity:1"
       id="g5112"><path
         inkscape:connector-curvature="0"
         style="fill:#000000;fill-opacity:1"
         d="m 23.57,16.2 c -1.54,1.03 -8.3,0.4 -7.33,-2.07 1.18,-3.01 -3.66,-4.3 -4.82,-1.33 a 5.07,5.07 0 0 0 0.38,4.81 8.62,8.62 0 0 0 4.05,3.07 c 1.71,0.7 3.67,1.06 5.5,1.05 a 8.77,8.77 0 0 0 4.75,-1.22 c 2.66,-1.79 0.16,-6.12 -2.53,-4.32 z"
         id="path5098" /><path
         inkscape:connector-curvature="0"
         style="fill:#000000;fill-opacity:1"
         d="m 11.67,24.18 a 5,5 0 0 0 0.28,4.72 8.24,8.24 0 0 0 3.88,3.07 c 1.69,0.72 3.62,1.09 5.45,1.06 a 8.8,8.8 0 0 0 4.79,-1.29 c 2.43,-1.64 0.5,-5.2 -1.99,-4.2 -0.57,0.24 -1.96,0.19 -3.34,0.26 -1.43,0.06 -2.93,-0.21 -3.74,-0.86 -0.4,-0.3 -0.59,-0.7 -0.5,-1.2 l 0.02,-0.22 c -0.01,-0.22 0.04,-0.34 0.03,-0.44 0.4,-2.51 -3.76,-3.63 -4.88,-0.9 z"
         id="path5100" /><path
         inkscape:connector-curvature="0"
         style="fill:#000000;fill-opacity:1"
         d="m 11.91,35.57 a 4.92,4.92 0 0 0 0.18,4.62 7.89,7.89 0 0 0 3.72,3.07 c 1.67,0.73 3.58,1.1 5.4,1.08 a 8.88,8.88 0 0 0 4.83,-1.36 c 2.2,-1.51 0.55,-4.91 -1.45,-4.07 -0.6,-0.1 -1.95,-0.2 -3.32,0.05 a 5.8,5.8 0 0 1 -3.82,-0.52 1.39,1.39 0 0 1 -0.7,-1.07 c -0.01,-0.07 -0.01,-0.15 -0.03,-0.22 -0.09,-0.26 0,-0.31 -0.04,-0.36 0.62,-2.57 -3.57,-3.97 -4.77,-1.22 z"
         id="path5102" /><path
         inkscape:connector-curvature="0"
         style="fill:#000000;fill-opacity:1"
         d="m 12.16,46.96 a 4.85,4.85 0 0 0 0.07,4.52 c 0.72,1.3 2,2.36 3.57,3.07 1.63,0.75 3.52,1.13 5.34,1.09 A 8.94,8.94 0 0 0 26,54.2 c 1.98,-1.37 0.74,-4.3 -0.91,-3.94 A 4.59,4.59 0 0 0 21.79,50.11 5.5,5.5 0 0 1 17.89,49.92 1.78,1.78 0 0 1 17,49 c -0.03,-0.07 -0.05,-0.14 -0.1,-0.2 -0.16,-0.31 -0.04,-0.3 -0.09,-0.28 0.85,-2.65 -3.38,-4.33 -4.65,-1.55 z"
         id="path5104" /><path
         inkscape:connector-curvature="0"
         style="fill:#000000;fill-opacity:1"
         d="m 12.4,58.35 a 4.79,4.79 0 0 0 -0.02,4.42 7.2,7.2 0 0 0 3.4,3.07 11.7,11.7 0 0 0 5.29,1.1 9,9 0 0 0 4.92,-1.5 c 1.74,-1.22 0.93,-3.7 -0.38,-3.82 -0.62,-0.58 -1.93,-0.94 -3.27,-0.35 a 5.28,5.28 0 0 1 -3.98,0.15 2.46,2.46 0 0 1 -1.11,-0.8 l -0.15,-0.2 c -0.27,-0.34 -0.09,-0.28 -0.16,-0.2 1.07,-2.7 -3.18,-4.67 -4.54,-1.87 z"
         id="path5106" /><path
         inkscape:connector-curvature="0"
         style="fill:#000000;fill-opacity:1"
         d="m 12.64,69.74 a 4.73,4.73 0 0 0 -0.12,4.33 6.89,6.89 0 0 0 3.24,3.06 11.1,11.1 0 0 0 5.24,1.12 9.07,9.07 0 0 0 4.96,-1.57 c 1.52,-1.08 1.13,-3.1 0.15,-3.7 a 2.42,2.42 0 0 0 -3.23,-0.55 5.1,5.1 0 0 1 -4.06,0.49 3.51,3.51 0 0 1 -1.32,-0.68 l -0.2,-0.19 c -0.37,-0.36 -0.14,-0.25 -0.23,-0.11 1.3,-2.78 -2.99,-5.03 -4.43,-2.2 z"
         id="path5108" /><path
         inkscape:connector-curvature="0"
         style="fill:#000000;fill-opacity:1"
         d="m 23.41,83.59 a 4.97,4.97 0 0 1 -4.13,0.82 c -0.6,-0.12 -1.3,-0.34 -1.78,-0.73 -0.48,-0.38 -0.19,-0.23 -0.3,-0.03 1.53,-2.85 -2.79,-5.37 -4.31,-2.53 a 4.68,4.68 0 0 0 -0.22,4.23 6.57,6.57 0 0 0 3.08,3.07 c 1.56,0.8 3.38,1.2 5.18,1.12 1.8,-0.06 3.56,-0.6 5,-1.64 1.3,-0.93 1.32,-2.48 0.7,-3.56 -0.63,-1.08 -1.91,-1.7 -3.22,-0.75 z"
         id="path5110" /></g><path
       inkscape:connector-curvature="0"
       style="fill:#000000;fill-opacity:1"
       d="m 21.01,94.47 c 0.25,0.1 0.52,0.17 0.82,0.2 21.4,1.51 43.01,1.11 64.44,0.38 1.47,-0.05 2.34,-1.1 2.5,-2.5 1.61,-14.6 0.28,-29.94 0.06,-44.6 C 88.71,39.18 88.55,30.4 88.42,21.62 A 1365.58,1365.58 0 0 1 88.29,9.53 c 0,-0.33 0.18,-1.9 -0.04,-0.7 0.28,-1.54 -0.67,-3.21 -2.41,-3.16 -21.37,0.6 -42.57,2.1 -63.94,0.64 -1.34,-0.1 -2.52,1.2 -2.5,2.5 0.48,27.78 0.42,55.57 -0.07,83.36 a 2.23,2.23 0 0 0 1.68,2.3 z m 3.42,-83 c 19.6,1.13 39.08,-0.1 58.68,-0.72 -0.1,3.1 0.24,6.33 0.29,9.3 0.13,8.94 0.29,17.89 0.42,26.84 0.21,14.19 1.45,29.02 0.19,43.23 -19.84,0.66 -39.83,0.96 -59.64,-0.3 0.43,-26.12 0.48,-52.24 0.06,-78.36 z"
       id="path5114" /><path
       inkscape:connector-curvature="0"
       style="fill:#000000;fill-opacity:1"
       d="m 35.83,78 h 39.96 c 1.36,0 2.5,-0.9 2.5,-2.27 0,-4.34 0.4,-8.66 -1.03,-12.83 C 74.99,56.27 69.24,51.6 62.88,49.15 49.9,44.17 35.65,53.37 33.54,66.55 A 2.1,2.1 0 0 0 33,68 v 7.97 C 33,77.33 34.46,78 35.83,78 Z M 38,69.44 c 0.18,-0.3 0.3,-0.67 0.33,-1.1 0.91,-12.3 14.43,-18.41 25.05,-13.54 4.88,2.24 9.2,7.27 9.86,12.7 0.23,1.84 0.17,3.66 0.11,5.5 H 38 Z"
       id="path5116" /><path
       inkscape:connector-curvature="0"
       style="fill:#000000;fill-opacity:1"
       d="m 55.31,44.5 c 6.21,0.33 10.76,-5.04 11.41,-10.74 0.06,-0.23 0.1,-0.47 0.08,-0.75 0.01,-0.27 -0.02,-0.5 -0.07,-0.73 -0.65,-6.1 -5.17,-10.42 -11.42,-10.75 -6.47,-0.35 -11.16,5.51 -11.48,11.48 -0.35,6.48 5.52,11.16 11.48,11.48 z M 61.8,33 c -0.45,8.36 -12.52,8.36 -12.97,0 -0.45,-8.36 12.52,-8.32 12.97,0 z"
       id="path5118" /></g></svg>
