<?xml version="1.0" encoding="UTF-8" standalone="no"?>
<svg
   xmlns:dc="http://purl.org/dc/elements/1.1/"
   xmlns:cc="http://creativecommons.org/ns#"
   xmlns:rdf="http://www.w3.org/1999/02/22-rdf-syntax-ns#"
   xmlns:svg="http://www.w3.org/2000/svg"
   xmlns="http://www.w3.org/2000/svg"
   xmlns:sodipodi="http://sodipodi.sourceforge.net/DTD/sodipodi-0.dtd"
   xmlns:inkscape="http://www.inkscape.org/namespaces/inkscape"
   inkscape:version="1.0beta2 (1:0.92.0+devel+201912091126+27db721)"
   sodipodi:docname="github.svg"
   xml:space="preserve"
   viewBox="0 0 475.08 402"
   height="402"
   width="475.08"
   y="0"
   x="0"
   id="Capa_1"
   version="1.1"><metadata
     id="metadata12"><rdf:RDF><cc:Work
         rdf:about=""><dc:format>image/svg+xml</dc:format><dc:type
           rdf:resource="http://purl.org/dc/dcmitype/StillImage" /></cc:Work></rdf:RDF></metadata><defs
     id="defs10" /><sodipodi:namedview
     inkscape:current-layer="Capa_1"
     inkscape:window-maximized="1"
     inkscape:window-y="26"
     inkscape:window-x="0"
     inkscape:cy="201"
     inkscape:cx="237.53999"
     inkscape:zoom="1.4375522"
     showgrid="false"
     id="namedview8"
     inkscape:window-height="714"
     inkscape:window-width="1366"
     inkscape:pageshadow="2"
     inkscape:pageopacity="0"
     guidetolerance="10"
     gridtolerance="10"
     objecttolerance="10"
     borderopacity="1"
     inkscape:document-rotation="0"
     bordercolor="#666666"
     pagecolor="#ffffff" /><g
     style="fill:#000000;fill-opacity:1"
     transform="translate(0,-36.54)"
     id="g3894"><g
       style="fill:#000000;fill-opacity:1"
       id="g3892"><path
         inkscape:connector-curvature="0"
         style="fill:#000000;fill-opacity:1"
         id="path3886"
         d="m 436.24,146.75 a 150.7,150.7 0 0 0 7.72,-47.96 137.3,137.3 0 0 0 -14.57,-62.25 c -20.36,0 -38.35,3.72 -53.96,11.14 -15.6,7.42 -33.4,18.94 -53.38,34.54 -25.12,-6.09 -51.77,-9.13 -79.94,-9.13 -30.84,0 -60.24,3.33 -88.22,10 C 133.53,67.09 115.54,55.34 99.93,47.82 84.33,40.3 66.24,36.54 45.68,36.54 A 137.29,137.29 0 0 0 31.12,98.8 154.1,154.1 0 0 0 38.83,147.33 C 12.94,177.6 0,215.27 0,260.38 c 0,39.6 5.9,71.1 17.7,94.51 a 118.77,118.77 0 0 0 24.55,32.83 126.32,126.32 0 0 0 34.55,23.13 300.85,300.85 0 0 0 39.12,14.7 c 13.13,3.9 27.64,6.76 43.54,8.56 a 643.8,643.8 0 0 0 42.1,3.58 c 12.19,0.56 25.7,0.85 40.55,0.85 17.5,0 33.4,-0.43 47.68,-1.28 14.28,-0.86 30.6,-2.95 48.96,-6.28 18.37,-3.33 34.55,-7.85 48.54,-13.56 14,-5.71 27.41,-13.9 40.26,-24.55 a 115.15,115.15 0 0 0 30.12,-37.98 c 11.6,-23.6 17.41,-55.1 17.41,-94.5 0,-45.3 -12.95,-83.18 -38.84,-113.64 z M 402,354.45 c -6.1,12.48 -13.8,22.27 -23.13,29.42 -9.33,7.13 -20.94,12.84 -34.83,17.13 a 209.88,209.88 0 0 1 -39.97,8.42 c -12.76,1.33 -26.94,2 -42.55,2 h -47.97 c -15.6,0 -29.79,-0.67 -42.54,-2 A 209.85,209.85 0 0 1 131.04,401 c -13.89,-4.29 -25.5,-10 -34.83,-17.13 -9.33,-7.15 -17.03,-16.94 -23.12,-29.41 -6.1,-12.48 -9.14,-27.08 -9.14,-43.83 0,-22.85 6.57,-42.26 19.7,-58.24 13.14,-16 30.93,-23.99 53.39,-23.99 8.19,0 26.74,2 55.68,6 13.5,2.1 28.45,3.14 44.82,3.14 16.37,0 31.31,-1.04 44.82,-3.14 29.32,-4 47.87,-6 55.68,-6 22.46,0 40.25,8 53.39,23.99 13.13,15.98 19.7,35.4 19.7,58.24 0,16.75 -3.05,31.37 -9.14,43.83 z" /><path
         inkscape:connector-curvature="0"
         style="fill:#000000;fill-opacity:1"
         id="path3888"
         d="m 166.88,265.52 c -5.81,-6.47 -12.7,-9.71 -20.7,-9.71 -8,0 -14.9,3.24 -20.7,9.71 a 56.23,56.23 0 0 0 -12.28,21.69 c -2.38,8 -3.57,15.8 -3.57,23.42 a 81.9,81.9 0 0 0 3.57,23.42 56.02,56.02 0 0 0 12.27,21.68 c 5.81,6.48 12.7,9.72 20.7,9.72 8,0 14.9,-3.25 20.7,-9.72 5.8,-6.46 9.9,-13.7 12.28,-21.68 a 81.9,81.9 0 0 0 3.57,-23.42 c 0,-7.61 -1.19,-15.42 -3.57,-23.42 a 56.25,56.25 0 0 0 -12.28,-21.69 z" /><path
         inkscape:connector-curvature="0"
         style="fill:#000000;fill-opacity:1"
         id="path3890"
         d="m 349.6,265.52 c -5.8,-6.47 -12.7,-9.71 -20.7,-9.71 -7.99,0 -14.89,3.24 -20.7,9.71 a 56.16,56.16 0 0 0 -12.27,21.69 c -2.38,8 -3.57,15.8 -3.57,23.42 0,7.61 1.19,15.41 3.57,23.42 a 56.15,56.15 0 0 0 12.27,21.68 c 5.81,6.48 12.71,9.72 20.7,9.72 8,0 14.9,-3.25 20.7,-9.72 5.8,-6.46 9.9,-13.7 12.28,-21.68 2.38,-8 3.57,-15.8 3.57,-23.42 0,-7.61 -1.2,-15.42 -3.57,-23.42 A 56.36,56.36 0 0 0 349.6,265.52 Z" /></g></g></svg>
