<svg xmlns="http://www.w3.org/2000/svg" data-name="Layer 1" viewBox="0 0 90 90" x="0" y="0" version="1.1" id="svg12007" width="90" height="90"><path d="M54.18 68.35L40 82.53c-9.52 9.53-24.63 10-33.58 1.06S-2.06 59.53 7.47 50l16-16c9.4-9.39 24.22-10 33.2-1.4.08.05.15.11.22.18l.06.06.05.16a7 7 0 0 1-10 9.67c-4.12-4.12-11-3.82-15.4.58l-15 15c-4.38 4.4-4.62 11.6-.5 15.71 4.12 4.12 11.32 3.9 15.7-.5l5.55-5.55a31.43 31.43 0 0 0 7.44 1.48 26.68 26.68 0 0 0 9.39-1.04zm29.4-61.94C74.65-2.54 59.54-2.06 50 7.46l-14.18 14.2a26.76 26.76 0 0 1 9.35-.95 31.31 31.31 0 0 1 7.43 1.48l5.55-5.54c4.39-4.39 11.59-4.63 15.7-.5 4.13 4.11 3.9 11.31-.5 15.7l-15 15C54 51.2 47.14 51.5 43 47.4A7 7 0 0 0 33 57l.1.11.06.06.2.18c9 8.57 23.82 8 33.22-1.4l16-16c9.48-9.48 9.96-24.6 1-33.54z" id="path12001" style="fill:#1a0a00;fill-opacity:1"/></svg>
