<?xml version="1.0" encoding="UTF-8" standalone="no"?>
<svg
   xmlns:dc="http://purl.org/dc/elements/1.1/"
   xmlns:cc="http://creativecommons.org/ns#"
   xmlns:rdf="http://www.w3.org/1999/02/22-rdf-syntax-ns#"
   xmlns:svg="http://www.w3.org/2000/svg"
   xmlns="http://www.w3.org/2000/svg"
   xmlns:sodipodi="http://sodipodi.sourceforge.net/DTD/sodipodi-0.dtd"
   xmlns:inkscape="http://www.inkscape.org/namespaces/inkscape"
   inkscape:version="1.1-dev (1:0.92.0+devel+202001031139+23c09a7)"
   height="60.000011"
   width="82"
   sodipodi:docname="menu.svg"
   id="svg10"
   viewBox="0 0 82 60.000011"
   y="0px"
   x="0px"
   version="1.1">
  <metadata
     id="metadata16">
    <rdf:RDF>
      <cc:Work
         rdf:about="">
        <dc:format>image/svg+xml</dc:format>
        <dc:type
           rdf:resource="http://purl.org/dc/dcmitype/StillImage" />
        <dc:title></dc:title>
      </cc:Work>
    </rdf:RDF>
  </metadata>
  <defs
     id="defs14" />
  <sodipodi:namedview
     inkscape:current-layer="svg10"
     inkscape:window-maximized="1"
     inkscape:window-y="26"
     inkscape:window-x="0"
     inkscape:cy="42.49999"
     inkscape:cx="41"
     inkscape:zoom="4.6391451"
     inkscape:showpageshadow="false"
     inkscape:pagecheckerboard="true"
     showgrid="false"
     id="namedview12"
     inkscape:window-height="714"
     inkscape:window-width="1366"
     inkscape:pageshadow="2"
     inkscape:pageopacity="0"
     guidetolerance="10"
     gridtolerance="10"
     objecttolerance="10"
     borderopacity="1"
     inkscape:document-rotation="0"
     bordercolor="#666666"
     pagecolor="#dadada" />
  <g
     style="fill:#000000;fill-opacity:1"
     id="g4"
     transform="translate(-9,-972.36219)">
    <path
       inkscape:connector-curvature="0"
       id="path2"
       overflow="visible"
       display="inline"
       visibility="visible"
       marker="none"
       stroke="none"
       fill-opacity="1"
       fill="#000000"
       d="m 13,972.36219 c -2.2091,0 -4,1.79079 -4,4 0,2.2092 1.7909,4 4,4 h 74 c 2.2091,0 4,-1.7908 4,-4 0,-2.20921 -1.7909,-4 -4,-4 z m 0,26 c -2.2091,0 -4,1.79081 -4,4.00001 0,2.2092 1.7909,4 4,4 h 74 c 2.2091,0 4,-1.7908 4,-4 0,-2.2092 -1.7909,-4.00001 -4,-4.00001 z m 0,26.00001 c -2.2091,0 -4,1.7908 -4,4 0,2.2092 1.7909,4 4,4 h 74 c 2.2091,0 4,-1.7908 4,-4 0,-2.2092 -1.7909,-4 -4,-4 z"
       style="color:#000000;text-indent:0;text-transform:none;direction:ltr;baseline-shift:baseline;enable-background:accumulate;fill:#000000;fill-opacity:1" />
  </g>
</svg>
