<?xml version="1.0" encoding="UTF-8" standalone="no"?>
<svg
   xmlns:dc="http://purl.org/dc/elements/1.1/"
   xmlns:cc="http://creativecommons.org/ns#"
   xmlns:rdf="http://www.w3.org/1999/02/22-rdf-syntax-ns#"
   xmlns:svg="http://www.w3.org/2000/svg"
   xmlns="http://www.w3.org/2000/svg"
   xmlns:sodipodi="http://sodipodi.sourceforge.net/DTD/sodipodi-0.dtd"
   xmlns:inkscape="http://www.inkscape.org/namespaces/inkscape"
   inkscape:version="1.0beta2 (1:0.92.0+devel+201912091126+27db721)"
   sodipodi:docname="portfolio.svg"
   version="1.1"
   x="0"
   y="0"
   viewBox="0.5 0.5 20 20"
   xml:space="preserve"
   id="svg5716"
   width="20"
   height="20"><metadata
     id="metadata10"><rdf:RDF><cc:Work
         rdf:about=""><dc:format>image/svg+xml</dc:format><dc:type
           rdf:resource="http://purl.org/dc/dcmitype/StillImage" /></cc:Work></rdf:RDF></metadata><defs
     id="defs8" /><sodipodi:namedview
     inkscape:current-layer="svg5716"
     inkscape:window-maximized="1"
     inkscape:window-y="26"
     inkscape:window-x="0"
     inkscape:cy="10"
     inkscape:cx="10"
     inkscape:zoom="28.8948"
     showgrid="false"
     id="namedview6"
     inkscape:window-height="714"
     inkscape:window-width="1366"
     inkscape:pageshadow="2"
     inkscape:pageopacity="0"
     guidetolerance="10"
     gridtolerance="10"
     objecttolerance="10"
     borderopacity="1"
     inkscape:document-rotation="0"
     bordercolor="#666666"
     pagecolor="#ffffff" /><g
     id="g5710"
     transform="translate(-2,-2)"
     style="fill:#000000;fill-opacity:1"><path
       inkscape:connector-curvature="0"
       d="m 21.5,6.5 h -5 v -2 a 2,2 0 0 0 -2,-2 h -4 a 2,2 0 0 0 -2,2 v 2 h -5 a 1,1 0 0 0 -1,1 V 10 A 3.5,3.5 0 0 0 6,13.5 H 19 A 3.5,3.5 0 0 0 22.5,10 V 7.5 a 1,1 0 0 0 -1,-1 z m -7,0 h -4 v -2 h 4 z"
       id="path5706"
       style="fill:#000000;fill-opacity:1" /><path
       inkscape:connector-curvature="0"
       d="m 19,14.5 h -5.5 v 2 a 1,1 0 1 1 -2,0 v -2 H 6 A 4.48,4.48 0 0 1 2.5,12.8 v 8.7 a 1,1 0 0 0 1,1 h 18 a 1,1 0 0 0 1,-1 V 12.8 A 4.48,4.48 0 0 1 19,14.5 Z"
       id="path5708"
       style="fill:#000000;fill-opacity:1" /></g></svg>
