<svg xmlns="http://www.w3.org/2000/svg" version="1.0" x="0" y="0" viewBox="0 0 80 73.33" xml:space="preserve" id="svg6291" width="80" height="73.33"><path d="M74.16.81L3.11 30.38S-.25 31.6.01 33.86c.27 2.25 3.01 3.28 3.01 3.28l17.88 6.39s5.4 18.77 6.46 22.34c1.06 3.56 1.91 3.65 1.91 3.65.99.45 1.89-.27 1.89-.27L42.7 58.08l18 14.64c4.87 2.25 6.64-2.44 6.64-2.44L80 2.6C80-1.9 74.16.81 74.16.81zM61.58 64.84L42.32 49.18l-5.97 5.77 1.31-12.29 25.67-24.33-34.99 20.78-15.52-5.54L72.04 8.92z" id="path6285" style="fill:#1a0a00;fill-opacity:1"/></svg>
