<svg xmlns="http://www.w3.org/2000/svg" version="1.1" data-icon="zoom-in" data-container-transform="translate(0 ) scale(1 1 )" viewBox="0 0 127.37 127.44" x="0" y="0" id="svg13315" width="127.37" height="127.44"><path d="M46 0C20.64 0 0 20.64 0 46s20.64 46 46 46a45.83 45.83 0 0 0 29.56-10.78l5.66 5.66L79.09 89a1.46 1.46 0 0 0 0 2.1l36.16 36.15c.56.32 1.26.24 1.75-.25l9.9-9.9c.6-.6.6-1.6.1-2.1L95.69 83.7l-6.7 6.72-1.4-1.4 6.72-6.7-3.22-3.22a1.44 1.44 0 0 0-1.03-.44c-.37 0-.76.14-1.06.44l-2.13 2.13-5.65-5.66A45.83 45.83 0 0 0 92 46C92 20.64 71.36 0 46 0zm0 8c21.03 0 38 16.97 38 38S67.03 84 46 84 8 67.04 8 46C8 24.97 24.97 8 46 8zm-2 24v12H32v4h12v12h4V48h12v-4H48V32z" id="path13309" style="fill:#1a0a00;fill-opacity:1"/></svg>
