<?xml version="1.0" standalone="no"?>
<!DOCTYPE svg PUBLIC "-//W3C//DTD SVG 1.1//EN" "http://www.w3.org/Graphics/SVG/1.1/DTD/svg11.dtd" >
<svg xmlns="http://www.w3.org/2000/svg" xmlns:xlink="http://www.w3.org/1999/xlink" version="1.1">
<metadata></metadata>
<defs>
<font id="halanaregular" horiz-adv-x="1024" >
<font-face units-per-em="2048" ascent="1638" descent="-410" />
<missing-glyph horiz-adv-x="508" />
<glyph horiz-adv-x="0" />
<glyph unicode="&#xd;" horiz-adv-x="508" />
<glyph unicode=" "  horiz-adv-x="508" />
<glyph unicode="&#x09;" horiz-adv-x="508" />
<glyph unicode="&#xa0;" horiz-adv-x="508" />
<glyph unicode="!" horiz-adv-x="1147" d="M205 115q40 37 86 68q25 17 48 35q4 1 16 -15t25.5 -38.5t21 -42t1.5 -25.5q-23 -19 -45 -39q-40 -37 -86 -68q-4 -1 -16.5 15t-26.5 39.5t-21.5 44t-2.5 26.5zM293 432q354 803 570 1654q0 -1 6 -7q10 -12 25.5 -31.5t26.5 -40.5t9 -35q-205 -869 -557 -1691 q1 5 -6.5 15.5t-20.5 26.5q-23 27 -42 57t-11 52z" />
<glyph unicode="&#x22;" horiz-adv-x="672" d="M101 1500q0 37 20.5 57t59.5 20t60.5 -19.5t21.5 -56.5q0 -8 -4 -34l-62 -359h-30l-62 359q-4 23 -4 33zM413 1500q0 37 20.5 57t59.5 20t60.5 -19.5t21.5 -56.5q0 -8 -4 -34l-62 -359h-30l-62 359q-4 23 -4 33z" />
<glyph unicode="#" horiz-adv-x="2339" d="M162 1157q319 45 643 75q9 26 17 51q105 326 213 652q2 -2 13.5 -15.5t25 -32t22.5 -37t6 -30.5q-89 -289 -180 -577q284 24 569 33q58 159 117 319q47 130 95 260q1 0 12.5 -13.5t26 -33t24 -38.5t6.5 -31q-77 -231 -160 -460q241 4 480 -5q12 -1 23.5 -20t21 -44 t15.5 -43q5 -18 7 -19q-302 -7 -602 -19q-63 -171 -127 -342l-12 -30l-6 -16q127 0 253 -9q13 -1 24.5 -20t20.5 -43.5t15 -42.5t7 -19q-188 -3 -374 -10q-131 -360 -287 -708q1 3 -5 12t-17 22q-19 24 -36 50.5t-13 43.5q97 260 203 518q12 28 24 57q-261 -12 -520 -40 q-83 -282 -182 -557q-1 0 -13.5 14.5t-28.5 36.5t-27 43.5t-8 34.5q58 207 126 412q-171 -23 -342 -57q-11 -1 -22.5 16.5t-21.5 42t-16 43.5t-5 20q225 46 456 80q11 34 23 67q48 142 94 284q5 14 10 29q4 11 7 23q-264 -20 -529 -49q-12 -1 -23.5 17t-21 42.5t-15.5 43 t-6 19.5zM751 698q267 34 535 41q39 98 77 195q36 95 71 190q-280 -12 -560 -31q-30 -94 -59 -188q-33 -103 -64 -207z" />
<glyph unicode="$" horiz-adv-x="1668" d="M223 449.5q1 4.5 11 -4.5q100 -93 227 -164q209 475 387 966l12 36q4 13 9 26q-86 127 -140 273t-4 292q93 195 295 277q56 27 124 54q72 264 137 530q0 -1 9 -12q11 -12 25.5 -31.5t25 -39t8.5 -33.5q-40 -189 -86 -377q84 20 160 0q14 -5 25 -27.5t19 -47.5t11 -38 q2 -6 2 -7q-61 16 -123.5 0t-121.5 -41q-7 -3 -15 -6q-115 -437 -258 -865q25 -37 45 -74q99 -179 151 -376q48 -168 47 -385.5t-154 -335.5q-92 -56 -194.5 -37.5t-191.5 65.5q-53 26 -104 55q-109 -257 -239 -498q1 2 -4.5 10t-15.5 21q-22 27 -42.5 60.5t-14.5 54.5 q90 218 183 435q-76 53 -143 118q-17 17 -32 42.5t-21 47.5q-1 2 -2 6q-3 7 -5.5 16.5t-1.5 14zM598 211q32 -14 64 -27q105 -42 206 -30t173 105q58 84 71.5 187t5.5 202q-21 287 -167 530q-5 -16 -10 -31q-13 -38 -26 -77q-144 -430 -317 -859zM775 1611q12 -146 103 -274 q116 341 215 686q-57 -25 -109 -60q-195 -125 -209 -352z" />
<glyph unicode="%" horiz-adv-x="1762" d="M216 132q85 133 177 262q103 144 197 295q153 255 290 520q62 120 124 241q212 429 466 834q-1 -1 3 -6.5t10 -13.5q12 -16 26.5 -35.5t22.5 -38t3 -29.5q-245 -434 -467 -879q-55 -109 -111 -218q-135 -268 -287 -526q-13 -21 -26 -43q-149 -274 -353 -503 q-2 -1 -15.5 16.5t-29.5 42.5t-25.5 47.5t-4.5 33.5zM502.5 1851.5q21.5 40.5 67.5 83.5q64 66 129 131q-19 25 -35.5 53t-9.5 44q72 108 201 73q6 -2 11 -4l4 -2q0 1 2 0q87 -46 129 -140q135 -259 -102 -428q-56 -33 -126 -51.5t-135 -4.5q-52 14 -83.5 55.5t-49.5 89.5 q-24 60 -2.5 100.5zM581 1735q48 -2 99.5 11t77.5 23q115 41 182 141q17 28 30.5 71.5t4.5 77.5q-3 10 -4 14.5t-2 6.5v1h-1l-1 -0.5t-2.5 0l-4.5 1.5t-8 5q-13 8 -27 11q-94 -101 -190 -200q-16 -16 -39 -36q-31 -27 -63 -59.5t-52 -67.5zM705 240q31 115 136.5 209 t208.5 145q6 2 19 -15t26 -41t20 -44t2 -24q-13 -9 -25 -17q53 -110 28 -232q-22 -89 -88.5 -158t-162.5 -69q-79 9 -128 89.5t-36 156.5zM794 131q18 -1 36 2q111 23 173 120q35 54 47 117q1 8 3.5 24.5t4.5 34.5q-102 -71 -183 -167q-47 -51 -79 -112q-1 -11 -2 -19z" />
<glyph unicode="&#x26;" horiz-adv-x="1520" d="M205 1577q83 174 258 259q91 45 189 72q30 8 61 13q48 7 89.5 23.5t65.5 59.5q29 60 49 127q13 45 29 86q37 91 76 180l14 34l10 24q109 241 187 492q1 0 6 -7q10 -11 26 -31.5t28 -41.5t9 -36q-78 -258 -185 -507q-108 -251 -186 -513l-2 -4q-212 -32 -409.5 -134 t-256.5 -326q-9 -40 -13 -95.5t15 -91.5q33 -46 97 -67t117 -23q229 12 428 132q8 2 23.5 -19t32 -51.5t25.5 -56t3 -31.5q-3 -2 -6 -3q-215 -122 -383 -300q-74 -84 -125 -205t-21 -236q46 -115 169 -133t219 38q39 24 71 56q74 127 158 246q0 -1 7 -11q13 -16 33.5 -45 t34.5 -58t9 -44q-54 -124 -147 -233q-123 -227 -227 -463q-58 -127 -119 -253q1 3 -6 13t-18 24q-23 28 -43 59.5t-15 50.5q86 230 195 454h-7h-11q-117 10 -198 89t-130 180q-94 192 -51.5 354t168.5 293q-142 4 -249 130q-193 242 -94 530z" />
<glyph unicode="'" horiz-adv-x="346" d="M101 1500q0 37 20.5 57t59.5 20t60.5 -19.5t21.5 -56.5q0 -8 -4 -34l-62 -359h-30l-62 359q-4 23 -4 33z" />
<glyph unicode="(" horiz-adv-x="978" d="M227 121q-172 1131 505 2052l5 -7q10 -12 26.5 -35t27.5 -45.5t5 -33.5q-316 -460 -448 -1003q-112 -527 -39 -1061q0 -3 -3 -1t-8.5 7t-11 11.5t-9.5 12t-5 6.5q-32 45 -45 97z" />
<glyph unicode=")" horiz-adv-x="859" d="M245 98l32 60q123 210 206 441q75 234 95 478q48 571 -213 1079q-27 54 -18 58t38 -47q275 -505 276 -1081q-1 -291 -80.5 -594.5t-259.5 -537.5q-1 1 -14.5 18.5t-30 42t-27 48t-4.5 35.5z" />
<glyph unicode="*" horiz-adv-x="1638" d="M406 2875q188 -25 376 -52q-21 29 -41 58l-88 126q-3 4 -9.5 17.5t-13 30t-10.5 29.5t-2.5 15.5t11.5 -10.5q97 -136 195 -272q3 -1 6 -1q3 -1 6 -1q32 177 66 353q0 -2 12 -16q17 -20 36.5 -49t18.5 -50q-12 -82 -24 -165q121 90 243 178q4 2 16.5 -14.5t26 -40t21 -43 t1.5 -25.5q-103 -81 -208 -159q113 -17 224 -35q18 -5 31 -33.5t21 -56.5q5 -14 8.5 -23.5t5.5 -9.5q-209 26 -418 59l6 -8q83 -117 165 -234q3 -5 9 -19t13 -31t11.5 -30t3 -16t-12.5 11q-104 144 -206 289q-30 -183 -66 -364q0 1 -11 15q-18 20 -39 51t-20 52 q14 102 31 203l-28 -20q-111 -80 -221 -161q-3 -2 -15.5 14t-26 39t-21 42.5t-1.5 25.5q113 86 227 172l-244 38q-18 4 -30.5 32t-20.5 56q-4 14 -7.5 23t-6.5 10z" />
<glyph unicode="+" horiz-adv-x="1653" d="M339 701q127 3 254 7q110 4 219 7q34 99 68 197q62 180 121 360l2 -2q7 -8 24 -29t31 -44.5t10 -38.5q-58 -182 -114 -366q-11 -38 -22 -75q186 4 372 -2q13 -1 25 -22.5t22 -48t15 -42.5q3 -11 4 -11q-240 -14 -481 -13q-83 -271 -181 -536q-1 0 -12.5 13.5t-26 33.5 t-24 39.5t-7.5 31.5q59 211 129 418q-52 1 -104 1q-130 1 -259 1q-13 1 -24 18.5t-19.5 41t-14.5 41.5q-5 19 -7 20z" />
<glyph unicode="," horiz-adv-x="557" d="M119 91v42l119 125q44 0 88.5 -65.5t44.5 -151.5q0 -109 -71 -226.5t-139 -117.5v43q73 43 87 190q0 119 -129 161z" />
<glyph unicode="-" horiz-adv-x="1515" d="M411 492q69 8 138 15q278 33 558 54q11 0 22.5 -18t21 -42.5t15.5 -43t6 -19.5q-276 -33 -554 -55l-142 -12q-14 0 -27.5 25.5t-23.5 54t-13 39.5z" />
<glyph unicode="." horiz-adv-x="557" d="M172 124q40 37 86 67q24 17 48 35q3 1 15 -14.5t26 -38t21.5 -42t1.5 -25.5q-23 -19 -46 -39q-40 -38 -86 -68q-4 -2 -16.5 14.5t-26 40t-21.5 43.5t-2 27z" />
<glyph unicode="/" horiz-adv-x="2005" d="M417 93q185 328 376 652q128 218 254 437q304 542 643 1061q0 -1 3.5 -6t10.5 -13q12 -15 26 -35t22.5 -38t2.5 -29q-332 -516 -630 -1053q-5 -8 -9 -16q-90 -158 -177 -317q-213 -396 -453 -773q0 3 -14 21q-13 16 -28 37t-24 40.5t-3 31.5z" />
<glyph unicode="0" horiz-adv-x="1744" d="M231 690.5q17 281.5 124 536.5q142 331 339 633l4 6q112 211 292 355q-12 23 -17.5 40.5t-0.5 20.5q139 65 255.5 -6.5t183.5 -193.5q129 -261 121 -555q19 -601 -302 -1107q-93 -139 -245.5 -266.5t-318.5 -148t-299 161.5q-153 242 -136 523.5zM297.5 447 q2.5 -165 104.5 -257q140 -98 287.5 -45.5t272.5 174.5t198 233q259 400 292 878q23 242 -14 483q-20 176 -178 248q-47 17 -91 19q5 -17 2 -19q-237 -114 -363 -350q-166 -256 -304 -529q-132 -258 -184 -543q-25 -127 -22.5 -292z" />
<glyph unicode="1" horiz-adv-x="1753" d="M213 85q210 52 421 110q50 14 100 27q319 900 670 1790q-162 -106 -342 -182q-7 -2 -19 14.5t-24 40.5t-18.5 43t-2.5 22q270 119 500 304q4 2 15.5 -13.5t25 -38.5t22 -43t6.5 -28q-179 -470 -350 -944q-17 -48 -35 -96q-51 -142 -101 -285q-96 -274 -200 -545 q283 76 568 130q10 1 22.5 -17.5t23.5 -43t17.5 -44t3.5 -21.5q-349 -102 -707 -181h-1q-114 -26 -229 -52q-151 -34 -302 -69q-9 -1 -21 16.5t-22.5 41.5t-16.5 43t-4 21z" />
<glyph unicode="2" horiz-adv-x="2262" d="M205 147q809 463 1311 1250q142 201 216 435q13 50 20 109.5t-9 109.5q-24 59 -84 90.5t-119 42.5q-225 33 -397 -98.5t-303 -297.5l-12 15t-27 36.5t-23 40.5t-2 29q145 188 355.5 331t456.5 30q180 -106 213.5 -302t-39.5 -375q-227 -501 -616 -893 q-270 -285 -589 -510q456 54 913 106q268 30 537 61q13 0 26.5 -21t25 -49.5t18 -51l6.5 -22.5q-274 -32 -549 -64q-627 -75 -1255 -142q-9 0 -23.5 19.5t-28 46.5t-20.5 48.5t-2 25.5z" />
<glyph unicode="3" horiz-adv-x="2136" d="M207.5 262.5q0.5 4.5 3.5 2.5q356 -225 766 -109q383 102 697 345q157 113 193 300q9 112 -55.5 189.5t-161.5 122.5q-196 88 -409.5 52.5t-408.5 -104.5q-7 -1 -20.5 16.5t-26.5 42.5t-20 46t-2 25q225 148 424 330q12 10 24 21q177 147 304 334q41 65 45 125t-66 103 q-88 50 -189 44q-122 -10 -225 -76.5t-193 -145.5q-11 -9 -21 -18q-3 -1 -15.5 14.5t-26 38t-21.5 42t-2 26.5q112 108 252.5 188.5t302.5 43.5q199 -71 262 -277q34 -133 -40.5 -244.5t-170.5 -200.5l-27 -27q-116 -118 -243 -223q304 64 559 -115q124 -99 198.5 -257 t27.5 -316q-85 -195 -273 -300q-213 -137 -448 -229q-230 -90 -474 -87.5t-453 147.5q-17 13 -29.5 35t-20.5 42q-1 1 -1 2q-1 1 -3 7l-5 15t-5.5 17t-2 12.5z" />
<glyph unicode="4" horiz-adv-x="2156" d="M210 1050q210 232 403 477q300 394 662 732q3 1 15 -14.5t26 -38t22 -42t1 -26.5q-351 -343 -647 -732q-114 -144 -231 -285q375 114 746 244q114 39 229 77q193 431 467 817q0 -1 10 -14q11 -15 26 -35.5t24.5 -40.5t3.5 -31q-260 -389 -451 -812q1 -7 -2 -8l-1 -1h-2 q-53 -116 -102 -235q-70 -171 -137 -344q-144 -391 -328 -763q0 3 -6 11.5t-16 21.5q-22 27 -41 58t-13 52q185 422 362 847q53 127 107 253q4 9 8 19q2 5 5 11q-524 -203 -1068 -333q-8 -1 -21.5 16.5t-27 43t-21 47t-2.5 28.5z" />
<glyph unicode="5" horiz-adv-x="2440" d="M234 113v1q388 15 748 160q344 152 593 432q42 48 88 122.5t56.5 150.5t-51.5 129q-73 50 -181 51t-192 -10q-398 -49 -704 -308q-4 -2 -16.5 15t-26.5 41.5t-23 47t-5 31.5q120 248 238 497q106 222 212 443q-145 -19 -291 -37q-10 0 -22 17.5t-21.5 41.5t-15.5 42.5 t-5 19.5q215 37 431 71q46 94 93 187q-1 -2 4.5 -9.5t14.5 -18.5q18 -23 34.5 -49t10.5 -43l-12 -26q-4 -10 -9 -20q474 71 948 121q11 0 22.5 -18.5t21.5 -42.5t16 -43t5 -20q-541 -86 -1086 -156q-140 -300 -283 -598q-52 -107 -103 -215q324 188 695 169q174 -4 280 -139 q96 -129 93 -289q-29 -212 -214.5 -379.5t-364.5 -266.5q-419 -253 -906 -237q-12 2 -24 21t-22.5 44t-17.5 45.5t-8 24.5z" />
<glyph unicode="6" horiz-adv-x="1773" d="M195 566q26 23 56 46q2 250 112 492.5t253 436.5q356 497 910 752q7 2 19 -14.5t24 -40.5t18.5 -43t2.5 -23q-477 -231 -813 -640q-304 -366 -423 -825q-3 -13 -6 -27q246 164 539.5 206.5t471.5 -201.5q137 -190 40 -395q-76 -121 -206.5 -189.5t-267.5 -91.5 q-264 -55 -471 111q-130 130 -179 314l-3 -3q-2 -1 -4 -3q-3 -1 -17 17t-29.5 43.5t-24.5 47.5t-2 30zM325 472q-5 -164 120 -262q206 -116 439 -57q223 44 384 201q88 88 99 211q0 62 -43.5 97.5t-98.5 55.5q-227 76 -470 -12.5t-430 -233.5z" />
<glyph unicode="7" horiz-adv-x="2057" d="M191 127q252 656 700 1199q360 450 812 805q-86 -11 -172 -23q-509 -72 -1019 -125q-11 0 -22.5 17.5t-21.5 41.5t-15.5 42.5t-5.5 19.5q505 77 1013 136q233 27 465 57q8 0 21 -17.5t25.5 -41.5t19.5 -44t2 -25q-578 -411 -1017 -967q-216 -273 -393 -574 q-134 -236 -244 -483q-35 -77 -72 -153q1 2 -5.5 11.5t-16.5 22.5q-21 25 -39.5 54t-14.5 47z" />
<glyph unicode="8" horiz-adv-x="2302" d="M253 275q-10 -116 87 -151t196 -19q202 43 381 148q173 78 270 238q30 55 36 118t-33 115q-36 40 -81 71q-10 7 -19 14q-205 132 -324 342q-135 298 -1.5 552t414.5 388q331 150 694 177q220 6 262 -216q5 -65 -32 -122t-83 -105q-17 -19 -32 -37q-73 -87 -146 -175 q-62 -73 -123 -146q-70 -84 -139 -167q-196 -240 -401 -473q-1 1 -13.5 17t-28 38.5t-24.5 43.5t-2 31q221 275 452 543q85 101 170 201q46 54 96 107q114 118 200 249l4 6q6 12 12 23q7 31 11 45q-14 6 -32.5 7.5t-32.5 2.5h-5q-72 0 -144 -17q-20 -4 -40 -7 q-334 -47 -657.5 -213t-375.5 -541q-12 -239 189 -373q18 -13 35 -26q79 -54 147 -121q73 -74 120 -176t32 -207q-38 -170 -183.5 -266t-296.5 -155q-136 -63 -281.5 -67.5t-251.5 117.5q-179 261 -18 518t408 389q6 2 18 -14.5t24.5 -40t19.5 -43t2 -23.5 q-165 -94 -304.5 -250.5t-175.5 -349.5z" />
<glyph unicode="9" horiz-adv-x="2332" d="M193.5 430q5.5 112 132.5 161q10 2 24 -17.5t27 -47t20.5 -49.5t3.5 -25q-97 -40 -121 -144q-1 -3 -2 -8q-4 -14 -7.5 -31t-1.5 -26q10 -21 43 -39t57 -28q117 -45 239 -18t230 81q361 178 577 517q183 332 231 705q17 91 37 183q22 105 57 206q-266 -215 -543 -415 q-151 -120 -326.5 -176t-302.5 133q-99 174 -49.5 330t191.5 287q143 136 347.5 228t405.5 61q92 -20 167 -96.5t99 -175.5q106 87 209 176q56 62 128 110q4 2 17 -15t27.5 -41.5t22.5 -45.5t2 -28q-60 -51 -119 -102q-141 -159 -202.5 -364t-94.5 -416q-7 -36 -13 -71 q-75 -506 -425 -874q-158 -162 -403 -286.5t-469 -24.5q-88 51 -154.5 162.5t-61 223.5zM584 1613.5q-53 -117.5 25 -208.5q78 -63 191 -25t184 86q157 101 306 217q29 22 58 45q157 118 311 242q-11 19 -6 33q35 91 -21.5 129.5t-145 43t-149.5 -7.5q-179 -35 -337 -125 q-167 -94 -293 -237q-70 -75 -123 -192.5z" />
<glyph unicode=":" horiz-adv-x="557" d="M196 179q40 37 86 67q24 17 48 35q3 1 15 -14.5t26 -38t21.5 -42t1.5 -25.5q-23 -19 -46 -39q-40 -38 -86 -69q-4 -1 -16.5 15t-26 39.5t-21.5 44t-2 27.5zM196 755q40 37 86 67q24 17 48 35q3 1 15 -14.5t26 -38t21.5 -42t1.5 -25.5q-23 -19 -46 -39q-40 -38 -86 -68 q-4 -2 -16.5 14.5t-26 40t-21.5 43.5t-2 27z" />
<glyph unicode=";" horiz-adv-x="557" d="M130 -118q80 122 74 267q1 12 16 23.5t29 18.5q4 3 7 5q1 1 11 6t21.5 11t20.5 9.5t10 1.5q11 -147 -68 -271q-12 -17 -30.5 -30t-36.5 -24q-2 0 -3 -1q-3 -2 -11.5 -5.5t-18.5 -7t-16 -5t-5 1.5zM221 745q40 37 85 68q25 17 48 35q4 1 16 -15t25.5 -38.5t21 -42 t1.5 -25.5q-23 -19 -45 -39q-40 -37 -86 -68q-4 -1 -16.5 15t-26.5 39.5t-21.5 44t-1.5 26.5z" />
<glyph unicode="&#x3c;" horiz-adv-x="1656" d="M215 1260q-1 6 2 9q523 579 1192 976q5 2 17 -14t25 -39.5t20 -43t2 -23.5q-328 -206 -629 -450q-293 -249 -554 -531q257 -597 712 -1066q16 -17 30 -41t20 -46q1 -1 2 -5q3 -7 5.5 -16t1 -13t-10.5 4q-546 547 -825 1271l-2 4q-2 5 -4.5 11.5t-3.5 12.5z" />
<glyph unicode="=" horiz-adv-x="1254" d="M202 429q69 7 138 15q278 32 557 53q12 0 23.5 -18t21 -42.5t15.5 -43t6 -19.5q-276 -33 -554 -55l-142 -12q-14 0 -27.5 25.5t-23.5 54t-13 39.5zM202 771q69 7 138 15q278 32 557 54q12 -1 23.5 -19t21 -42t15.5 -42.5t6 -19.5q-276 -33 -554 -55q-71 -7 -142 -13 q-14 1 -27.5 26t-23.5 54t-13 39z" />
<glyph unicode="&#x3e;" horiz-adv-x="1567" d="M202 149q269 199 555 374q286 176 554 375q-307 715 -806 1313q-15 17 -28.5 39t-19.5 43q0 1 -1 3q-1 4 -3 11.5t-3 13.5t0.5 7t8.5 -6q574 -685 919 -1512q1 -1 1 -2q2 -4 5 -11.5t4.5 -14.5t-1.5 -9q-269 -201 -554 -376q-289 -178 -560 -381q-4 -1 -17.5 16.5 t-28.5 42.5t-23 46t-2 28z" />
<glyph unicode="?" horiz-adv-x="1626" d="M147 1742q26 97 111 174t171 118q244 102 511 112q113 10 221 -13t188 -108q51 -56 87 -133.5t35 -154.5q-7 -97 -65 -184t-126 -163q-29 -33 -55 -65q-123 -154 -245 -308q-258 -326 -520 -648l-4 5q-10 11 -30 38.5t-34.5 55t-5.5 40.5q185 233 373 463q88 108 175 217 q83 102 166 205q47 58 95 117q20 25 43 52q53 58 98.5 124.5t58.5 139.5q11 140 -125.5 175t-305.5 16.5t-255 -39.5q-176 -32 -321 -134q-11 -8 -43 -39.5t-67 -71.5t-55.5 -74.5t-7.5 -48.5q16 -14 29.5 -37.5t18.5 -43.5q1 -2 2 -6q3 -7 5 -15t1 -11.5t-10 3.5 q-49 43 -87.5 109t-26.5 133zM216 136q40 36 85 67q25 17 49 35q3 1 15 -14.5t26 -38.5t21.5 -42t1.5 -26q-23 -18 -46 -39q-40 -37 -86 -68q-4 -1 -16.5 15t-26 39.5t-21.5 44t-2 27.5z" />
<glyph unicode="@" horiz-adv-x="3272" d="M180 800q-2 237 121.5 451.5t282.5 380.5q312 343 746 502q425 145 879.5 43.5t721.5 -481.5q226 -339 93 -723q-172 -426 -606 -571q-401 -103 -644 227q-87 124 -121 268q-151 -200 -363 -337q-98 -70 -235.5 -119t-238.5 48q-175 222 28 426q284 299 610 552 q3 1 15.5 -15t26.5 -39.5t22 -43.5t2 -27q-254 -211 -489 -443q-18 -17 -36 -35q-82 -74 -145 -161q-27 -40 -42 -85q7 -42 -22 -27q6 -15 31 -21t52.5 -6t41.5 1q119 12 231.5 78t202.5 141q217 176 353 419q2 -3 3 -6q1 -1 2 -3q5 -6 13 -17q20 -25 40 -56t12 -50 q-50 -85 -55 -186.5t51 -186.5q127 -159 331 -180q396 -12 664 288q241 259 241 611q-21 214 -187 353t-358 210q-712 248 -1364 -136q-287 -175 -501 -434q-121 -142 -215 -311.5t-112 -357.5q-9 -222 137.5 -358.5t347.5 -191.5q398 -85 805 -18l31 3q13 0 25.5 -19.5 t23 -46.5t17 -47t6.5 -22q-275 -44 -558 -38t-529 156q-160 105 -268.5 276t-120.5 365z" />
<glyph unicode="A" horiz-adv-x="2126" d="M3 114q197 413 453 792q-53 -14 -106 -24q-26 -5 -50 -5q-115 0 -173 113q-9 16 -16.5 35.5t-9.5 32t4 9t24 -34.5q24 -37 82 -37q3 1 7 1q64 2 137 25t129 46q36 13 55 19q15 5 30 9q12 4 24 7q35 49 72 97q339 447 751 828q26 24 57 56q83 87 185 163q81 60 163 60 q22 0 43 -4q73 -23 119.5 -92t67.5 -139q16 -54 16 -107q0 -52 -15 -104q-30 -104 -78 -201l-16 -36q-47 -104 -97 -207q-9 -20 -18 -39q12 -19 23.5 -45t18 -46.5t4.5 -22.5q-54 -11 -109 -22q-47 -101 -87 -206q-107 -283 -107 -571q0 -219 62 -439q5 -15 5 -19.5t-4 -2.5 t-10 7q-3 3 -7 6q-19 17 -33 47.5t-21 54.5q-70 234 -70 468q0 241 74 481q23 73 52 145q-391 -79 -778 -182q-96 -27 -193 -60q-2 -1 -5 -2q-336 -462 -591 -975q1 2 -4.5 10t-14.5 19q-19 23 -35 49t-10 43zM806 1163q7 2 13 4q68 19 136 36q371 100 749 170q33 70 67 139 q1 3 3 7q28 57 60 118q123 205 160 418q3 16 3 30q0 83 -97 92q-62 0 -114 -31q-87 -51 -161 -122q-14 -13 -28 -25q-185 -163 -357 -340q-230 -237 -434 -496z" />
<glyph unicode="B" horiz-adv-x="1646" d="M-112 1160q220 -60 443 -66q30 75 61 149q21 52 42 103q173 416 324 840q1 0 12.5 -13t25.5 -32.5t23.5 -38.5t6.5 -31q-130 -401 -293 -790q-37 -93 -73 -186q11 0 21 1q5 0 10 1q34 3 70 6q175 18 347 76q229 76 442 223.5t326 366.5q57 116 57 246v17 q-23 193 -207 252q-140 44 -284 44q-105 0 -212 -24q-525 -98 -905 -473q-2 -1 -14.5 14.5t-26.5 37.5t-22 41.5t-2 27.5q400 397 957 484q83 13 165 14q113 0 222 -26q188 -44 303 -223q90 -162 89 -317q0 -202 -151 -393q-258 -305 -648 -438q63 -31 114 -88 q123 -161 123 -320q0 -173 -146 -344q-178 -194 -427 -283q-111 -44 -239 -58q-26 -3 -50 -2q-99 0 -187 46q-157 100 -181 273q-3 22 -4 43q0 144 140 241q60 205 139 404q-172 16 -332 70q-12 5 -22.5 24t-19 42.5t-11.5 32.5zM73 250q-3 -13 -4 -25q0 -40 37 -74 q72 -55 172 -55h4q102 1 187 22q314 71 537 304q119 121 158 286q4 25 4 48q0 70 -40 116q-53 60 -148 87q-97 28 -203 28q-17 0 -34 -1q-152 -28 -305 -28h-30l-64 -170q-65 -176 -133 -351l-2 -2q-38 -30 -80 -80t-56 -105z" />
<glyph unicode="C" horiz-adv-x="2126" d="M27 313q-29 107 -29 212q0 172 77 339q117 305 309 568q195 270 470 499t596 334q75 21 141 21q208 0 335 -206q71 -115 71 -226q0 -121 -84 -239l-1 1q-6 7 -24.5 31.5t-32.5 50.5t-7 39q66 79 82 183q2 16 3 31q0 84 -73 148q-94 62 -198 62q-53 0 -108 -16 q-301 -96 -550 -295q-437 -323 -704 -796q-139 -235 -207 -499q-23 -83 -23 -167q0 -47 7 -94q19 -72 75 -110t124 -57q152 -41 316 -41q101 0 207 16q276 41 516 118q458 156 854 437q5 2 16.5 -11.5t20 -39t7.5 -44t-8 -23.5q-264 -197 -587 -344q-331 -152 -688 -215 q-137 -27 -273 -27q-159 0 -316 37q-235 83 -314 323z" />
<glyph unicode="D" horiz-adv-x="2038" d="M23 829q0 -1 7 -9q10 -12 26 -32t27.5 -41t8.5 -35q-17 -71 -17 -134q1 -99 43 -179q70 -130 207 -201q-1 7 0 12q116 383 268 755q42 107 83 214q183 478 354 961q1 0 12 -13t25.5 -32.5t24 -38.5t6.5 -31q-140 -433 -305 -857q-22 -58 -44 -115q-82 -221 -161 -443 q-80 -227 -165 -453q117 -38 234 -38q83 0 168 19q457 137 689 561q272 453 293 979v21q0 339 -287 515q-139 60 -281 60q-110 0 -223 -36q-485 -146 -866 -480q-3 -1 -15 14.5t-26 38t-22 42t-1 26.5q300 257 665 411q157 68 329 97q56 9 111 10q115 0 227 -42 q228 -102 344 -338q114 -232 114 -469v-8q-16 -342 -149 -660q-106 -296 -305 -539q-191 -221 -475 -320q-119 -41 -236 -41q-163 0 -322 80q-195 114 -307 330q-76 147 -76 296q0 71 17 143z" />
<glyph unicode="E" horiz-adv-x="1832" d="M6 368q-8 43 -8 84q0 71 24 141q38 110 97 207q130 217 303 402q237 251 532 426q-31 27 -56 71q-41 77 -41 144q0 45 19 85q47 98 163 177q115 89 256 138q45 16 89 16q93 0 178 -71q66 -62 104 -152q20 -48 21 -94q0 -41 -16 -82q1 3 -5 11.5t-16 20.5q-18 21 -33.5 46 t-9.5 42q11 30 11 54q0 38 -27 58q-45 34 -117 38q-12 1 -25 0q-57 0 -101 -14q-148 -55 -271 -157q-32 -23 -79.5 -69.5t-71.5 -95.5q-8 -18 -8 -33q0 -28 27 -49q36 -22 78 -22q32 0 68 13q76 39 155 72q7 2 20 -15.5t26 -42.5t20 -45t2 -24q-54 -30 -108 -50 q-397 -193 -702 -514q-150 -159 -269 -342q-67 -98 -121 -216q-43 -92 -42 -186q0 -26 3 -52q18 -86 103.5 -127t189.5 -51q81 -8 146 -9q18 0 35 1q374 17 708 180t629 379q4 2 11.5 -12.5t19.5 -36t10.5 -45.5t-7.5 -30q-407 -352 -946 -517q-175 -52 -355 -52 q-112 0 -225 20q-297 52 -388 380z" />
<glyph unicode="F" horiz-adv-x="1313" d="M4 1159q269 43 541 78q9 30 19 59q115 354 236 707q-343 -60 -686 -138q-10 -1 -22 16.5t-22.5 42t-16.5 43.5t-4 20q990 257 2012 302q13 0 25.5 -21t22 -47.5t14.5 -42.5q3 -11 4 -12q-647 -47 -1281 -155q17 -21 29 -43t9 -36q-107 -341 -219 -679q298 36 596 69 q12 1 23.5 -17.5t21.5 -43t16 -43.5t5 -20q-355 -52 -713 -99l-10 -32q-18 -53 -35 -107q-47 -145 -93 -292q-102 -340 -225 -672q-1 -1 -13 13t-27 35t-25 41t-7 33q98 336 215 668q51 149 100 298q-212 -27 -425 -47q-11 0 -22.5 17.5t-21.5 41.5t-15.5 42.5t-5.5 20.5z " />
<glyph unicode="G" horiz-adv-x="2029" d="M3 582v22q0 290 106 531q300 625 955 867q150 63 310 96q8 1 19 3q38 9 84 14q14 1 26 1q30 0 53 -8q64 -33 93 -120t32 -155q-2 8 -20 31q-16 20 -30.5 42.5t-16.5 40.5q-1 5 -1 10q0 7 -0.5 15t-3.5 14q-3 5 -4 9q0 -4 -1 -6.5t-5 -1.5q-16 2 -32 2q-26 0 -52 -5 q-7 -1 -13 -2q-123 -17 -239 -58q-271 -90 -511 -243q-485 -319 -640 -878q-40 -139 -40 -308v-31q4 -186 154 -276q99 -48 218 -50q8 -1 16 -1q111 0 208 35q182 71 340.5 201.5t291.5 270.5q137 136 255 288q9 11 19 24t21 27q-304 -41 -608 -70q-11 -1 -22.5 17t-21 42 t-15.5 42.5t-5 19.5q626 98 1257 164q11 1 22.5 -17.5t21.5 -43t16 -43.5t6 -20q-256 -37 -512 -73q1 -4 1 -8q-8 -60 -50 -120q-272 -672 -439 -1379q-1 1 -10 12q-11 13 -27 34.5t-27.5 43t-9.5 35.5q97 500 282 978q-143 -157 -305 -295q-184 -167 -431 -268 q-98 -40 -193 -40q-147 0 -290 95q-228 191 -232 493z" />
<glyph unicode="H" horiz-adv-x="1440" d="M4 131q97 329 212 654q13 39 27 78l-54 -8q-50 -8 -101 -17q-11 -1 -22.5 17t-22 42.5t-16.5 43.5t-5 20q136 29 272 54l6 18q6 16 11 32q39 116 77 233q114 348 234 694q1 -1 12 -14t25.5 -32t24 -38t6.5 -31q-112 -356 -230 -710q-22 -65 -43 -131q374 64 750 103 q56 167 111 334q170 521 348 1039q0 -1 11.5 -14t26 -32t24 -38t5.5 -31q-168 -529 -344 -1056q-31 -96 -63 -193q11 -6 21.5 -25t19 -41.5t13.5 -39t5 -17.5q-30 -4 -61 -8q-22 -3 -43 -6q-3 -7 -5 -14q-3 -9 -6 -17q-70 -216 -139 -433q-155 -492 -328 -978q-1 0 -13 14 t-27 34.5t-25 41t-7 32.5q151 497 321 987q54 159 107 317q-376 -51 -752 -112q-37 -113 -72 -227q-100 -327 -219 -647q-1 0 -13 14t-26.5 34.5t-25 41t-7.5 32.5z" />
<glyph unicode="I" horiz-adv-x="1479" d="M-2 118q189 44 376 96q-9 19 -6 31q104 353 227 702q52 152 103 304q41 122 81 245q111 336 225 671q-199 -32 -398 -81q-9 -2 -21 16t-23 42.5t-17 43.5t-4 20q458 128 932 144q13 -1 25.5 -22t22 -47.5t14.5 -43.5l4 -10q-228 -17 -452 -49q17 -28 14 -46 q-119 -376 -243 -750q-43 -129 -86 -259q-50 -153 -98 -307q-89 -289 -189 -573q227 65 453 141q9 2 21 -15.5t24 -42.5t18 -44.5t3 -21.5q-461 -168 -941 -266q-10 -1 -22 16.5t-22.5 42t-16.5 43t-4 20.5z" />
<glyph unicode="J" horiz-adv-x="1763" d="M13 561q42 145 148 252t224 194q3 1 16 -15t27 -39.5t22 -44t1 -26.5q-112 -85 -214 -188t-147 -240q-19 -59 -19 -124q0 -13 1 -26q4 -78 68 -124q89 -49 185 -49q44 0 89 10q219 46 420 178t359 286q336 321 519 748q99 217 115 454q1 15 1 29q0 75 -22 143 q-26 81 -106 136q-110 65 -238 66h-20q-238 0 -474 -93q-245 -97 -449 -231q-5 -2 -17.5 14.5t-25.5 40t-20.5 43t-1.5 24.5q330 216 716 303q95 22 190 22l114 -8q152 -21 262 -140q157 -191 157 -420q0 -8 -1 -16q-5 -238 -100 -463q-235 -570 -724 -947 q-121 -96 -298.5 -196t-355.5 -116q-17 -1 -33 -1q-157 0 -270 142q-109 144 -109 312q0 54 11 110z" />
<glyph unicode="K" horiz-adv-x="2028" d="M3 125q134 555 336 1094q-44 146 -55 297q2 -8 21 -32q15 -19 29.5 -41.5t17.5 -41.5q5 -55 15 -108q206 538 473 1042q0 -2 5 -9.5t14 -18.5q19 -23 36 -50t10 -44q-269 -546 -485 -1115q36 -98 90 -187q232 346 529 645q276 275 595 500q265 204 588 284q11 1 23.5 -18 t23.5 -45.5t17.5 -46.5t5.5 -22q-330 -84 -601 -294q-310 -222 -581 -491q-290 -294 -517 -632q91 -115 211 -215q309 -278 715 -342q19 -5 34 -38.5t25 -64.5q4 -13 6.5 -21t4.5 -8q-270 20 -513 178t-416 359q-48 56 -92 116q-144 -215 -282 -435q-103 -164 -210 -327 q0 1 -12 17t-27 39t-25.5 44.5t-8.5 31.5zM191 421q3 4 6 9q142 227 291 448q-49 82 -87 170q-116 -310 -210 -627z" />
<glyph unicode="L" horiz-adv-x="2576" d="M9 4q109 35 220 65q272 552 478 1132q20 54 39 109q169 495 382 973q-1 -3 5 -11l15 -20q19 -22 34.5 -47.5t9.5 -42.5q-184 -433 -335 -884q-196 -604 -471 -1169q604 143 1216 143q272 0 546 -28q18 -5 31 -34.5t22 -59.5q4 -13 7 -21.5t5 -8.5q-251 21 -499 21 q-718 0 -1419 -178q0 -1 -1 -3q-1 -1 -1 -2q0 1 -1 4q-110 -28 -218 -60q-9 -2 -21 15.5t-23.5 42t-17.5 43.5t-3 21z" />
<glyph unicode="M" horiz-adv-x="2606" d="M8 50l302 386q709 884 1370 1808l5 -6q9 -13 26.5 -37t30.5 -48t9 -37q-355 -852 -541 -1753q655 1044 1631 1800q4 1 17.5 -16t28 -42t23.5 -47t4 -31q-643 -934 -908 -2036q0 1 -11 14q-20 22 -45 58q-22 32 -22 56v5q202 861 650 1624q-847 -746 -1417 -1724 q-1 1 -12.5 17.5t-26 40t-25.5 45t-11 31.5q105 821 408 1593q-664 -951 -1422 -1821q-1 0 -13 15t-26.5 36t-22.5 40.5t-2 28.5z" />
<glyph unicode="N" horiz-adv-x="2880" d="M4 84q373 581 801 1125t986 959q4 2 16.5 -14t26 -39t21.5 -44t3 -29q-313 -465 -327 -1025q-1 -31 -1 -63q0 -139 28 -285q35 -180 180 -281q100 -52 197 -53q130 0 252 96q199 157 322.5 399t179.5 485q56 236 56 471q0 276 -77 550q-3 9 -1 10t7 -3t10 -10t8 -10l3 -3 q16 -19 27 -44.5t18 -49.5q82 -286 82 -574q0 -252 -63 -506q-105 -477 -440 -825q-150 -132 -306 -132q-31 -1 -63 5q-188 32 -319 228q-187 301 -187 658v42q12 381 168 728q-464 -400 -835 -888.5t-708 -1000.5q0 2 -13 19q-13 15 -27.5 35.5t-23 39t-1.5 29.5z" />
<glyph unicode="O" horiz-adv-x="2047" d="M27 693q162 536 599 934q13 189 170.5 327t323.5 226q185 111 404 138q34 4 67 4q179 0 330 -123q120 -111 181 -271q52 -138 52 -277q0 -23 -1 -45q-24 -232 -147.5 -442.5t-274.5 -383.5q-300 -350 -700 -578q-173 -106 -396 -178q-85 -27 -164 -27q-130 0 -246 73 q-140 109 -189 283q-27 96 -27 189q0 76 18 151zM81 389q8 -126 92.5 -188t203.5 -62q167 2 327 72t300 156q622 367 962 1003q97 182 114 406q1 18 1 35q0 199 -180 314q-122 63 -252 63q-43 0 -87 -7q-176 -28 -330 -113q16 -24 25 -46t2 -29l-60 -52q-256 -213 -496 -447 q17 -120 139 -142q54 -10 112 -9q74 0 155 15q145 28 227 58q9 1 22 -17.5t25 -44.5t19 -46.5t4 -23.5q-126 -52 -261 -78q-46 -9 -91 -8q-89 0 -176 34q-147 73 -211 226q-293 -287 -478 -658q-103 -193 -108 -411z" />
<glyph unicode="P" horiz-adv-x="1401" d="M3 1000q232 -63 466 -67q26 66 51 132q183 478 354 961q1 0 12.5 -13t25.5 -32.5t23.5 -38.5t6.5 -31q-140 -433 -305 -857q-22 -58 -43 -115q-1 -1 -1 -2t-1 -1q218 11 432 83q229 76 441.5 223.5t326.5 366.5q57 116 57 245v17q-23 194 -207 253q-141 43 -284 43 q-105 0 -212 -23q-525 -98 -906 -473q-1 -1 -13.5 14.5t-26.5 37.5t-22.5 41.5t-1.5 27.5q400 397 957 484q83 13 165 13q113 1 222 -25q188 -44 303 -223q89 -162 89 -317q0 -202 -152 -393q-479 -530 -1219 -533q-55 -151 -108 -301q-93 -263 -192 -523l-12 14t-27 34.5 t-25 41t-8 33.5q108 358 249 706q-184 15 -355 72q-12 5 -23 24t-19 42.5t-11 32.5z" />
<glyph unicode="Q" horiz-adv-x="2047" d="M19 695q162 536 599 934q12 189 170 327t324 226q185 111 404 138q34 4 67 4q179 0 330 -123q119 -111 181 -271q52 -137 52 -273q0 -25 -2 -49q-23 -232 -146.5 -442.5t-275.5 -383.5q-228 -267 -519 -465q32 -34 76 -61q128 -72 273 -72q23 0 46 2q12 -1 24.5 -20 t22.5 -45t16.5 -46t6.5 -21q-23 -1 -44 -1q-283 0 -457 240q-71 -47 -144 -89q-173 -106 -396 -178q-85 -27 -164 -27q-130 0 -247 73q-139 109 -188 283q-27 96 -27 189q0 76 18 151zM73 391q8 -126 92 -188t204 -62q166 2 326.5 72t300.5 156q47 29 94 59q-52 120 -52 243 q0 48 8 96q1 -2 12 -16q18 -21 37.5 -49.5t18.5 -49.5q-5 -36 -5 -70q0 -67 18 -129q533 357 830 919q97 182 115 406q1 18 1 35q0 198 -180 314q-122 63 -252 63q-43 0 -87 -7q-176 -28 -330 -113q15 -25 24 -46.5t3 -28.5l-60 -52q-257 -213 -497 -447q17 -120 140 -142 q53 -10 112 -10q74 0 154 16q145 28 227 58q9 1 22 -17.5t25.5 -44.5t19.5 -46.5t3 -23.5q-126 -51 -261 -78q-45 -8 -90 -8q-89 0 -176 34q-147 73 -211 226q-293 -287 -478 -658q-104 -193 -108 -411z" />
<glyph unicode="R" horiz-adv-x="1989" d="M-4 1022q213 -57 429 -66q-110 237 -130 496q2 -9 21 -32q15 -19 29.5 -41.5t17.5 -41.5q19 -207 100 -379q25 64 50 129q183 478 354 961q1 0 12 -13t25.5 -32.5t24 -38.5t6.5 -31q-140 -433 -305 -857l-44 -114v-2q-1 -1 -1 -2q218 11 432 83q229 76 441.5 223.5 t325.5 366.5q57 115 57 242v21q-22 193 -207 252q-140 44 -284 44q-105 0 -212 -24q-525 -98 -905 -473q-2 0 -14 15t-26.5 37t-22.5 41.5t-1 27.5q400 398 957 484q83 13 165 14q113 0 222 -26q188 -44 303 -223q89 -162 88 -317q0 -203 -151 -393q-478 -529 -1215 -533 q109 -169 277 -308q309 -278 715 -342q19 -5 34 -39t25 -65q4 -12 6.5 -20t4.5 -8q-270 20 -513 178t-416 359q-84 96 -152 205q-47 -130 -93 -260q-93 -263 -192 -523q-1 -1 -13 13t-27 35t-25 41t-7 33q108 358 249 706q-184 15 -355 72q-12 5 -23 24.5t-19 42.5t-10 32z " />
<glyph unicode="S" horiz-adv-x="1656" d="M12 446q51 120 170 191t241 117q24 10 47 20q319 134 657 207q11 1 23.5 -17.5t23.5 -44.5t17.5 -46t4.5 -22q-387 -87 -748 -252q-12 -6 -24 -11q-148 -58 -264 -161q-72 -72 -90 -173q-1 -9 -2 -17q0 -28 18 -44q22 -20 60 -35q81 -31 172 -31q70 1 145 19 q174 42 307 109q300 141 418 449q34 97 34 196q0 53 -10 107q-22 92 -81.5 160t-129.5 127q-16 14 -31 27q-190 159 -297 381q-48 97 -48 187q0 128 97 242q94 91 236 151q140 60 268 60h4q103 -6 167.5 -72t97.5 -160q20 -61 21 -119q0 -64 -26 -124q-48 -113 -130 -214 q0 1 -8 11q-11 14 -27.5 36t-27 43.5t-3.5 33.5q7 8 14 18q54 67 102 151q39 69 40 140q0 15 -2 30q-14 73 -76 91q-36 11 -77 11q-28 0 -58 -6q-73 -12 -124 -30q-155 -46 -292 -149q-126 -95 -126 -255q0 -14 1 -28q17 -107 93 -193.5t170 -163.5q105 -86 177 -176 q126 -166 153 -371q2 -27 2 -53q-1 -275 -183 -465q-200 -208 -482 -286q-125 -38 -265 -44q-8 0 -15 -1q-130 0 -229 89q-69 70 -103 168q-17 50 -18 99q0 47 16 93z" />
<glyph unicode="T" horiz-adv-x="1362" d="M0 1982.5q-1 6.5 1 8.5t9 -5q988 254 2007 300q13 -1 25 -21.5t21.5 -47t14.5 -42.5l4 -12q-492 -36 -977 -107q-118 -375 -241 -747q-46 -141 -93 -282q-50 -156 -99 -313q-111 -365 -242 -722q-1 0 -13 14t-27 34.5t-25 41t-7 32.5q1 4 2 7t2 7q7 117 7 235 q0 265 -36 529q-1 5 -1 10q-27 272 -91 537q-40 234 -178 422q-2 1 -3 3q-1 1 -1 2q-9 7 -18 23q-22 31 -32 64q0 1 -1 3q-2 5 -4.5 12.5t-3.5 14zM104 1869q126 -194 188.5 -428t92.5 -454q47 -280 63 -578q69 213 142 425q55 159 108 318q39 121 79 242q105 323 215 644 q-445 -69 -888 -169z" />
<glyph unicode="U" horiz-adv-x="2684" d="M6 28q18 100 52 196q8 24 15 47q93 293 219 574q267 597 658 1121q0 -1 10 -12q11 -14 27 -36t25.5 -42.5t2.5 -31.5q-386 -530 -655 -1128q-128 -286 -220 -587q-6 -19 -13 -39q-35 -103 -51 -209q-1 -3 -1 -7q-3 -18 -5 -45t2 -46q16 0 33 1.5t33 3.5q22 6 36 9 q98 44 178 128q26 24 50 45q108 92 216 185q55 47 110 95q168 145 336 289q888 789 1903 1403q5 2 18 -15t27 -41t21.5 -45t2.5 -27q-782 -723 -895 -1782q-1 5 -18 26q-19 22 -38 51t-19 51q73 769 534 1383q-409 -273 -794 -580q-509 -409 -1002 -840l-24 -20 q-138 -120 -277 -238q-28 -25 -58 -52q-78 -78 -169 -132q-46 -23 -84 -23q-43 0 -76 29q-62 54 -94 144q-22 63 -22 128q0 34 6 69z" />
<glyph unicode="V" horiz-adv-x="1607" d="M10 1079q56 707 426 1311q-1 -2 3.5 -8t11.5 -15q19 -23 37.5 -52.5t11.5 -46.5q-376 -633 -422 -1368q-11 -103 -11 -204q0 -220 53 -435q44 -115 144 -133q31 -6 62 -6q71 0 147 28q109 40 181 100q179 156 330 344q34 39 67 77q196 224 379 457q360 448 643 948 q105 184 185 385.5t90 414.5q1 -6 18 -27t33 -45.5t18 -44.5q-9 -275 -131 -537t-268 -490q-353 -564 -788 -1068q-8 -9 -16 -19q-199 -243 -421 -465q-108 -110 -256 -168q-60 -24 -118 -23q-88 0 -174 52q-90 65 -140.5 173t-68.5 214q-36 212 -36 426q0 112 10 225z" />
<glyph unicode="W" horiz-adv-x="2508" d="M19 -13q-15 51 -15 106t16 115q31 118 76 227q19 46 34 87q96 271 219 531q265 564 646 1056l7 -9q10 -13 26.5 -35.5t27.5 -45t4 -33.5l-50 -70v1q-344 -468 -592 -992q-121 -258 -216 -526q-50 -139 -92 -281q-3 -9 -6 -21q-13 -37 -22 -83q-4 -18 -4 -35q0 -25 8 -43 q13 -30 62 -29h6q48 4 91 34.5t80 64.5q14 13 26 24q103 87 202 178q189 177 366 367q549 599 984 1286q127 225 269 440q0 -1 1 -3l2 -2q4 -6 11 -16q13 -16 28.5 -37.5t24.5 -41t3 -31.5q-88 -148 -179 -293q-214 -364 -388 -748q-114 -255 -210 -517q-45 -122 -86 -246 q-5 -15 -13 -36q-16 -42 -30 -90q-7 -26 -8 -47q0 -17 5 -31q2 -6 1 -7q2 1 8 2t19 1q7 1 13 1q12 0 21.5 1t22.5 5q46 19 83 53q74 63 143 133q22 23 45 45q184 178 359 365q364 389 690 811q28 36 58 74q156 189 282 409q107 187 107 395q0 36 -3 73q-2 12 2 11t10.5 -8 t11.5 -14q3 -4 4 -6q16 -19 29.5 -46t17.5 -51q4 -44 4 -88q0 -237 -128 -453q-152 -255 -342 -473q-47 -57 -91 -112q-389 -489 -832 -931q-116 -116 -236 -228q-7 -7 -14 -13q-37 -38 -83 -70q-43 -30 -94 -30h-6q-69 12 -112 79t-59 130q-10 44 -10 89q0 56 16 113 q28 104 70 201q18 44 33 85q68 187 145 370q-7 -10 -14 -19q-10 -14 -21 -27q-366 -484 -804 -903q-112 -106 -228 -206q-17 -15 -35 -31q-39 -37 -83 -70t-94 -44q-11 -1 -21 -1q-73 1 -121 63q-55 72 -78 147z" />
<glyph unicode="X" horiz-adv-x="2537" d="M9 119q381 305 783 582l156 110q118 83 235 166q-167 420 -167 846q0 264 64 532q1 -1 9 -11q11 -12 25.5 -31t25 -38.5t7.5 -33.5q-66 -264 -65 -526q0 -321 98 -639q13 -41 28 -81q514 356 980 771q276 245 499 548t292 673q1 -3 14 -19q18 -21 37.5 -49.5t17.5 -48.5 q-70 -386 -307 -701q-251 -337 -573.5 -613.5t-662.5 -520.5q-119 -87 -238 -172q240 -465 719 -707q18 -12 31.5 -44.5t21.5 -60.5q6 -24 9 -27q-544 278 -806 822q-133 -95 -266 -189q-460 -318 -902 -661q-3 -1 -15.5 15t-26.5 39t-21.5 42.5t-1.5 26.5z" />
<glyph unicode="Y" horiz-adv-x="2077" d="M-3 945q0 85 43.5 169.5t95.5 157.5q15 23 29 44q123 192 274 363q311 349 712 591q5 2 17 -14.5t25 -40t20 -43t2 -24.5q-448 -272 -781 -676q-162 -198 -289 -420q-4 -8 -10 -18q-29 -46 -57 -108q-16 -36 -16 -63q0 -19 8 -34q19 -25 57 -25q5 0 11 1q46 4 92.5 21 t70.5 29q514 280 976 641q463 349 902 728q3 1 15.5 -15t26.5 -39t22 -43t2 -27q-157 -149 -215 -346.5t-83 -405.5q-6 -41 -12 -81q-51 -425 -334 -743q-315 -318 -748 -441l-12 -4q-160 -56 -341 -74q-21 -2 -42 -2q-154 0 -264 118q-14 17 -27.5 40t-18.5 44q0 1 -1 3 l-2.5 10t-2 11t2 6t7.5 -6q104 -103 260 -103q53 0 112 12q233 47 399 119q4 2 9 4q390 142 661 455q146 184 206.5 394t89.5 439q22 157 67 307q-316 -263 -646 -509q-423 -316 -879 -580q-78 -49 -169 -73q-24 -7 -47 -7q-65 0 -122 51q-38 39 -65.5 95t-30.5 112z" />
<glyph unicode="Z" horiz-adv-x="2969" d="M7 122q515 623 1139.5 1148t1390.5 786q-785 -42 -1540 -274q-9 -2 -21 15.5t-23 41.5t-17 43t-3 21q923 284 1884 284q131 0 262 -5q11 -1 22.5 -19t21.5 -42t16 -42t5 -19q-917 -154 -1647 -696t-1316 -1240q104 1 209 1q150 -3 289 -3q437 0 767 33q436 44 1039 270 q5 1 17.5 -15.5t26 -40t21 -44t1.5 -25.5q-603 -226 -1039 -270q-330 -33 -765 -32q-140 0 -291 3q-192 0 -383 -3q-11 2 -29 28.5t-30 56t-7 39.5z" />
<glyph unicode="[" horiz-adv-x="1702" d="M185 142q145 647 379 1269q108 294 233 582q9 21 18 45q19 54 47 100l3 3q7 12 11.5 17t9 6.5t12.5 2.5t23 4q36 6 75 5h36q49 3 98 5q141 9 281 11q14 -2 27.5 -27t23.5 -53t13 -38v-3q-145 -13 -291 -18q-53 -3 -106 -5q-15 -1 -30 -1q-30 1 -59 -4l-21 -3 q-9 -2 -14 -3.5t-9 -6.5t-11 -15l-4 -6q-28 -45 -45 -100q-9 -25 -18 -47q-129 -305 -240 -617q-197 -540 -328 -1099h127q272 4 544 -6q15 -2 28.5 -24.5t24 -51.5t17.5 -50q6 -18 7 -19q-270 -7 -541 0q-121 2 -240 3q-16 2 -35.5 32t-33.5 63.5t-12 48.5z" />
<glyph unicode="\" horiz-adv-x="1078" d="M212 1710q9 4 38 -48q439 -812 634 -1712q3 -13 -1 -11.5t-10.5 8.5t-11.5 14q-3 4 -4 5q-17 19 -28.5 45t-17.5 50q-206 826 -581 1590q-27 55 -18 59z" />
<glyph unicode="]" horiz-adv-x="1734" d="M195 176q155 -1 311 -13q65 -5 129 -9q16 -1 35 -3q44 -6 85 -2t60 41q17 46 20 107q3 33 8 60q71 329 182 647q41 121 83 243q179 471 273 962q-206 -1 -411 14q-18 4 -32 35.5t-22 60.5q-4 11 -6.5 18t-3.5 7q247 -10 494 -7q13 -1 29.5 -27t28.5 -55t11 -42 q-83 -568 -290 -1106q-206 -537 -289 -1103q-1 -1 -1 -2t-1 -2l-188 8q-216 6 -430 27q-14 3 -26.5 24t-23 48t-17.5 47q-6 21 -8 22z" />
<glyph unicode="^" horiz-adv-x="1410" d="M245 831q328 581 775 1077q3 2 14 -14t24.5 -39t23 -44t9.5 -29q-83 -609 8 -1216q1 -13 -3 -12t-10.5 8.5t-11.5 14.5q-3 4 -5 6q-16 19 -29.5 46.5t-17.5 52.5q-73 490 -31 982q-373 -453 -681 -956q0 1 -4 7t-11 15q-19 23 -37.5 53t-12.5 48z" />
<glyph unicode="_" horiz-adv-x="1548" d="M237 -46l170 2q431 11 860 -8q13 -2 25 -22.5t22 -46t15 -43.5q5 -15 6 -15q-422 -12 -846 7l-188 6q-12 1 -22.5 18.5t-19 40.5t-14.5 41q-6 19 -8 20z" />
<glyph unicode="`" d="M212 1363q0 31 20.5 51t53.5 20q20 0 40.5 -12t55.5 -47l291 -296h-69l-330 202q-31 20 -46.5 40t-15.5 42z" />
<glyph unicode="a" horiz-adv-x="1296" d="M-249 289q49 161 207 296t314 187q59 20 118 20q26 0 52 -4q86 -12 139 -85q22 -33 37 -66q92 83 177 171q2 0 15.5 -17t29 -41.5t24.5 -45.5t1 -28q-1 -1 -1 -2q-1 0 -2 -1q-59 -101 -131 -193q-34 -45 -66 -89q-22 -30 -57.5 -90.5t-39.5 -112.5v-5q0 -46 66 -49 q70 4 142.5 50t130.5 94q16 12 29 23q14 10 27 20q193 139 356 309q1 0 10 -11t19.5 -27t15.5 -31.5t-1 -24.5q-207 -267 -481 -459q-82 -57 -158 -71q-11 -2 -22 -3q-64 0 -121 76q-80 107 -80 225q0 24 3 49q-188 -176 -410 -303q-62 -36 -134 -47q-12 -2 -24 -2 q-57 0 -104 44q-45 47 -70 113q-16 43 -16 85q0 23 5 46zM-181 141q15 2 36 -3q20 -5 37 -4q49 5 95 27q128 63 239 154q132 99 260 206q-8 22 -3 27q27 14 55.5 36.5t31 43t-48.5 29.5q-30 5 -61 5q-42 0 -84 -9q-117 -32 -215 -106q-124 -84 -222 -196q-43 -47 -77 -102 q-11 -20 -18 -50q-10 -37 -25 -58z" />
<glyph unicode="b" horiz-adv-x="1058" d="M-201 133q353 835 663 1687l134 358q1 0 12.5 -13t25.5 -32t23.5 -38t5.5 -31q-17 -48 -34 -97q-250 -707 -525 -1404q96 101 219 168q71 39 157 60q47 11 91 11q38 0 75 -8q49 -14 78.5 -49.5t48.5 -81.5q18 -46 18 -91q0 -51 -23 -103q-43 -97 -113 -168 q-265 -262 -635 -279q-14 1 -26.5 21.5t-22 47t-15.5 45.5q-2 6 -3 10q-44 -71 -85 -143q-1 3 -3 6l-2 4q-5 7 -12 16q-20 25 -38.5 55t-13.5 49zM-43 152q291 25 528 196q104 72 171 177q20 31 36 64q6 14 11 37q4 19 10 35l-18 4q-26 7 -42 8q-69 0 -136 -19 q-143 -42 -256 -139q-180 -156 -304 -363z" />
<glyph unicode="c" horiz-adv-x="844" d="M-164 320q29 140 127 259q114 158 295 221q24 6 44 5q40 0 66 -24q38 -37 66 -97q5 -10 11 -21q27 -53 18 -57t-38 47q-20 31 -56 31q-8 0 -16 -1q-48 -8 -96.5 -35.5t-75.5 -47.5q-122 -92 -202 -222q-44 -68 -68 -145l-7 -21q-9 -24 -6 -34t27 -21q58 -26 119 -26 q24 0 48 4q216 35 400 174.5t336 293.5q21 21 42 41q2 0 11.5 -11t19.5 -27t15.5 -31.5t-0.5 -24.5q-248 -316 -598 -501q-94 -42 -198 -47h-14q-96 0 -175 62q-100 94 -100 204q0 25 5 52z" />
<glyph unicode="d" horiz-adv-x="1233" d="M-273 271q21 84 79 155.5t121 127.5q140 138 323 208q58 20 119 20q21 0 42 -2q82 -10 137 -74q121 146 229 307q147 317 306 627q0 2 1 3q0 2 1 3v-1q1 1 1 2t1 2q-1 -3 7 -14q12 -13 28.5 -34t28 -43t7.5 -36q-115 -311 -287 -588q-95 -206 -189 -411q-8 -17 -15 -34 q-9 -19 -18 -39q-41 -88 -78 -177q-22 -49 -22 -95q0 -51 69 -56q69 2 137.5 45.5t119.5 86.5q213 163 382 369l5 -6q8 -9 21 -27t21 -36t0 -29q-1 -3 -3 -5q-157 -228 -365 -408q-51 -43 -117 -83.5t-135 -41.5q-113 16 -170 146q-40 90 -40 167q0 34 8 65q10 34 23 68 q-2 3 -5 7q-207 -257 -482 -418q-50 -27 -106 -29h-5q-52 0 -94 38q-45 44 -71 111q-18 47 -18 92q0 19 3 37zM-203 134q7 -3 17 -8q28 -3 55 -2q17 2 32 7q48 17 89 46q1 0 3 1q287 196 507 471q-35 2 -58 1h-8h-5q-77 0 -149 -31q-182 -84 -321 -230q-53 -52 -100 -116 t-62 -139z" />
<glyph unicode="e" horiz-adv-x="865" d="M-157 159q-20 54 -20 110q1 107 75 217q112 168 241 256q3 2 5 3q48 37 99 55q13 5 26 5q35 0 64 -38q53 -70 53 -154q0 -14 -1 -27q-29 -156 -151 -215q-80 -39 -171 -39q-47 0 -97 11l-1 1q-44 -74 -64 -153q-5 -16 -7 -32v-1v-1q56 -25 119 -29h21l43 1q88 7 170 38 q372 168 645 469q1 1 10 -10t18.5 -27t14 -31t-1.5 -24q-134 -163 -307 -317t-380 -213q-64 -17 -125 -17q-55 0 -107 14q-110 30 -171 148zM42 455q93 6 170 68q65 62 81 135q-19 -5 -29 -10q-87 -47 -155 -118q-34 -35 -67 -75z" />
<glyph unicode="f" horiz-adv-x="646" d="M-352 -329q42 190 128 374q32 73 60 145q69 179 137 359q159 418 313 838q1 0 12.5 -13t25.5 -32t23.5 -38t5.5 -31l-88 -246q-105 -296 -215 -592q-27 -74 -57 -147q431 92 691 335q1 0 10 -11.5t19.5 -29t15.5 -33.5t-1 -25q-136 -157 -353 -251.5t-427 -146.5 q13 -36 21 -61q38 -138 40 -281q0 -10 1 -21q3 -42 3 -90q0 -78 -8 -170q-13 -149 -99 -217q-25 -14 -49 -14t-47 13q-46 27 -76 68q-91 116 -91 254q0 32 5 64zM-283 -512v-6q0 -45 42 -66q15 -5 29 -5q23 0 44 13q43 31 60.5 88.5t24.5 108.5q1 3 1 5q16 109 16 218 q0 39 -2 79q-3 79 -15 157q-1 6 -3 13q-103 -245 -175 -495q-2 -6 -4 -14q-15 -45 -18 -96z" />
<glyph unicode="g" horiz-adv-x="1169" d="M-484 -945q-22 63 -22 125q0 110 73 214q114 162 246 274q246 209 530 363q48 29 96 57q63 38 126 78q69 169 126 341q9 26 17 52q2 7 5 14q-5 -3 -10 -7q-16 -11 -25 -19l-80 -74q-171 -159 -354 -304q-4 -4 -10 -8q-64 -53 -149 -106t-168 -57q-4 -1 -8 -1 q-78 0 -134 87q-47 80 -47 151q0 34 10 65q32 99 123 193q95 107 225.5 195.5t277.5 92.5h7q146 0 207 -124q34 30 70 56q30 19 54 19t43 -19q37 -39 57 -98q10 -30 10 -62q0 -28 -8 -59q-17 -65 -44 -126q-13 -32 -23 -60q-4 -11 -7 -21q-3 -8 -6 -15q25 17 49 34 q226 147 427 328q2 1 12 -11t21 -30t16.5 -34.5t-1.5 -24.5q-285 -283 -615 -503q-105 -261 -240 -508q-163 -335 -442 -577q-56 -45 -123 -72q-39 -16 -80 -16q-29 0 -60 8q-64 23 -105 75.5t-67 113.5zM-443 -960q3 -9 29 -23q46 -22 91 -22q34 0 68 13q78 29 143 82 q278 245 442 581q67 123 127 251l-18 -12q-17 -10 -33 -20q-369 -197 -656 -500q-79 -87 -138 -189q-19 -36 -29 -74q-7 -26 -17 -51q0 -2 -1 -4q-11 -23 -8 -32zM-205 129q6 -1 17 -1h20q10 -1 20 -1q73 5 136 44q164 97 307 226q72 62 142 131q56 54 113 106v1t-1 3 q-3 6 -23.5 9t-43.5 4.5t-34 1.5q-10 1 -20 1q-67 0 -131 -24q-158 -67 -284 -185q-64 -55 -124.5 -125t-87.5 -152q-4 -16 -6 -32v-7z" />
<glyph unicode="h" horiz-adv-x="1117" d="M-205 130q87 220 180 439q116 275 223 555q77 204 152 408q120 324 243 647q1 0 12.5 -13t25.5 -32.5t23.5 -38.5t6.5 -30q-192 -544 -398 -1083q-41 -105 -81 -211q-44 -119 -90 -237q129 155 287 262q60 41 136 64q24 7 47 7q49 0 91 -34q45 -43 73 -115 q23 -60 23 -115q0 -10 -1 -19q-22 -107 -99 -202q-22 -32 -41 -61q-3 -5 -5 -9q-45 -65 -68 -140q-2 -7 -4 -15q9 -2 15.5 -3.5t8.5 -1.5h6q60 0 119 36q62 38 107 77q205 163 359 372q0 -1 9 -12q10 -11 22.5 -27t20 -32.5t0.5 -27.5q-147 -231 -353 -408q-47 -37 -107 -72 q-56 -32 -112 -32h-10q-51 8 -83.5 47.5t-51.5 85.5t-19 92q0 65 39 128q32 60 71 117q63 88 101 186q13 44 -7 53q-11 5 -28 5q-16 0 -36 -4q-91 -18 -166 -74q-172 -121 -305 -290.5t-247 -345.5q-10 -16 -21 -32q0 3 -13 19q-16 20 -34.5 47.5t-18.5 47.5q-5 13 -2 22z " />
<glyph unicode="i" horiz-adv-x="657" d="M-97 434q62 130 136 254q44 76 86 153q-1 -2 4.5 -10t15.5 -19q20 -25 38 -53.5t11 -46.5q-43 -80 -87 -158q-43 -76 -84 -152q-3 -7 -8 -16q-23 -40 -49 -99q-24 -54 -24 -97v-8q2 -46 65 -49q70 4 142.5 50t130.5 94q16 12 29 23q11 7 21 15q195 141 361 313 q1 0 10 -12.5t19.5 -30.5t16 -35t-1.5 -26q-207 -262 -480 -449q-83 -57 -159 -71q-11 -2 -21 -2q-64 0 -121 76q-80 104 -80 217q0 68 29 139zM208 1039q68 80 103 178q2 4 6.5 0.5t10.5 -11.5t11 -15t6 -10q2 -4 6 -9q10 -15 20 -35t7 -34q-32 -105 -104 -188 q-1 0 -13.5 15.5t-27.5 37.5t-23.5 42t-1.5 29z" />
<glyph unicode="j" horiz-adv-x="445" d="M-1230 -789q30 127 121.5 238.5t186.5 196.5q182 163 392 286q17 11 34 21q172 104 340 212q130 323 223 660l5 -7q10 -11 25.5 -31t27 -41t9.5 -35q-50 -221 -126 -438q44 30 90 61q200 127 380 286q2 1 11 -10.5t19.5 -29t15.5 -33.5t-2 -24q-284 -282 -609 -498 q-81 -194 -175 -379q-98 -202 -230 -402.5t-319 -331.5q-65 -46 -146 -66q-22 -6 -44 -6q-56 0 -105 39q-66 59 -102 152q-26 66 -26 129q0 26 4 51zM-1152 -904q-6 -23 -6 -43q0 -25 10 -46q16 -35 80 -35h7q61 6 115 33q143 75 247 200q267 321 433 707q-88 -55 -178 -110 q-194 -114 -374.5 -263t-294.5 -347q-25 -44 -39 -96zM132 1023q68 80 103 178q2 5 6.5 1t10.5 -11.5t11 -15t6 -10.5l6 -9q10 -15 20 -35t7 -34q-32 -105 -104 -188q-1 1 -13.5 16t-27.5 37t-23.5 42t-1.5 29z" />
<glyph unicode="k" horiz-adv-x="1005" d="M-205 116q87 221 179 439q117 275 224 555l152 408q120 324 243 647q1 0 12.5 -13t25.5 -32.5t23.5 -38t5.5 -30.5q-191 -544 -398 -1083q-19 -48 -37 -98q1 2 3 4q13 12 27 24q73 68 173 110q35 15 68 16q61 0 115 -52q43 -46 67 -112q11 -30 12 -59q0 -34 -16 -65 q-66 -100 -201.5 -145t-249.5 -48q-8 0 -21 1q-23 3 -47.5 1.5t-34.5 -15.5q-4 -12 3.5 -41.5t16.5 -55.5q5 -14 7 -21q16 -72 49.5 -138.5t105.5 -98.5q48 -16 99 -16t105 16q108 33 189 86q231 133 336 370q1 0 10 -10t19.5 -26t17 -32t2.5 -29q-78 -199 -266 -367 q-153 -136 -332 -136q-42 0 -85 7q-128 37 -201 165t-109 274q-26 -47 -50 -95q-48 -120 -100 -238q-32 -85 -60 -168q-1 0 -12.5 13.5t-26 32.5t-23.5 38q-11 16 -17.5 31t-2.5 25zM230 678q164 21 301 114q39 24 67 60q6 24 10 37q-21 7 -42 7q-14 0 -28 -3 q-57 -10 -108.5 -42.5t-94.5 -69.5q-57 -47 -105 -103z" />
<glyph unicode="l" horiz-adv-x="663" d="M-88 359q11 47 30 92q7 17 13 35q106 298 218 595q133 356 269 710q20 52 39 105q49 143 114 277q-1 -2 4.5 -10.5t15.5 -20.5q20 -24 37.5 -52t10.5 -46q-68 -145 -121 -298q-20 -58 -42 -115q-228 -601 -446 -1206q-8 -22 -16 -43q-22 -58 -40 -116q-13 -38 -14 -71 q0 -11 2 -23q6 -42 73 -43q69 5 134 46.5t117 84.5q211 166 378 376q8 -10 21 -29.5t20 -40.5t-2 -35q-21 -27 -42 -56q-159 -240 -386 -409q-65 -46 -137 -66q-19 -5 -37 -5q-53 0 -102 43q-59 60 -93 149q-23 61 -23 120q0 26 5 52z" />
<glyph unicode="m" horiz-adv-x="1490" d="M-209 104l2 6t2 5q-4 13 1 21l14 24q3 6 6 11q71 186 152 369q74 170 141 342q1 0 12.5 -13t25.5 -32.5t23.5 -38.5t6.5 -31q-2 -5 -4 -11q-2 -4 -3 -9q58 75 136 125q49 32 101 33q29 0 59 -11q55 -25 87 -87t42 -131q75 89 167 157q55 42 126 63q21 6 42 6q47 0 88 -34 q44 -42 72 -110q24 -59 24 -113q0 -8 -1 -15q-7 -57 -38 -107.5t-68 -97.5q-22 -28 -41 -55q-1 -2 -2 -3q-22 -31 -48 -77q-23 -41 -23 -75v-7q3 -36 64 -40q65 2 125 45t103 86q185 168 332 368q0 -1 9 -11t20.5 -25t17.5 -30.5t-1 -26.5q-30 -44 -61 -89 q-115 -185 -268 -332q-44 -40 -102 -77q-54 -34 -112 -34h-9q-109 21 -157 140q-29 70 -28 132q0 43 14 83q38 80 94 149q48 60 83 127q26 46 26 74q0 27 -51 27h-7q-81 -11 -146 -60q-186 -139 -312 -348q-63 -126 -137 -244q-42 -67 -78 -130q1 2 -4.5 9t-13.5 19 q-20 24 -38.5 53t-11.5 47q0 1 1 1q-2 9 1 15q36 60 72 123q54 94 112 188q47 87 78 180q12 40 19 82q1 4 2 9t2 9q6 26 0.5 36t-38.5 11q-77 -1 -140 -47q-234 -187 -365 -485q-40 -77 -81 -150q-22 -55 -43 -112l-12 14q-13 15 -28.5 35.5t-25.5 41t-7 33.5z" />
<glyph unicode="n" horiz-adv-x="1017" d="M-213 102q2 6 4 11q1 4 3 9q-1 7 2 12l4 6q1 3 3 5q75 199 160 393q74 170 141 342q1 0 12.5 -13t25.5 -32.5t23.5 -38.5t6.5 -31q-17 -51 -36 -102q79 96 175 168q56 43 127 63q21 6 41 6q48 0 89 -34q44 -42 72 -110q24 -59 24 -113q0 -8 -1 -15q-7 -56 -38 -107 t-68 -97q-22 -29 -41 -56q-1 -2 -2 -3q-22 -31 -48 -77q-23 -41 -23 -75v-7q3 -36 64 -40q64 2 124.5 45t103.5 86q183 174 312 345q0 -2 8 -13q9 -11 19.5 -27.5t16 -33t-1.5 -27.5q-40 -57 -64 -82q-102 -173 -241 -308q-44 -40 -102 -77q-54 -34 -112 -34h-9 q-109 21 -157 140q-29 70 -28 132q0 43 14 83q38 80 94 149q47 60 83 127q26 46 26 74q0 27 -51 27h-7q-81 -11 -146 -60q-259 -209 -419 -521q-40 -66 -79 -129q-16 -42 -31 -84q-1 1 -13.5 15t-28 34.5t-25.5 41t-6 33.5z" />
<glyph unicode="o" horiz-adv-x="796" d="M-144 281q-1 124 73.5 228.5t165.5 179.5q1 0 4 -2q24 78 133 126q74 37 149 37q1 0 1 1q74 0 127 -68q55 -88 55 -176q0 -69 -34 -137q172 35 293 174q1 0 10 -11.5t19 -28.5t15 -33t-2 -25q-87 -101 -183 -161q-76 -47 -172 -47q-25 0 -52 3q-14 -21 -29 -41 q-38 -57 -112.5 -142t-162.5 -134q-44 -24 -85.5 -24t-81.5 24q-55 41 -90.5 115.5t-40.5 141.5zM-73 173q13 -39 45 -43q7 -1 14 0q26 0 54 10q36 14 62 30q126 77 223 204q-126 40 -195 164q-76 -69 -133 -156q-25 -38 -53 -99q-20 -45 -20 -83q0 -14 3 -27zM173 588 q-4 -10 -4 -19q0 -23 25 -41q34 -24 89.5 -38t107.5 -20q41 66 70 133q15 36 23 72q4 19 9 38q-16 4 -31.5 7t-21.5 3q-64 -1 -149.5 -37.5t-117.5 -97.5z" />
<glyph unicode="p" horiz-adv-x="1117" d="M-539 -783q237 861 664 1644q0 -2 5 -9t13 -18q19 -23 36 -50.5t11 -44.5q-44 -84 -85 -170q93 97 210 161q71 40 157 60q45 11 88 11q40 0 79 -9q94 -34 128 -133q17 -44 17 -89q0 -52 -23 -104q-43 -96 -113 -166q-120 -123 -291 -202t-344 -79q-14 1 -27 24t-23.5 51 t-15.5 45q-1 3 -1 5q-45 -69 -86 -140q0 1 -1 2q-175 -449 -326 -911q-1 1 -12.5 14.5t-26.5 34t-25 40.5t-8 33zM-51 149q292 25 532 194q103 72 170 178q19 31 35 64q6 15 11 38q4 18 9 33q-8 2 -17 4q-26 7 -42 8q-68 -1 -135 -20q-143 -41 -257 -138 q-180 -156 -306 -361z" />
<glyph unicode="q" horiz-adv-x="1009" d="M-246 291q49 161 206.5 295.5t314.5 187.5q58 20 117 20q26 0 52 -4q85 -12 139 -85q23 -34 38 -66q91 83 176 170q2 1 15.5 -16t29.5 -41.5t24.5 -45.5t1.5 -29l-6 -4q-2 -2 -4 -3q-388 -790 -650 -1631q-1 0 -13 14t-26.5 34.5t-25 40.5t-7.5 33q185 666 486 1299 q-239 -238 -526 -408q-62 -36 -134 -47q-12 -2 -24 -2q-57 0 -104 44q-45 47 -70 113q-16 42 -16 83q0 24 6 48zM-179 143q23 -6 40 -7.5t33 0.5q50 5 95 27q128 63 240 154q131 98 259 206q-8 22 -3 27q28 14 56.5 36.5t30.5 43t-48 29.5q-31 5 -62 5q-41 0 -83 -9 q-118 -32 -216 -106q-123 -84 -222 -196q-43 -47 -76 -102q-2 -2 -4 -5q-12 -19 -22.5 -43t-17.5 -60z" />
<glyph unicode="r" horiz-adv-x="801" d="M-209 100q64 154 126 309q90 229 188 455q-1 -3 5.5 -11.5t15.5 -20.5q18 -22 34 -46t11 -40q-55 -140 -110 -281q4 6 9 11q6 8 12 15q83 100 176 191q15 14 33 33q31 33 67 65t70 44q8 2 16 2q38 0 70 -42q38 -50 43 -98q-1 -56 -33 -111q-17 -31 -27 -64q26 1 52.5 7.5 t43.5 12.5q63 19 132.5 62t119.5 72l1 -1q5 -6 12 -15.5t13.5 -30t-1.5 -33.5q-37 -46 -109.5 -105.5t-150.5 -85.5q-26 -9 -48 -9q-46 0 -81 36q-27 32 -44 75.5t-17 85.5q2 34 13 64q-54 -46 -112.5 -104.5t-103 -106t-54.5 -60.5q-158 -193 -297 -399q-3 -3 -5 -7 q0 1 -5 7q-10 13 -27 37.5t-29.5 49t-8.5 37.5z" />
<glyph unicode="s" horiz-adv-x="656" d="M-360 -387q-42 88 -42 162q0 85 54 151q101 126 259 210q41 25 83 49q-20 119 -20 266v7q0 152 64 265t234 119q12 -1 23 -18.5t19.5 -40.5t13.5 -42q7 -20 8 -21q-146 -8 -220 -117.5t-79 -246.5q0 -12 -1 -24q0 -59 9 -118q17 10 34 19q324 169 601 406q2 1 9.5 -14 t15.5 -36.5t11 -41t-4 -27.5q-288 -269 -631 -460l-10 -6q16 -81 16 -160q0 -60 -9 -119q-18 -86 -77.5 -161t-138.5 -113q-39 -16 -71 -16q-35 0 -63 19q-53 37 -88 109zM-333.5 -315q-10.5 -37 3.5 -55q22 -21 50 -21q19 -1 41 9q54 24 103 67.5t69 70.5q79 110 79 235 q0 14 -1 29q-102 -57 -195 -126q-50 -35 -88 -83q-13 -16 -32 -52.5t-29.5 -73.5z" />
<glyph unicode="t" horiz-adv-x="627" d="M-345 1152q206 31 414 31q100 0 200 -7q115 243 237 481q-1 -2 5 -10l15 -20q20 -24 37.5 -52t11.5 -47q-91 -178 -177 -359l100 -6q168 -12 334 -18q12 -2 23 -19.5t20 -40.5t14 -42q7 -22 9 -22q-219 1 -435 12q-64 3 -127 6q-117 -249 -230 -497l-20 -44 q-9 -20 -18 -39q-41 -88 -78 -178q-22 -47 -21 -92q-1 -3 -1 -5q2 -48 69 -53q69 2 137.5 45t119.5 87q206 173 368 388l5 -6q8 -10 21 -27.5t21 -36t0 -29.5q-40 -55 -79 -111q-117 -182 -275 -321q-51 -42 -117 -82.5t-135 -41.5q-113 16 -169 146q-40 92 -40 169 q0 33 7 63q44 136 114 267q25 49 48 97l44 94q49 105 99 211q-73 3 -145 3q-170 0 -341 -15q-11 0 -22.5 17.5t-21.5 41.5t-16 42.5t-5 19.5z" />
<glyph unicode="u" horiz-adv-x="1187" d="M-91 356q5 123 71 231.5t144 203.5q18 23 36 45l7 -9q10 -13 26.5 -35.5t27.5 -45t4 -33.5q-28 -40 -58 -80q-119 -143 -175 -316q-11 -39 -11 -77q1 -18 3 -35q8 -55 70 -78q20 -5 40 -4q49 0 93 28q148 101 246 257q8 12 17 24q46 64 90 130q74 114 159 219l1 -1 q0 -1 1 -2q2 6 5 11l6 14q-1 -3 5 -11.5t16 -20.5q20 -24 37 -51.5t11 -45.5q-78 -164 -131 -337q-5 -14 -11 -30q-10 -26 -18 -53.5t-5 -50.5q8 -46 42 -59q18 -7 38 -7q17 0 34 5q68 20 128 70.5t109 101.5l4 4q145 146 251 324q-1 -2 4 -8.5t13 -16.5q19 -25 38 -54.5 t12 -47.5q-136 -253 -359 -434q-73 -61 -141 -75q-11 -2 -22 -2q-57 0 -115 64q-100 113 -105 256q-56 -78 -118 -150q-57 -74 -145 -140q-55 -42 -114 -42q-35 0 -71 14q-85 47 -137 151.5t-53 198.5z" />
<glyph unicode="v" horiz-adv-x="1038" d="M-66 423q88 216 225 406q-1 -2 12 -17q12 -15 26.5 -35t23 -39t2.5 -30q-127 -183 -212 -389q-3 -10 -9 -23q-16 -34 -28 -75q-6 -19 -6 -35q0 -18 7 -32q18 -22 55 -24t63 4q120 22 231 101.5t190 170.5q29 33 56 72q-60 46 -101 126q-31 57 -31 105v11q4 53 83 91 q37 16 66 15q28 0 47 -14q40 -30 66 -89q38 -75 38 -141q0 -26 -6 -51q11 -1 21 -1q17 -1 35 -1q68 -1 150 17q104 22 157 84l3 -4q7 -6 16.5 -17.5t14.5 -25t-2 -25.5q-65 -91 -189 -129q-78 -24 -147 -24q-40 0 -77 8q-17 4 -32 9q0 -1 -1 -2t-2 -3q-75 -129 -185 -229 q-108 -102 -260 -167q-48 -21 -93 -21q-94 0 -169 95q-67 93 -67 193q0 66 29 135zM515 610q29 -43 100 -60q19 33 34 66q21 49 21 78q0 16 -8 26q-14 16 -36 16q-12 0 -27 -4q-41 -14 -71 -48q-19 -22 -19 -46q0 -14 6 -28z" />
<glyph unicode="w" horiz-adv-x="1675" d="M-162 193q-4 30 -4 59q0 67 23 131q122 288 384 466q4 1 16 -14.5t25.5 -38t21 -42t2.5 -26.5l-16 -14q-177 -147 -305 -338q-1 -2 -3 -5q-15 -25 -38.5 -68.5t-38.5 -88.5q-9 -28 -9 -50q0 -13 3 -25q4 -1 9 -4q25 -7 52 -6q32 2 62 12q78 31 142 89q15 12 29 23 q106 81 207 168q203 174 360 390q0 -2 13 -17q13 -16 29.5 -39t26.5 -45t3 -33q-27 -38 -56 -74q-89 -133 -149 -281q-4 -9 -10 -22q-15 -34 -27 -74q-6 -19 -6 -34q0 -18 7 -31q19 -22 55.5 -24t63.5 3q120 22 230.5 102t189.5 171q29 33 56 72q-60 46 -100 125 q-36 66 -39 139v5q0 69 74 108q28 11 52 10q41 0 69 -30q46 -50 75 -113q37 -75 37 -140q0 -26 -6 -51q11 -1 21 -2h12q77 0 171 36q102 38 156 101l4 -5q7 -8 18.5 -22.5t18 -30t-0.5 -27.5q-66 -94 -192 -142q-87 -33 -162 -33q-33 0 -64 6q-16 4 -31 9l-2 -2q0 -1 -1 -2 q-76 -129 -186 -230q-109 -102 -260 -166q-48 -20 -92 -21q-94 0 -170 95q-67 96 -67 191q0 21 3 42q-103 -94 -214 -181q-15 -12 -31 -25q-73 -65 -167 -113q-41 -21 -81 -21q-51 0 -99 33q-80 67 -94 165zM1131 617q29 -44 101 -61q19 34 34 66q20 49 20 77q0 17 -8 27 q-14 16 -36 16q-12 0 -27 -4q-41 -14 -71 -48q-19 -22 -19 -46q0 -13 6 -27z" />
<glyph unicode="x" horiz-adv-x="1095" d="M-334 93q276 85 522 235q-139 191 -239 396q-14 28 -15 37t6 4.5t17 -17.5t19 -30q98 -195 241 -371q5 3 10 7q9 5 18 11q10 6 20 13q66 43 147 103.5t144 134.5q-21 52 -21 102q0 20 4 40q12 68 90 107q8 2 18.5 -12.5t21.5 -36.5t18.5 -41.5t9.5 -25.5q8 -34 8 -66 q0 -74 -43 -138q29 -12 60.5 -16.5t53.5 -4.5q92 1 189.5 44.5t156.5 113.5q-1 0 1 -3q6 -8 15.5 -27t13 -40.5t-8.5 -36.5q-103 -113 -254 -155q-41 -11 -79 -12q-102 0 -181 82q-1 1 -2 3l-2 2q-110 -119 -232 -199q-10 -7 -19 -14q-30 -21 -61 -42q72 -73 153 -132 q17 -13 29.5 -34.5t20.5 -40.5q1 -1 1 -2q1 -1 3 -7.5t5 -15t5 -16.5t2 -12.5t-3 -2.5q-139 104 -253 239q-254 -163 -545 -244q-9 -2 -21 15.5t-23 41.5t-17.5 43t-3.5 21z" />
<glyph unicode="y" horiz-adv-x="1158" d="M-492 -733q57 149 178.5 276t248.5 221q198 146 412 266q80 47 159 95q26 16 51 32l10 6q25 62 49 125q35 94 68 190q-28 -39 -48 -69q-15 -23 -22 -33q-95 -128 -208 -240q-70 -73 -164 -118q-37 -19 -75 -19q-55 0 -110 40q-73 63 -113 163q-31 78 -31 154q0 21 2 41 q50 212 201 380q24 30 46 60q0 -1 9 -13q12 -15 27.5 -36.5t25.5 -42.5t3 -32q-22 -31 -45 -61q-85 -108 -149 -229q-26 -54 -41 -127q-7 -28 -7 -53q0 -39 15 -71q22 -46 95 -46q10 0 21 1q79 12 146 67.5t118 112.5q131 144 243 303q11 14 20 28q34 54 66 72q7 5 15 5 q26 0 59 -51q31 -50 31 -93v-9q-4 -46 -25 -104q-3 -7 -5 -15q-28 -88 -59 -174q55 38 111 76q195 126 369 279q2 1 9.5 -14t15 -37t10 -42t-4.5 -28q-278 -273 -604 -478q-56 -137 -120 -271q-145 -321 -357 -603q-75 -102 -194 -207q-101 -89 -214 -89q-20 0 -41 3 q-124 36 -179 164q-33 77 -33 149q0 49 15 96zM-449 -962q7 -17 32 -28t51.5 -16.5t39.5 -5.5q80 1 151 48t126 100q291 301 462 685q24 48 46 96q-51 -31 -103 -63q-363 -198 -636 -505q-86 -96 -136 -213q-2 -5 -7 -23q-5 -16 -10.5 -34.5t-10 -30.5t-5.5 -10z" />
<glyph unicode="z" horiz-adv-x="1355" d="M-266 -857q-13 35 -13 66q1 57 43 104q66 73 153 128q30 21 55 40q205 156 416 302q41 29 83 58q187 132 364 273q-8 1 -17 2q-32 1 -63 1q-334 0 -647 -126q-7 -2 -20.5 16t-27.5 44t-21 47.5t-2 26.5q180 127 363 249l62 42q17 11 50 30q70 39 154.5 98.5t117.5 121.5 q-79 39 -175 42h-27q-80 0 -149 -15q-201 -46 -370 -166q-4 -1 -16.5 15.5t-26 39.5t-21 43t-2.5 26q239 181 533 181h22q205 -7 295 -181q10 -30 10 -57q0 -58 -44 -102q-65 -66 -146 -114q-23 -15 -43 -29l-154 -106q89 14 176 14q57 0 113 -6q92 -14 151 -77 q268 218 505 476q1 0 10.5 -13t21 -31.5t17 -36t-1.5 -27.5q-87 -112 -211.5 -248t-258.5 -249q11 -25 19 -51q15 -55 15 -110q0 -62 -18 -125q-36 -120 -95 -220q-131 -226 -349 -370t-478 -173q-7 -1 -16 -2q-56 -7 -122 -8h-6q-63 0 -111 23q-35 21 -58.5 59t-38.5 75z M-189 -864q45 -9 93 -9q20 -1 42 1q70 6 127 17q138 23 266 81q268 123 442 360q95 131 143 285q2 6 3 13q24 63 25 128q-157 -127 -322 -246q-83 -59 -167 -119q-135 -95 -269 -193q-105 -77 -208 -158q-18 -15 -39 -30q-83 -54 -136 -130z" />
<glyph unicode="{" horiz-adv-x="1342" d="M226 1107l2 4q110 -9 179 -109q29 12 55 45q53 72 46.5 156.5t-31.5 170.5q-18 65 -26 126q-19 180 46 350q150 374 534 486q10 1 21.5 -16.5t22.5 -41.5t17 -43t4 -20q-306 -96 -461 -364t-87 -580q15 -56 27 -146t-4.5 -170.5t-86.5 -107.5q16 -49 22 -92 q10 -118 -24 -232q-21 -81 -27 -162q-4 -65 15.5 -104t75.5 -72q96 -51 205 -50q13 -1 27.5 -23.5t27 -52t20 -52t5.5 -23.5q-173 -20 -295.5 113.5t-158.5 291.5q-21 136 20 267q24 87 29 177v4v3h-3h-8q-83 14 -137.5 100t-51.5 167z" />
<glyph unicode="|" horiz-adv-x="940" d="M229 11q48 234 102 466q92 390 160 786q99 630 150 1265q1 -4 16 -23q17 -20 34 -46t17 -45q-36 -646 -138 -1285l-6 -40q-82 -620 -251 -1220l-4 5q1 -2 1 -5q4 -13 6.5 -20.5t3.5 -7.5q-15 0 -28 21t-23 49l-8 26q-12 18 -22 35q-12 24 -10 39z" />
<glyph unicode="}" horiz-adv-x="1078" d="M206 201q-2 11 1 12t8 -4t10.5 -12t9.5 -12q2 -2 2 -3q13 -17 24 -37q8 10 46 -4q25 0 48 10q39 21 60 60q42 84 46 183q3 24 6 47q19 136 39 271q20 137 39 274q2 15 5 33q6 65 24.5 139.5t66.5 116.5q-1 2 -1 5q-1 7 -1 15q-4 188 9 379q5 93 8 184q1 22 4 57 q7 84 6.5 188t-35 165.5t-128.5 14.5q-6 -2 -18.5 14.5t-25 40t-19 43t-1.5 23.5q71 36 130 1.5t95 -98.5q87 -162 69 -348q-4 -161 -8 -323q-3 -117 -5 -234q-2 -42 -3 -85v-18h2h4q57 -8 93.5 -62.5t50.5 -106.5q18 -73 -24 -102.5t-103 21.5q-28 27 -48 62 q-47 -61 -63 -156t-20 -183q-4 -51 -8 -88q-11 -83 -20 -167q-19 -176 -49 -350q-13 -76 -60 -139t-135 -34q-54 26 -87.5 88t-43.5 119z" />
<glyph unicode="~" horiz-adv-x="2371" d="M171 728q88 298 369.5 332.5t533.5 -49.5q21 -6 43 -13q259 -93 539 -110t444 249q-1 -2 4 -9t14 -18q18 -23 35 -50.5t12 -45.5q-135 -258 -411.5 -252.5t-509.5 91.5q-154 54 -316.5 88.5t-325.5 2.5q-277 -62 -365 -327q-1 1 -8 9q-9 11 -24 30t-25.5 39t-8.5 33z" />
<glyph unicode="&#xa3;" horiz-adv-x="1014" d="M76 673v60h135q-58 143 -58 253q0 226 123.5 347t306.5 121h4q75 0 185.5 -14t110.5 -34v-161h-58q-5 61 -77 102q-72 31 -160 31h-2q-100 0 -190 -101q-84 -93 -84 -241q0 -15 1 -30q0 -135 53 -273h360v-60h-334q14 -30 31 -60q35 -63 35 -138q0 -161 -162 -375h402 q130 0 189 132l49 -1l-103 -231h-719l1 50q187 238 187 418q0 77 -34 143q-17 32 -31 62h-161z" />
<glyph unicode="&#xa4;" horiz-adv-x="1014" d="M122 413l118 117q-32 46 -48 103q-12 42 -12 84q0 44 13 87q16 55 47 99l-118 118l80 81l118 -118q44 30 99 46q44 14 89 14q41 0 83 -12q57 -17 102 -48l118 118l80 -81l-117 -117q31 -46 48 -102q12 -42 12 -85q0 -42 -12 -85q-17 -56 -48 -102l117 -117l-80 -81 l-118 118q-45 -32 -101 -48q-42 -12 -85 -12q-42 0 -85 12q-57 16 -102 48l-118 -118zM284 716q0 -28 9 -56q16 -59 57 -100q41 -40 99 -57q29 -8 58 -8t58 8q58 17 99 57q40 41 57 99q9 29 9 58t-9 58q-17 58 -57 99q-41 40 -100 57q-29 8 -58 8t-58 -9q-58 -17 -98 -56 q-39 -40 -56 -98q-10 -30 -10 -60z" />
<glyph unicode="&#xa6;" horiz-adv-x="1014" d="M427 371h160v-789h-160v789zM427 789v789h160v-789h-160z" />
<glyph unicode="&#xa7;" horiz-adv-x="1014" d="M170 1130q0 148 89 237q82 79 216 86q8 1 17 1h3q66 0 163 -16.5t97 -41.5v-194h-51q-5 81 -80 132q-70 47 -149 51h-15q-78 0 -125 -44.5t-47 -117.5q0 -132 287 -269q149 -67 204.5 -143.5t55.5 -187.5q0 -171 -101 -282q-47 -39 -99 -64q108 -56 154 -118 q55 -77 55 -187q0 -171 -101 -283q-124 -102 -277 -105v1q-6 -1 -13 -1h-3q-66 0 -163 16.5t-97 41.5v194h51q5 -81 80 -132q68 -45 145 -50q113 6 185 69q72 64 72 165q0 125 -316 276q-123 64 -175.5 137t-52.5 177q0 148 89 237q67 65 170 82l-40 19q-123 64 -175.5 137 t-52.5 177zM297 571q0 -123 248 -250q56 16 97 53q73 65 73 166q0 5 -1 10h-2q-1 14 -4 27q-22 61 -113 127q-59 29 -126 29q-78 0 -125 -44.5t-47 -117.5z" />
<glyph unicode="&#xa8;" d="M209 1263q0 13 14 26l71 72q13 12 25 12q11 0 27 -14l69 -73q10 -14 10 -25q0 -13 -12 -27l-69 -75q-17 -17 -25 -17q-14 0 -25 12l-76 86q-9 12 -9 23zM574 1263q0 13 14 26l71 72q13 12 25 12q11 0 27 -13l69 -74q10 -14 10 -25q0 -13 -12 -26l-69 -76q-17 -17 -25 -17 q-14 0 -25 12l-76 87q-9 11 -9 22z" />
<glyph unicode="&#xa9;" horiz-adv-x="2371" d="M174 1023q33 354 232 645t533 424q288 107 572.5 44t465.5 -315q3 -3 6 -7q196 -254 189 -575q-8 -408 -156 -787q-170 -364 -519 -438t-700 63q-309 121 -478.5 365.5t-144.5 580.5zM248 714.5q14 -182.5 149 -310.5q234 -187 527 -250q301 -72 579.5 21.5t421.5 380.5 q110 268 145 557q27 142 30.5 308.5t-82.5 289.5q-18 22 -36 55q-191 235 -491 260.5t-563 -98.5q-522 -277 -651 -858q-43 -173 -29 -355.5zM590 780q-120 404 149 733q126 158 327 258t391 -17q15 -12 25.5 -37.5t17.5 -48.5q8 -28 14 -33q-156 98 -325 33.5t-290 -182.5 q-259 -234 -281 -579q2 -212 135.5 -352t346.5 -137q303 18 432 288q-1 -3 6 -12.5t17 -22.5q19 -22 35 -46.5t11 -41.5q-70 -172 -234 -247.5t-343 -31.5q-165 49 -273.5 183t-160.5 293z" />
<glyph unicode="&#xab;" horiz-adv-x="944" d="M174 479l342 303h14v-37l-205 -266l205 -266v-37h-14zM487 479l342 303h14v-37l-205 -266l205 -266v-37h-14z" />
<glyph unicode="&#xac;" horiz-adv-x="1014" d="M87 667v100h840v-491l-1 -1h-98v392h-741z" />
<glyph unicode="&#xad;" horiz-adv-x="1515" d="M411 492q69 8 138 15q278 33 558 54q11 0 22.5 -18t21 -42.5t15.5 -43t6 -19.5q-276 -33 -554 -55l-142 -12q-14 0 -27.5 25.5t-23.5 54t-13 39.5z" />
<glyph unicode="&#xae;" horiz-adv-x="1518" d="M217 742q31 272 262 414q258 109 512 -21q-1 3 -2 3q178 -88 256.5 -292t66.5 -393q-26 -261 -234.5 -383.5t-451.5 -37.5q-203 86 -315.5 289t-93.5 421zM287 532q22 -273 277 -370q170 -63 333 -13t266 200q91 148 74 320q3 229 -187 342l-8 6q-178 75 -355 51.5 t-298 -184.5q-109 -159 -102 -352zM509 915q47 -18 93 -7t90 30q61 30 118 32t108 -76q61 -86 47 -187q-16 -62 -65 -98t-108 -56l20 -34q5 -9 10 -19q17 -35 40.5 -64.5t63.5 -38.5q41 -12 72 17q0 1 1.5 4t2.5 8q3 9 6.5 17.5t6.5 9.5q-4 13 -8 24q-9 29 -15 35 q30 -23 59.5 -69.5t34 -95t-39.5 -74.5q-68 -33 -120 21t-94 130q-46 84 -89 113q-6 4 -18 22t-24 41q-58 -187 -119 -372l-1 1q-6 5 -24 27t-33 47.5t-12 41.5q68 221 142 441q-42 -10 -88 8q-18 10 -30.5 42t-19.5 59q-5 18 -7 20zM701 801q16 -21 28 -42.5t9 -35.5 q-4 -13 -8 -27l-6 -18q89 26 147 94q10 14 20 34t12 39q-2 -2 -7 -1.5t-12 3.5q-16 6 -36 6q-58 -8 -111 -36z" />
<glyph unicode="&#xaf;" horiz-adv-x="1587" d="M228 2810l170 2q431 11 860 -8q13 -2 25 -22.5t21.5 -46t15.5 -43.5q5 -15 6 -16q-422 -11 -846 8l-188 6q-12 1 -23 18.5t-19.5 40.5t-13.5 41q-6 19 -8 20z" />
<glyph unicode="&#xb0;" horiz-adv-x="674" d="M60 1164q0 116 81.5 197t197.5 81q115 0 196 -81.5t81 -196.5q0 -114 -82 -196t-197 -82q-117 0 -197 81t-80 197zM130 1163q0 -87 61 -147t148 -60t147 60t60 147t-60.5 148t-146.5 61t-147.5 -61t-61.5 -148z" />
<glyph unicode="&#xb4;" d="M316 1078l291 297q35 35 55.5 47t40.5 12q33 0 53.5 -20t20.5 -51q0 -22 -15.5 -42t-46.5 -40l-330 -203h-69z" />
<glyph unicode="&#xb6;" d="M93 1086q0 157 107.5 253t285.5 96h443v-70h-127v-1365h-82v1365h-166v-1365h-84v738q-174 8 -275.5 102.5t-101.5 245.5z" />
<glyph unicode="&#xb7;" horiz-adv-x="508" d="M129 709q0 15 16 31l82 84q15 14 29 14q13 0 31 -16l80 -86q12 -16 12 -29q0 -15 -14 -31l-80 -88q-20 -20 -29 -20q-16 0 -29 14l-88 101q-10 13 -10 26z" />
<glyph unicode="&#xb8;" d="M360 -290q85 -52 152 -52q66 0 94.5 21.5t28.5 66.5t-49 64q-40 16 -102 16q-16 0 -34 -2l48 176h63l-37 -104q32 4 62 5q86 0 134 -40.5t48 -113.5q0 -76 -58.5 -120.5t-160.5 -44.5q-109 0 -189 32v96z" />
<glyph unicode="&#xbb;" horiz-adv-x="944" d="M101 176v37l205 266l-205 266v37h14l342 -303l-342 -303h-14zM414 176v37l205 266l-205 266v37h14l342 -303l-342 -303h-14z" />
<glyph unicode="&#xc0;" horiz-adv-x="2127" d="M3 117q198 413 453 792q-52 -14 -105 -24q-153 -28 -223 108q-9 16 -16.5 35.5t-10 32t3.5 9t24 -33.5q27 -40 90 -37t136.5 26t129.5 45q35 14 54 20q16 4 31 9q12 3 24 7q35 48 71 96q339 447 751 828q26 24 58 56q81 87 184 163t207 56q72 -23 118.5 -92t68.5 -139 q31 -105 0.5 -209.5t-77.5 -201.5q-9 -19 -17 -37q-47 -104 -96 -206q-9 -20 -19 -40q13 -19 24 -45t17.5 -46.5t5.5 -21.5l-110 -22q-46 -102 -87 -207q-188 -499 -44 -1010q5 -15 4.5 -19.5t-4 -2.5t-10.5 8q-3 2 -7 5q-19 17 -32.5 47.5t-21.5 54.5q-140 474 4 949 q23 73 52 145q-391 -78 -777 -182q-96 -27 -193 -60q-3 -1 -5 -2q-336 -462 -591 -975q0 3 -5.5 10.5t-14.5 19.5q-18 22 -34.5 48t-10.5 43zM807 1166l12 4q68 19 136 37q372 99 750 169q33 70 66 139q2 4 3 7q28 57 61 118q123 205 159 418q20 112 -94 123q-61 0 -114 -32 q-87 -51 -160 -122q-14 -13 -28 -25q-185 -163 -358 -340q-230 -237 -433 -496zM1848 2384q1 -2 9 3.5t18 14t18.5 15.5t9.5 9q3 2 6 5q11 11 23.5 25.5t10.5 25.5q-39 141 11 277q1 4 -4.5 1t-14.5 -8.5t-16.5 -11t-9.5 -7.5q-1 -2 -3 -3q-15 -14 -30.5 -31t-22.5 -36 q-49 -139 -5 -279z" />
<glyph unicode="&#xc1;" horiz-adv-x="2125" d="M10 111q197 413 453 792q-53 -14 -105 -24q-153 -28 -223 108q-10 16 -17 35.5t-9.5 32t3.5 9t24 -34.5q27 -39 90 -36.5t136 25.5t130 46q35 13 54 19q15 5 31 9q12 4 24 7q35 49 71 97q339 447 751 828q26 24 57 56q82 87 185 163t207 56q72 -23 118.5 -92t67.5 -139 q32 -106 1.5 -210.5t-78.5 -201.5l-16 -36q-47 -104 -96 -207q-10 -20 -19 -39q13 -19 24 -45t17.5 -46.5t5.5 -22.5l-110 -22q-47 -101 -87 -206q-188 -499 -44 -1010q4 -15 4 -19.5t-3.5 -2.5t-10.5 7q-3 3 -7 6q-19 17 -33 47.5t-21 54.5q-140 474 4 949q23 73 52 145 q-391 -79 -777 -182q-96 -27 -194 -60l-4 -2q-336 -462 -592 -975q1 2 -4.5 10t-14.5 19q-19 23 -35 49t-10 43zM813 1160q7 2 13 4q68 19 136 37q371 99 750 169l66 140q2 3 3 6q28 57 60 118q123 205 160 418q19 112 -94 122q-61 0 -114 -31q-87 -51 -160 -122 q-14 -13 -29 -25q-185 -163 -357 -340q-230 -237 -434 -496zM1945 2396q-2 -3 4.5 -2t16.5 5t18.5 7.5t10.5 4.5t3 2q19 10 37.5 23t30.5 31q79 124 68 270q-1 2 -10 -1t-21 -9t-21.5 -11t-11.5 -7q-2 -1 -6 -4q-14 -8 -29 -19.5t-16 -22.5q6 -145 -74 -267z" />
<glyph unicode="&#xc2;" horiz-adv-x="2125" d="M8 122q198 413 453 792q-52 -14 -105 -24q-153 -28 -223 108q-9 16 -16.5 35.5t-10 32t4 9t24.5 -33.5q26 -40 89 -37t136.5 26t129.5 45q35 14 55 20q15 4 30 9q12 3 24 7q35 48 71 96q339 447 751 828q26 24 58 56q81 87 184 163t207 56q72 -23 118.5 -92t68.5 -139 q31 -105 0.5 -209.5t-77.5 -201.5q-9 -19 -17 -37q-47 -104 -96 -207q-9 -19 -19 -39q13 -19 24 -45t17.5 -46.5t5.5 -21.5l-110 -22q-46 -102 -87 -207q-188 -499 -44 -1010q5 -15 5 -19.5t-4 -2.5t-10 8q-4 2 -7 5q-20 17 -33.5 47.5t-21.5 54.5q-140 474 4 949 q23 73 53 145q-392 -78 -778 -182q-96 -27 -193 -60q-3 -1 -5 -2q-336 -462 -591 -975q1 3 -5 10.5t-15 19.5q-18 22 -34.5 48t-10.5 43zM812 1171l12 4q68 19 137 37q371 99 749 169q33 71 67 140q1 3 3 6q27 57 60 118q123 205 159 418q20 112 -94 123q-61 0 -114 -32 q-86 -51 -160 -122q-14 -13 -28 -25q-185 -163 -357 -340q-231 -237 -434 -496zM1761 2477q159 188 362 330q5 2 17 -14t25 -40t22 -44.5t7 -28.5q-75 -217 -91 -445q0 -5 -6 -0.5t-13 13.5t-13 17.5t-8 11.5q-3 4 -6 9q-11 18 -22 40t-10 42q8 98 27 194q-61 -54 -121 -111 q-52 -49 -105 -97q-3 0 -15 15t-25.5 37t-22 42t-2.5 29z" />
<glyph unicode="&#xc3;" horiz-adv-x="2125" d="M2 114q197 414 452 793q-52 -15 -105 -25q-153 -27 -223 109q-9 16 -16.5 35t-10 32t4 9t24.5 -34q26 -39 89 -36.5t136.5 25.5t129.5 45q35 14 55 20q15 5 30 9q12 3 24 7q35 49 71 96q340 447 751 828q26 25 58 57q81 86 184 162.5t207 56.5q73 -23 119 -92t68 -139 q31 -106 0.5 -210.5t-77.5 -201.5q-9 -18 -17 -36q-46 -104 -96 -207q-9 -20 -19 -40q13 -18 24 -44t17.5 -47t5.5 -22q-55 -11 -109 -22q-47 -102 -87 -206q-189 -500 -45 -1011q5 -14 5 -18.5t-4 -2.5t-10 7q-4 3 -7 6q-20 16 -33.5 46.5t-20.5 55.5q-141 474 3 948 q24 74 53 145q-392 -78 -778 -181q-96 -28 -193 -61q-3 0 -5 -1q-336 -462 -591 -975q1 2 -4.5 10t-15.5 19q-18 22 -34 48t-10 43zM805 1164q6 2 12 3q68 19 137 37q371 99 749 169q33 71 67 141q1 3 3 6q27 56 60 117q123 206 159 418q20 113 -94 123q-61 0 -114 -31 q-86 -51 -160 -122l-28 -26q-185 -163 -357 -339q-230 -237 -434 -496zM1517 2492q40 125 137.5 131t216.5 -28q107 -30 204.5 -31.5t158.5 83.5q0 -2 13 -18q11 -15 26 -36t24 -40.5t4 -30.5q-50 -91 -135 -91.5t-185 30.5q-78 23 -153 31q-119 12 -204 -42 q-26 -22 -39 -69q0 -2 -1 -4q-1 1 -12 14t-25 32t-23.5 37.5t-6.5 31.5z" />
<glyph unicode="&#xc4;" horiz-adv-x="2125" d="M2 113q198 413 453 792q-52 -14 -105 -24q-153 -28 -223 108q-9 16 -16.5 35.5t-10 32.5t3.5 9t24 -34q27 -40 90 -37t136.5 26t129.5 45q35 14 54 20q16 4 31 9q12 3 24 7q35 48 71 96q339 447 751 828q26 24 58 56q81 87 184 163t207 56q72 -22 118.5 -91.5 t68.5 -138.5q31 -106 0.5 -210.5t-77.5 -201.5q-9 -19 -17 -37q-47 -104 -96 -207q-9 -19 -19 -39q13 -18 24 -44.5t17.5 -47t5.5 -21.5l-110 -22q-46 -102 -87 -207q-188 -499 -44 -1010q5 -14 4.5 -19t-4 -2.5t-9.5 7.5q-4 3 -7 5q-20 17 -33.5 47.5t-21.5 54.5 q-140 475 4 949q23 73 53 145q-392 -78 -778 -182q-96 -27 -193 -60q-3 -1 -5 -1q-336 -463 -591 -976q1 3 -5 10.5t-15 19.5q-18 22 -34.5 48t-10.5 43zM806 1163q6 1 12 3q68 19 136 37q372 99 750 169q33 71 67 140q1 3 3 7q27 56 60 117q123 205 159 418q20 112 -94 123 q-61 0 -114 -32q-87 -51 -160 -122q-14 -12 -28 -25q-185 -163 -357 -340q-231 -237 -434 -495zM1635 2523q40 37 86 67q25 17 48 35q4 1 16 -14.5t25.5 -38t21 -42t1.5 -25.5q-23 -19 -45 -39q-40 -38 -86 -69q-4 -1 -16.5 15t-26.5 39.5t-21.5 44t-2.5 27.5zM2041 2523 q40 37 86 67q25 17 48 35q4 1 16 -14.5t25.5 -38t21 -42t1.5 -25.5q-23 -19 -45 -39q-41 -38 -86 -69q-5 -1 -17.5 15t-26 39.5t-21 44t-2.5 27.5z" />
<glyph unicode="&#xc5;" horiz-adv-x="2127" d="M4 113q197 413 453 792q-53 -14 -105 -24q-153 -28 -223 108q-10 16 -17 35.5t-9.5 32t3.5 9t24 -34.5q27 -39 90 -36.5t136 25.5t130 46q35 13 54 19q15 5 31 9q12 4 24 7q35 49 71 97q339 447 751 828q26 24 57 56q82 87 185 163t207 56q72 -23 118.5 -92t67.5 -139 q32 -106 1.5 -210t-78.5 -202l-16 -36q-47 -104 -96 -207q-10 -19 -19 -39q13 -19 24 -45t17.5 -46.5t5.5 -22.5l-110 -22q-47 -101 -87 -206q-188 -499 -45 -1010q5 -15 5 -19.5t-3.5 -2.5t-10.5 8q-3 2 -7 5q-19 17 -33 47.5t-21 54.5q-140 474 4 949q23 73 52 145 q-391 -79 -777 -182q-97 -27 -194 -60q-2 -1 -5 -2q-335 -462 -591 -975q1 2 -4.5 10t-14.5 19q-19 23 -35 49t-10 43zM807 1162q7 2 13 4q68 19 136 37q371 99 750 169q32 70 66 139q2 4 3 7q28 57 60 118q123 205 160 418q19 112 -94 122q-61 0 -114 -31 q-87 -51 -160 -122q-14 -13 -29 -25q-185 -163 -357 -340q-230 -237 -434 -496zM1734.5 2527.5q11.5 28.5 45.5 60.5l79 79q-14 20 -21.5 38t-2.5 29q46 72 130 49q39 -13 64.5 -45.5t43.5 -67.5q47 -85 40.5 -168t-95.5 -139q-36 -22 -82 -33.5t-88 -2.5q-42 12 -67.5 51 t-40.5 77q-17 44 -5.5 72.5zM1859 2468q22 5 42 13q75 26 118 91q16 32 17 61q1 5 1 9q-3 2 -7 3q-58 -66 -119 -128q-9 -10 -24 -23q-14 -12 -28 -26z" />
<glyph unicode="&#xc6;" horiz-adv-x="3505" d="M3 121q198 414 453 793q-53 -15 -105 -25q-153 -27 -223 109q-9 16 -16.5 35t-10 32t3.5 9t24 -34q27 -39 90 -36.5t136 25.5t130 46q35 13 54 19q15 5 31 9q12 4 24 7q35 49 71 96q339 447 751 828q26 25 58 57q81 87 184 163t207 56q72 -23 118.5 -92t68.5 -139 q31 -106 0.5 -210.5t-77.5 -201.5q-9 -18 -17 -36q-47 -104 -96 -207q-10 -20 -19 -40q13 -18 24 -44t17.5 -46.5t5.5 -22.5l-110 -22q-47 -102 -87 -206q-55 -149 -72 -247q9 17 18 33q131 220 306 406q238 253 536 430q-31 27 -56 72q-69 131 -21.5 230.5t163.5 178.5 q116 91 258.5 140.5t269.5 -56.5q66 -61 105 -152.5t5 -178.5q1 3 -5 11.5t-16 20.5q-18 22 -33.5 47t-10.5 43q30 77 -15.5 112t-118.5 38.5t-127 -13.5q-149 -56 -273 -159q-32 -23 -80.5 -69.5t-72 -96.5t18.5 -83q64 -37 143 -11q80 40 162 74q7 2 20 -15.5t25.5 -42.5 t19.5 -45t3 -24q-51 -28 -102 -48q-405 -195 -716 -521q-151 -160 -271 -346q-67 -98 -122 -216.5t-40 -240.5q19 -92 106.5 -131.5t193 -45t179.5 2.5q230 23 454 76q770 205 1060 414q2 1 10 -32.5t2 -82.5q-47 -78 -479.5 -267t-953.5 -242q-124 -15 -248 2t-225 98 q-81 72 -130 177q-1 1 -1 3q-1 0 -1 1v1q-24 52 -36 105q-6 31 -8 62q-53 290 65 619q23 74 52 145q-391 -78 -777 -181q-96 -27 -193 -60q-3 -1 -5 -2q-336 -462 -592 -975q1 2 -4.5 10t-14.5 19q-18 22 -34.5 48t-10.5 43zM807 1171q6 2 12 3q68 19 136 37q372 99 750 170 q33 70 66 139q2 4 3 7q28 56 60 117q123 206 160 419q19 112 -94 122q-61 0 -114 -31q-87 -51 -160 -122q-14 -13 -28 -25q-186 -163 -358 -340q-230 -237 -433 -496z" />
<glyph unicode="&#xc7;" horiz-adv-x="1876" d="M22.5 703.5q77.5 307.5 238.5 561.5q389 649 1068 983q163 81 321 74.5t272 -162.5q188 -256 14 -511l-1 1q-6 7 -24.5 32t-33 51.5t-6.5 38.5q71 86 83 193.5t-84 181.5q-84 55 -180.5 52.5t-187.5 -37.5q-325 -131 -592 -359q-471 -390 -716 -949q-55 -119 -101.5 -277 t-4.5 -289q71 -141 259 -157.5t325 7.5q408 65 758.5 236.5t490.5 280.5q5 3 14 -9.5t11.5 -44t0.5 -44.5t-8 -18q-185 -165 -666 -388q-269 -119 -559 -158q-68 -8 -140 -9q-21 -34 -41 -69q-11 -16 -21 -33q114 -9 174 -153q31 -87 -21 -147.5t-138 -97t-155 -50.5 q-10 -1 -22 17t-22.5 42t-16.5 43t-4 21q162 32 286 139q6 7 16 23q11 19 21 32q-4 1 -10 4q-13 5 -28 9q-86 8 -165 -28h-3q-7 -2 -19 13.5t-23.5 38t-18.5 42.5t-3 27q24 41 49 82q16 26 32 53q-175 18 -295 144q-201 260 -123.5 567.5z" />
<glyph unicode="&#xc8;" horiz-adv-x="1831" d="M5 394q-21 115 16.5 225.5t97.5 206.5q129 218 303 403q236 251 531 425q-30 27 -55 71q-69 130 -22 228.5t162 177.5q115 90 256.5 139t266.5 -55q66 -61 104.5 -151.5t4.5 -177.5q1 3 -5 11.5t-15 20.5q-18 22 -33.5 47t-10.5 42q30 77 -15 111.5t-117.5 37.5 t-125.5 -13q-148 -56 -271 -157q-32 -23 -80 -69.5t-71 -96t18 -81.5q65 -38 146 -10q77 39 156 73q7 2 20 -15.5t25.5 -42.5t19.5 -45.5t3 -24.5q-54 -30 -108 -49q-398 -193 -703 -514q-150 -159 -268 -343q-67 -97 -121 -214.5t-40 -238.5q19 -87 104.5 -127.5t190 -51.5 t179.5 -8q374 18 708.5 180.5t629.5 379.5q4 2 14 -15.5t14.5 -44t3.5 -46t-7 -26.5q-399 -345 -937 -510q-284 -83 -580.5 -31.5t-388.5 379.5zM1399 2384q1 -2 9 3.5t18.5 14t18.5 15.5t9 9q3 2 6 5q11 11 23.5 25.5t10.5 26.5q-38 140 11 276q1 4 -4.5 1t-14.5 -8.5 t-16.5 -11t-9.5 -7.5q-1 -1 -3 -2q-15 -15 -30 -31.5t-23 -36.5q-49 -139 -5 -279z" />
<glyph unicode="&#xc9;" horiz-adv-x="1826" d="M8 394q-21 115 16 225.5t97 206.5q130 218 304 403q236 251 531 425q-31 27 -56 71q-68 130 -21.5 228.5t162.5 177.5q115 90 256 139t267 -55q66 -61 104.5 -151.5t4.5 -177.5q1 3 -5 11.5t-16 20.5q-18 22 -33.5 47t-9.5 42q29 77 -16 111.5t-117.5 37.5t-125.5 -13 q-148 -56 -271 -157q-31 -23 -79 -69.5t-71.5 -96t18.5 -81.5q65 -38 146 -10q76 39 155 73q7 2 20 -15.5t26 -42.5t20 -45.5t2 -24.5q-53 -30 -108 -49q-397 -193 -702 -514q-150 -159 -269 -343q-66 -97 -120.5 -214.5t-39.5 -238.5q18 -87 103.5 -127.5t190 -51.5 t180.5 -8q374 18 708 180.5t630 379.5q3 2 13 -15.5t15 -44t4 -46t-8 -26.5q-398 -345 -937 -510q-283 -83 -580 -31.5t-388 379.5zM1388 2403q-2 -3 4.5 -2t16 5t18.5 7.5t11 4.5t3 2q19 10 37.5 23t30.5 31q79 124 67 270q0 2 -9 -1.5t-21 -9t-21.5 -11t-11.5 -6.5 q-3 -1 -7 -4q-13 -8 -28 -19.5t-16 -22.5q5 -145 -74 -267z" />
<glyph unicode="&#xca;" horiz-adv-x="1831" d="M15 394q-22 115 15.5 225.5t97.5 206.5q130 218 303 403q237 251 532 425q-31 27 -56 71q-69 130 -22 228.5t163 177.5q115 90 256 139t266 -55q67 -61 105 -151.5t5 -177.5q1 3 -5 11.5t-16 20.5q-18 22 -33.5 47t-9.5 42q29 77 -16 111.5t-117.5 37.5t-125.5 -13 q-148 -56 -271 -157q-32 -23 -79.5 -69.5t-71 -96t18.5 -81.5q64 -38 145 -10q77 39 156 73q7 2 20 -15.5t26 -42.5t20 -45.5t2 -24.5q-54 -30 -108 -49q-397 -193 -702 -514q-150 -159 -269 -343q-67 -97 -121 -214.5t-39 -238.5q18 -87 103.5 -127.5t190 -51.5t180.5 -8 q374 18 708 180.5t629 379.5q4 2 14 -15.5t14.5 -44t3.5 -46t-7 -26.5q-398 -345 -937 -510q-283 -83 -580 -31.5t-388 379.5zM1384 2472q160 189 363 330q4 2 16 -14t25.5 -39.5t22.5 -44.5t7 -28q-75 -217 -91 -446q-1 -4 -6.5 0.5t-13 13.5t-13.5 17.5t-7 10.5l-6 10 q-12 18 -22.5 40t-10.5 42q8 98 28 194q-62 -55 -122 -111q-51 -49 -105 -97q-2 -1 -14 14.5t-26 37.5t-22 42t-3 28z" />
<glyph unicode="&#xcb;" horiz-adv-x="1831" d="M11 394q-22 115 15.5 225.5t97.5 206.5q130 218 303 403q236 251 532 425q-31 27 -56 71q-69 130 -22 228.5t163 177.5q114 90 255.5 139t266.5 -55q66 -61 104.5 -151.5t4.5 -177.5q1 3 -4.5 11.5t-15.5 20.5q-18 22 -33.5 47t-10.5 42q30 77 -15 111.5t-117.5 37.5 t-125.5 -13q-148 -56 -271 -157q-32 -23 -79.5 -69.5t-71 -96t17.5 -81.5q65 -38 146 -10q77 39 156 73q7 2 20 -15.5t26 -42.5t20 -45.5t2 -24.5q-54 -30 -108 -49q-398 -193 -702 -514q-150 -159 -269 -343q-67 -97 -121 -214.5t-39 -238.5q18 -87 103.5 -127.5t190 -51.5 t180.5 -8q374 18 708 180.5t629 379.5q4 2 14 -15.5t14.5 -44t3.5 -46t-7 -26.5q-399 -345 -937 -510q-283 -83 -580 -31.5t-388 379.5zM1153 2524q40 37 86 67q24 17 48 35q3 2 15.5 -14t26 -38.5t21 -42t1.5 -25.5q-23 -19 -46 -39q-40 -38 -85 -68q-5 -2 -17.5 14.5 t-26 40t-21.5 44t-2 26.5zM1559 2524q40 37 85 67q25 17 49 35q3 2 15 -14t26 -38.5t21.5 -42t1.5 -25.5q-23 -19 -46 -39q-40 -38 -86 -68q-4 -2 -16.5 14.5t-26.5 40t-21.5 44t-1.5 26.5z" />
<glyph unicode="&#xcc;" horiz-adv-x="657" d="M2 124q190 44 377 96q-10 19 -7 31q104 353 227 702q53 152 104 304q40 122 81 245q110 336 225 671q-200 -32 -398 -81q-10 -2 -22 16t-23 42t-17 43.5t-4 20.5q458 128 933 144q13 -1 25.5 -22t22 -47.5t14.5 -43.5l3 -10q-228 -17 -452 -50q17 -27 14 -45 q-118 -376 -243 -750q-43 -129 -85 -259q-50 -153 -99 -307q-89 -289 -189 -573q228 65 454 141q8 2 20.5 -15.5t24 -42.5t18 -44.5t3.5 -21.5q-461 -168 -942 -266q-10 -1 -22 16.5t-22 41.5t-16 43t-5 21zM1067 2414q1 -2 9 3.5t18 14t18 15.5t10 9t6 5q11 11 23 25.5 t11 25.5q-39 141 11 277q1 4 -5 1t-14.5 -8.5t-16 -11t-10.5 -7.5q-1 -2 -2 -3q-16 -14 -31 -31t-23 -36q-49 -139 -4 -279z" />
<glyph unicode="&#xcd;" horiz-adv-x="1475" d="M2 123q190 44 377 96q-9 19 -7 31q105 353 228 702q52 152 103 304q41 122 81 245q110 336 225 671q-199 -32 -398 -81q-10 -2 -22 16t-22.5 42t-16.5 43.5t-4 20.5q457 128 932 144q13 -1 25.5 -22t22 -47.5t14.5 -43.5q3 -10 4 -10q-229 -17 -453 -50q18 -27 14 -45 q-118 -376 -243 -750q-42 -129 -85 -259q-50 -153 -98 -307q-90 -289 -190 -573q228 65 454 141q8 2 20.5 -15.5t24 -42.5t18 -44.5t3.5 -21.5q-461 -168 -942 -266q-10 -1 -21.5 16.5t-22 41.5t-16.5 43t-5 21zM1106 2431q-1 -3 5 -1.5t16 5t18.5 7t11.5 5.5q1 1 3 2 q18 10 36.5 23t30.5 30q79 124 68 271q-1 2 -10 -1.5t-20.5 -9.5t-21.5 -11t-11 -6q-3 -2 -7 -5q-14 -7 -29 -18.5t-16 -23.5q6 -145 -74 -267z" />
<glyph unicode="&#xce;" horiz-adv-x="1480" d="M5 120q189 45 376 97q-9 19 -6 31q104 353 227 701q52 152 103 305q41 122 81 244q110 337 225 671q-199 -32 -398 -81q-10 -1 -21.5 16.5t-22.5 42t-17 44t-4 20.5q457 128 932 144q13 -1 25.5 -22t22 -47.5t14.5 -43.5q3 -10 4 -11q-229 -16 -453 -49q18 -28 15 -45 q-119 -376 -244 -750q-42 -129 -85 -259q-50 -153 -98 -307q-90 -289 -190 -573q228 65 454 141q8 2 20.5 -16t24 -42.5t18 -44t3.5 -21.5q-461 -169 -942 -267q-10 -1 -21.5 17t-22 42t-16.5 43t-4 20zM985 2655q159 188 362 329q5 3 17 -13t25.5 -40t22 -44.5t6.5 -28.5 q-75 -217 -91 -445q0 -5 -5.5 -0.5t-13 13.5t-13.5 17.5t-8 11.5q-2 4 -5 9q-12 18 -23 40t-10 42q8 98 27 194q-61 -54 -121 -111q-52 -49 -105 -97q-2 0 -14 15t-26 37t-22 42t-3 29z" />
<glyph unicode="&#xcf;" horiz-adv-x="1480" d="M1 116q189 44 376 96q-9 19 -6 31q104 353 227 702q52 152 103 304q41 122 81 245q110 336 225 671q-199 -32 -398 -81q-10 -2 -21.5 16t-22.5 42t-17 43.5t-4 20.5q457 128 932 144q13 -1 25.5 -22t22 -47.5t14.5 -43.5q3 -10 4 -11q-229 -16 -453 -49q18 -27 15 -45 q-119 -376 -244 -750q-42 -129 -85 -259q-50 -153 -98 -307q-90 -289 -190 -573q228 65 454 141q8 2 20.5 -15.5t24 -42.5t18 -44.5t3.5 -21.5q-461 -168 -942 -266q-10 -1 -21.5 16.5t-22 41.5t-16.5 43t-4 21zM773 2549q40 36 86 67q25 17 48 35q4 1 16 -14.5t25.5 -38.5 t21 -42t1.5 -26q-23 -18 -45 -38q-41 -38 -86 -69q-4 -1 -17 15t-26.5 39.5t-21 44t-2.5 27.5zM1179 2549q40 36 86 67q25 17 48 35q3 1 15.5 -14.5t26 -38.5t21 -42t1.5 -26q-23 -18 -45 -38q-41 -38 -86 -69q-5 -1 -17.5 15t-26 39.5t-21 44t-2.5 27.5z" />
<glyph unicode="&#xd0;" horiz-adv-x="2041" d="M17 845q0 -1 7 -9q11 -12 26.5 -32t27 -41t8.5 -35q-44 -183 25.5 -313t208.5 -201q-2 7 0 12q116 384 268 757q30 78 61 156q-93 3 -185 6q-95 3 -188 6q-12 1 -23 18t-19.5 40t-14.5 41q-6 20 -7 21q83 1 167 2q160 2 322 3q167 438 323 880q1 0 12.5 -13t25.5 -32.5 t23.5 -38.5t6.5 -31q-124 -386 -270 -765q211 -1 420 -12q13 -2 25 -22t21.5 -45.5t15.5 -43.5q5 -15 5 -16q-269 -9 -540 -1l-4 -12q-11 -27 -21 -55q-83 -221 -161 -443q-81 -227 -165 -453q199 -65 402 -19q457 137 688 561q272 453 293 979q9 354 -287 536 q-245 106 -504 24q-484 -146 -866 -480q-2 -1 -14.5 14.5t-26.5 38t-21.5 42t-1.5 26.5q301 257 666 411q157 68 329.5 97t336.5 -32q230 -102 345 -338t114 -477q-17 -342 -150 -660q-106 -296 -304 -539q-191 -221 -475.5 -320t-558.5 39q-194 113 -306 329.5t-60 439.5z " />
<glyph unicode="&#xd1;" horiz-adv-x="2959" d="M11 113q373 581 801.5 1125t986.5 959q4 2 16 -14t25.5 -39t21.5 -43.5t4 -29.5q-314 -465 -328 -1025q-8 -167 27 -347.5t181 -280.5q236 -124 448 42q199 157 322.5 399t179.5 485q121 513 -21 1021q-2 10 0 11t6.5 -3.5t9.5 -10.5t9 -10l3 -3q16 -19 27 -44.5 t17 -49.5q153 -537 20 -1079q-105 -477 -441 -826q-180 -158 -368.5 -126.5t-319.5 227.5q-198 320 -186.5 700.5t168.5 727.5q-464 -400 -835.5 -888.5t-708.5 -1000.5q0 3 -13 19q-12 16 -26.5 36t-23 39t-2.5 29zM1837 2317q41 125 138.5 131t216.5 -28 q107 -30 204.5 -31.5t158.5 83.5q0 -2 13 -18q11 -15 26 -36t24 -40.5t4 -30.5q-50 -91 -135 -91.5t-185 30.5q-78 23 -153 31q-119 12 -204 -42q-26 -22 -39 -69q0 -2 -1 -4q-1 1 -12 13.5t-25 32t-23.5 38t-7.5 31.5z" />
<glyph unicode="&#xd2;" horiz-adv-x="1958" d="M19 697q162 536 599 933q13 189 170.5 327t323.5 227q185 110 403.5 137.5t397.5 -119.5q120 -110 181 -270.5t50 -321.5q-23 -233 -146.5 -443.5t-275.5 -382.5q-299 -350 -699 -578q-173 -107 -396 -179t-411 47q-139 108 -188 282.5t-9 340.5zM73 396 q8 -126 92 -187.5t204 -62.5q167 3 327 72.5t300 156.5q622 367 962 1003q96 181 113.5 404.5t-178.5 350.5q-163 83 -339 55.5t-330 -113.5q15 -24 24.5 -45.5t2.5 -29.5q-30 -25 -60 -51q-256 -214 -496 -447q16 -120 138.5 -142t267 6t226.5 57q9 2 22 -16.5t25.5 -44.5 t19.5 -47t3 -23q-126 -52 -260.5 -78t-266.5 25q-147 74 -211 227q-293 -288 -478 -658q-104 -194 -108 -412zM1631 2425q1 -2 8.5 3.5t18 14t18.5 15.5t10 9l6 6q11 10 23 24.5t10 26.5q-38 140 12 277q1 3 -5 0.5t-14.5 -8.5t-16 -11.5t-10.5 -7.5l-2 -2q-16 -14 -31 -31 t-23 -37q-49 -138 -4 -279z" />
<glyph unicode="&#xd3;" horiz-adv-x="1958" d="M20 697q162 536 599 934q12 189 170 327t324 226q185 111 403.5 138t397.5 -119q120 -110 181 -271t50 -322q-23 -232 -146.5 -442.5t-275.5 -383.5q-299 -350 -699 -578q-173 -106 -396 -178t-411 46q-139 109 -188 283t-9 340zM74 393q8 -126 92 -188t204 -62 q167 2 327 72t300 156q622 367 961 1004q97 181 114.5 404.5t-178.5 349.5q-163 84 -339 56t-330 -113q15 -24 24 -46t3 -29l-60 -52q-257 -213 -497 -447q17 -120 139.5 -142t267 6t226.5 58q9 2 22 -17t25.5 -45t19.5 -46.5t3 -23.5q-126 -51 -260.5 -77.5t-266.5 25.5 q-147 73 -211 226q-293 -287 -478 -658q-104 -193 -108 -411zM1571 2440q-2 -3 4.5 -1.5t16.5 5t18.5 7t10.5 5.5q2 1 3 1q19 11 37.5 24t30.5 30q79 124 68 270q-1 3 -10 -0.5t-21 -9.5t-21.5 -11t-11.5 -7q-2 -1 -6 -4q-14 -7 -29 -18.5t-16 -23.5q6 -145 -74 -267z" />
<glyph unicode="&#xd4;" horiz-adv-x="1956" d="M20 698q161 536 599 934q12 188 170 326.5t323 226.5q186 111 404.5 138t396.5 -119q120 -111 181.5 -271.5t50.5 -321.5q-24 -233 -147 -443.5t-275 -382.5q-299 -350 -700 -578q-172 -106 -395.5 -178.5t-410.5 46.5q-139 108 -188.5 282.5t-8.5 340.5zM73 393 q8 -126 92.5 -187.5t203.5 -62.5q167 3 327 73t300 156q623 367 962 1003q97 182 114.5 405t-179.5 350q-163 84 -338.5 56t-329.5 -114q15 -24 24 -45.5t3 -28.5l-60 -52q-257 -214 -497 -447q16 -120 139 -142t267.5 6t226.5 57q9 2 22 -16.5t25.5 -44.5t19.5 -47t3 -23 q-126 -52 -261 -78t-266 26q-147 73 -212 226q-292 -287 -477 -658q-104 -194 -109 -412zM1639 2597q159 189 362 330q5 2 17 -14t25.5 -39.5t22 -44.5t6.5 -29q-75 -216 -91 -445q0 -4 -5.5 0.5t-13 13.5t-13.5 17t-8 11q-2 4 -5 9q-12 19 -23 41t-10 41q8 99 27 195 q-61 -55 -121 -111q-52 -49 -105 -97q-2 -1 -14 14.5t-26 37.5t-22 42t-3 28z" />
<glyph unicode="&#xd5;" horiz-adv-x="1958" d="M19 696q162 535 599 933q12 189 170 327t324 227q185 110 403.5 137.5t397.5 -119.5q120 -110 181 -270.5t50 -322.5q-23 -232 -146.5 -442.5t-275.5 -382.5q-299 -351 -699 -578q-173 -107 -396 -179t-411 47q-139 108 -188 282.5t-9 340.5zM73 391q8 -126 92 -187.5 t204 -62.5q166 3 326.5 72.5t300.5 156.5q622 367 961 1003q97 181 114.5 404.5t-178.5 349.5q-163 84 -339 56.5t-330 -113.5q15 -24 24 -46t3 -29q-30 -25 -60 -51q-257 -214 -497 -447q17 -120 139.5 -142t267 6t226.5 57q9 2 22 -16.5t25.5 -44.5t19.5 -47t3 -23 q-126 -52 -260.5 -78.5t-266.5 25.5q-147 74 -211 227q-293 -288 -478 -658q-104 -194 -108 -412zM1196 2483q40 125 137.5 131t216.5 -28q107 -30 204.5 -31.5t159.5 83.5q0 -2 12 -18q12 -15 26.5 -36t23.5 -40.5t4 -30.5q-50 -91 -135 -91.5t-184 30.5q-78 23 -153 31 q-120 12 -205 -42q-26 -22 -38 -69q-1 -2 -1 -4q-1 1 -12 13.5t-25.5 32t-23.5 38t-7 31.5z" />
<glyph unicode="&#xd6;" horiz-adv-x="1960" d="M19 695q162 535 599 933q13 189 170.5 327t323.5 226q185 111 404 138t397 -119q120 -110 181 -270.5t50 -322.5q-23 -232 -146.5 -442.5t-275.5 -383.5q-299 -350 -699 -577q-173 -107 -396 -179t-410 47q-140 108 -189 282.5t-9 340.5zM73 390q8 -126 92 -188t204 -62 q167 3 327 72.5t300 156.5q622 366 962 1003q97 181 114 404.5t-179 349.5q-163 84 -339 56t-330 -113q15 -24 24.5 -46t2.5 -29q-30 -26 -60 -51q-256 -214 -496 -448q16 -120 138.5 -141.5t267 6t227.5 57.5q8 2 21.5 -16.5t25.5 -45t19 -47t3 -23.5 q-126 -51 -260.5 -77.5t-266.5 25.5q-147 73 -211 227q-293 -288 -478 -658q-103 -194 -108 -412zM1304 2562q40 36 85 67q25 17 49 35q3 1 15 -14.5t26 -38t21.5 -42t1.5 -25.5q-23 -19 -46 -39q-40 -38 -86 -69q-4 -1 -16.5 15t-26.5 39.5t-21.5 44t-1.5 27.5zM1709 2562 q40 36 86 67q25 17 48 35q4 1 16 -14.5t25.5 -38t21 -42t1.5 -25.5q-23 -19 -45 -39q-40 -38 -86 -69q-4 -1 -16.5 15t-26.5 39.5t-21.5 44t-2.5 27.5z" />
<glyph unicode="&#xd7;" horiz-adv-x="1014" d="M161 470l247 247l-247 248l99 98l247 -247l248 247l98 -99l-247 -247l247 -247l-99 -99l-247 247l-247 -247z" />
<glyph unicode="&#xd8;" horiz-adv-x="1957" d="M21 695q162 535 599 933q12 189 170 327t324 227q148 87 323 125q32 125 63 250q0 -1 9 -11q10 -13 25 -32t25.5 -39t8.5 -33q-10 -47 -21 -93l-6 -28q206 18 374 -121q119 -110 180.5 -270.5t50.5 -322.5q-24 -232 -147 -442.5t-275 -382.5q-299 -351 -700 -578 q-79 -46 -176 -94q-135 -344 -307 -663q0 2 -5.5 10t-14.5 20q-22 28 -42.5 61t-15.5 54q91 221 185 439q-233 -82 -430 41q-139 108 -188 282.5t-9 340.5zM75 390q8 -126 92 -187.5t203 -62.5q186 4 362 88q181 414 334 841l44 128q1 4 2 7q-122 -18 -240 29 q-147 74 -211 227q-293 -288 -478 -658q-104 -194 -108 -412zM696 1496q20 -134 167.5 -147.5t303.5 24.5q123 382 226 770q-87 -31 -167 -74q15 -24 24 -46t3 -29q-30 -25 -60 -51q-257 -214 -497 -447zM934 332q32 18 64 37q622 367 961 1003q97 181 114.5 404.5 t-179.5 349.5q-186 94 -387 48q-91 -386 -207 -766q16 5 29 9q9 2 22 -16.5t25.5 -44.5t19.5 -47t3 -23q-74 -29 -153 -53q-54 -171 -113 -340q-94 -280 -199 -561z" />
<glyph unicode="&#xd9;" horiz-adv-x="2684" d="M6.5 370.5q18.5 100.5 52.5 196.5l14 46q93 294 219 575q268 597 659 1121q0 -1 9 -13q11 -14 27 -35.5t25.5 -42.5t3.5 -32q-387 -529 -655 -1127q-128 -287 -221 -587q-6 -20 -12 -39q-36 -103 -52 -210q0 -3 -1 -6q-3 -19 -4.5 -45.5t2.5 -45.5q2 8 20 9.5t39 1.5 q29 -1 42 3q98 43 178 127q26 24 51 46q108 92 215 184q55 48 110 95q168 145 337 289q887 790 1903 1404q5 1 17.5 -15.5t26.5 -41t21.5 -45t2.5 -27.5q-781 -722 -894 -1781q-1 5 -18 25q-19 23 -38.5 51.5t-19.5 50.5q74 769 535 1384q-410 -273 -795 -580 q-509 -410 -1002 -840q-12 -10 -24 -21l-276 -238q-29 -25 -58 -52q-79 -77 -170 -132q-98 -48 -160 6t-94 144q-34 97 -15.5 197.5zM1773 2376q1 -2 9 3.5t18.5 13.5t18.5 15.5t10 8.5q2 3 5 6q12 11 24 25.5t10 25.5q-38 140 12 277q1 3 -5 0.5t-15 -8t-16.5 -11 t-9.5 -7.5q-1 -2 -2 -3q-16 -14 -31 -31t-23 -36q-49 -139 -5 -279z" />
<glyph unicode="&#xda;" horiz-adv-x="2684" d="M8 369.5q18 100.5 52 196.5q8 23 15 46q92 294 219 575q267 597 658 1121q0 -1 9 -13q12 -14 27.5 -35.5t25.5 -42.5t3 -31q-386 -530 -655 -1128q-128 -287 -221 -587q-6 -20 -12 -39q-35 -103 -52 -210q0 -2 -1 -6q-2 -19 -4 -45.5t2 -45.5q2 8 20 10t40 1q28 -1 42 3 q97 43 178 127q25 24 50 46q108 92 216 185q54 47 109 94q168 145 337 289q888 790 1903 1404q5 1 18 -15.5t26.5 -41t21.5 -45t2 -27.5q-781 -722 -894 -1781q-1 5 -18 25q-19 23 -38 52t-19 51q73 769 534 1383q-409 -273 -794 -580q-510 -410 -1002 -840q-12 -10 -24 -21 q-138 -119 -277 -238q-29 -25 -58 -51q-79 -78 -170 -133q-97 -48 -159 6.5t-94 143.5q-34 97 -16 197.5zM1835 2393q-2 -3 4.5 -1.5t16 5t18.5 7t11 5.5q2 1 3 2q19 10 37.5 23t30.5 30q79 124 67 271q0 2 -9 -1.5t-21 -9.5t-21.5 -11t-11.5 -6q-3 -2 -7 -5 q-13 -7 -28 -18.5t-16 -23.5q5 -145 -74 -267z" />
<glyph unicode="&#xdb;" horiz-adv-x="2684" d="M10 369.5q18 100.5 52 196.5q7 23 15 46q92 294 219 574q267 597 658 1122q0 -1 9 -13q12 -14 27.5 -35.5t25.5 -42.5t3 -32q-386 -529 -655 -1127q-128 -287 -221 -587l-12 -40q-36 -103 -52 -209q0 -3 -1 -6q-2 -19 -4 -46t2 -45q2 8 20 9.5t40 1.5q28 -1 42 3 q97 43 177 127q26 24 51 45q108 93 215 185q55 48 110 95q168 145 337 289q887 790 1903 1404q5 1 18 -15.5t26.5 -41t21.5 -45.5t2 -27q-781 -722 -894 -1781q-1 4 -18 25q-19 23 -38.5 51.5t-18.5 50.5q73 769 534 1384q-410 -273 -794 -580q-510 -410 -1002 -840 q-12 -11 -24 -21q-139 -119 -277 -238q-29 -25 -58 -52q-79 -77 -170 -132q-97 -48 -159 6t-94 144q-34 97 -16 197.5zM1705 2619q159 188 362 329q5 3 17 -13t25.5 -40t22 -45t6.5 -28q-75 -217 -91 -445q0 -5 -5.5 -0.5t-13 13.5t-13.5 17.5t-8 11.5q-2 4 -5 9 q-12 18 -23 40t-10 42q8 98 27 194q-61 -54 -121 -111q-52 -49 -105 -97q-2 -1 -14 14.5t-26 37.5t-22 42t-3 29z" />
<glyph unicode="&#xdc;" horiz-adv-x="2684" d="M6.5 369.5q18.5 100.5 52.5 196.5l14 46q93 294 219 575q268 597 659 1121q0 -1 9 -13q11 -14 27 -35.5t25.5 -42t3.5 -31.5q-387 -530 -655 -1128q-128 -287 -221 -587q-6 -20 -12 -39q-36 -103 -52 -209q0 -3 -1 -7q-3 -19 -4.5 -45.5t2.5 -45.5q2 8 20 10t39 1 q29 -1 42 3q98 43 178 127q26 24 51 46q108 92 215 185l110 94q168 145 337 289q887 790 1903 1404q5 2 17.5 -15t26.5 -41.5t21.5 -45t2.5 -27.5q-781 -722 -894 -1781q-1 5 -18 25q-19 23 -38.5 52t-19.5 51q74 769 535 1383q-410 -273 -795 -580q-509 -410 -1001 -840 q-13 -10 -25 -21l-276 -238q-29 -25 -58 -51q-79 -78 -170 -133q-98 -48 -160 6.5t-94 143.5q-34 97 -15.5 197.5zM1670 2518q40 36 86 67q25 17 48 35q4 1 16 -14.5t25.5 -38t21 -42t1.5 -25.5q-23 -19 -45 -39q-41 -38 -86 -69q-4 -1 -17 15t-26.5 39.5t-21 44t-2.5 27.5z M2076 2518q40 36 86 67q25 17 48 35q3 1 15.5 -14.5t26 -38t21 -42t1.5 -25.5q-23 -19 -45 -39q-41 -38 -86 -69q-5 -1 -17.5 15t-26 39.5t-21 44t-2.5 27.5z" />
<glyph unicode="&#xdd;" horiz-adv-x="2079" d="M4 943q0 86 43.5 170t95.5 157q15 23 28 44q124 192 275 363q311 350 711 591q6 2 18 -14.5t25 -40t20 -43t2 -23.5q-448 -272 -781 -677q-162 -197 -289 -420q-4 -8 -11 -18q-28 -46 -55.5 -107.5t-8.5 -97.5q22 -27 68 -23.5t92.5 20.5t70.5 30q514 279 976 641 q463 348 902 727q3 1 15.5 -15t26.5 -39t22 -43t2 -27q-157 -149 -215 -346.5t-83 -404.5q-6 -42 -12 -82q-51 -425 -334 -743q-315 -318 -748 -441l-12 -4q-160 -56 -341 -73.5t-306 115.5q-14 17 -27.5 40t-18.5 44q0 1 -1 3q-1 4 -2.5 10.5t-2 11.5t1.5 5.5t8 -6.5 q139 -138 371.5 -90.5t398.5 118.5l10 4q390 142 660 455q147 184 207.5 394t89.5 439q22 157 67 308q-316 -264 -646 -509q-423 -316 -879 -581q-78 -49 -169.5 -73t-168.5 44q-39 39 -66 95.5t-30 111.5zM1485 2353q-1 -3 5 -1.5t16 5t18.5 7t11.5 5.5q1 1 3 2 q18 10 36.5 23t30.5 30q79 124 68 271q-1 2 -10 -1.5t-20.5 -9.5t-21 -11t-11.5 -6q-3 -2 -7 -5q-14 -7 -29 -18.5t-16 -23.5q6 -145 -74 -267z" />
<glyph unicode="&#xde;" horiz-adv-x="2067" d="M260 78q100 242 203 481q217 490 400 996q252 734 434 1488q0 -1 8 -11q11 -13 25.5 -32t25.5 -39t8 -33q-100 -469 -236 -930q81 10 162 29q192 57 380 9q110 -43 173 -149t67 -221q4 -153 -62 -330t-204 -256q-84 -39 -177.5 -35t-183.5 21q-22 4 -43 7q-55 9 -110 17 q-143 19 -284 48q-207 -627 -509 -1205q1 2 -4.5 10t-15.5 20q-21 28 -42 61.5t-15 53.5zM887 1254q72 -12 144 -26q197 -47 393 -46q155 11 241 111t127 242q44 122 47 252q-8 86 -83.5 116t-154.5 30q-123 -1 -242 -30q-133 -34 -269 -30q-75 -249 -160 -494 q-21 -62 -43 -125z" />
<glyph unicode="&#xdf;" horiz-adv-x="1901" d="M233 -378q25 495 95 985q54 474 206 925q116 325 353 575q106 112 258.5 200.5t313.5 57.5q97 -29 157.5 -118.5t73.5 -187.5q16 -156 -64 -304.5t-184 -257.5q-54 -56 -119 -104q-86 -62 -149 -141q-53 -79 -32 -152.5t66 -145.5q18 -29 33 -58q155 -289 84 -607 q-38 -145 -143 -238.5t-261 -50.5q-143 52 -231 179t-149 261q-4 7 -8 15q-14 28 -16 38t3.5 7t15 -14.5t19.5 -26t17 -28.5q54 -116 141 -209t222 -105q146 1 235 118q120 166 109 369t-111 371q-54 83 -90 182.5t13 195.5q55 81 140 139q37 27 70 56q98 89 173 197 q48 65 101 175t49 206.5t-128 119.5q-138 15 -267 -55t-227 -161q-236 -221 -358 -516t-178 -608q-131 -694 -165 -1399q-1 6 -18 26t-33 44.5t-17 44.5z" />
<glyph unicode="&#xe0;" horiz-adv-x="1299" d="M-228 286q49 162 207 296.5t314 186.5q84 28 169.5 16t139.5 -85q22 -33 37 -65q92 83 177 170q2 0 15.5 -17t29 -41t24.5 -45t1 -29l-1 -1l-2 -2q-59 -100 -132 -193q-33 -44 -65 -89q-22 -30 -57.5 -90.5t-40 -112t66.5 -53.5q70 4 142.5 49.5t130.5 93.5q16 13 29 23 t27 20q193 139 356 309q1 0 10 -11t19.5 -27t15.5 -31.5t-1 -24.5q-207 -267 -481 -459q-82 -57 -158.5 -71t-142.5 74q-97 128 -77 273q-188 -176 -410 -302q-63 -36 -134.5 -47.5t-128.5 42.5q-44 46 -69 113t-11 130zM-160 138q15 2 36 -3q19 -5 37 -4q49 6 94 28 q129 63 240 153q132 99 260 207q-9 22 -3 26q27 15 55.5 37.5t31 43t-48.5 28.5q-72 11 -145 -3q-117 -33 -216 -106q-123 -84 -221 -196q-43 -48 -77 -102q-11 -21 -19 -50q-9 -38 -24 -59zM455 962q1 -2 9 3t18.5 13.5t18.5 16t9 8.5l6 6q11 10 23.5 25t10.5 26 q-38 140 11 277q1 3 -4.5 0.5t-14.5 -8.5t-16.5 -11.5t-9.5 -7.5q-1 -1 -3 -2q-15 -14 -30 -31t-23 -36q-49 -139 -5 -279z" />
<glyph unicode="&#xe1;" horiz-adv-x="1294" d="M-224 288q49 161 207 296t314 187q83 28 168.5 16t139.5 -85q23 -33 38 -66q91 83 176 171q2 0 15.5 -17t29.5 -41t24.5 -45.5t1.5 -28.5l-2 -2q-1 0 -1 -1q-59 -101 -132 -193q-33 -45 -65 -89q-22 -30 -58 -90.5t-40.5 -112t67.5 -54.5q70 4 142 50t131 94q15 12 29 23 l26 20q193 139 357 309q1 0 10 -11t19.5 -27t15.5 -31.5t-2 -24.5q-207 -267 -480 -459q-83 -57 -159 -71.5t-143 73.5q-97 129 -77 274q-187 -176 -410 -303q-62 -35 -133.5 -46.5t-128.5 41.5q-45 47 -69.5 113.5t-10.5 130.5zM-157 140q16 2 36 -3t37 -4q50 6 95 27 q128 64 240 154q131 99 259 206q-8 22 -3 27q28 14 56.5 36.5t30.5 43t-48 29.5q-73 11 -145 -4q-118 -32 -216 -106q-123 -84 -222 -195q-43 -48 -76 -103q-11 -20 -19 -50q-9 -37 -25 -58zM391 982q-2 -3 4.5 -2t16 4.5t18 7.5t11.5 5q2 1 3 2q19 10 37.5 23t29.5 30 q80 124 68 271q0 2 -9 -1.5t-21 -9t-21.5 -11t-11.5 -6.5q-3 -2 -7 -4q-13 -8 -28 -19.5t-16 -22.5q5 -146 -74 -267z" />
<glyph unicode="&#xe2;" horiz-adv-x="1299" d="M-224 287q49 162 207 296.5t314 186.5q84 28 169.5 16t139.5 -85q22 -33 37 -65q92 83 177 170q2 1 15.5 -16.5t29 -41.5t24.5 -45t1 -29l-1 -1l-2 -2q-59 -100 -131 -193q-34 -44 -66 -89q-22 -29 -57.5 -90t-40 -112.5t66.5 -53.5q70 4 142.5 49.5t130.5 94.5 q16 12 30 22l26 20q193 139 356 309q1 0 10 -10.5t19.5 -26.5t16 -31.5t-1.5 -24.5q-207 -267 -481 -460q-82 -57 -158.5 -71t-142.5 74q-97 128 -77 274q-188 -177 -410 -303q-62 -36 -134 -47t-128 42q-45 46 -70 113t-11 130zM-156 140q15 1 36 -4q20 -4 37 -4 q49 6 95 28q128 63 239 153q132 99 260 207q-8 22 -3 26q27 15 55.5 37.5t31 43t-47.5 29.5q-73 10 -146 -4q-117 -33 -215 -106q-124 -84 -222 -196q-43 -47 -77 -102q-11 -21 -18 -50q-10 -37 -25 -58zM221 1051q160 188 363 329q4 3 16 -13t25.5 -40t22.5 -44.5t7 -28.5 q-75 -217 -91 -445q-1 -5 -6.5 -0.5t-13 13.5t-13.5 17.5t-7 11.5q-3 4 -6 9q-12 18 -22.5 40t-10.5 42q8 98 28 194q-62 -54 -122 -111q-51 -49 -105 -97q-2 -1 -14 14.5t-26 37.5t-22 42t-3 29z" />
<glyph unicode="&#xe3;" horiz-adv-x="1294" d="M-224 288q49 162 207 296.5t314 186.5q83 28 168.5 16t139.5 -85q23 -33 38 -65q92 83 177 170q1 0 14.5 -17t29.5 -41t24.5 -45t1.5 -29l-2 -2q-1 0 -1 -1q-59 -101 -132 -193q-33 -44 -65 -89q-22 -30 -58 -90.5t-40.5 -112t67.5 -54.5q70 5 142 50.5t131 93.5 q15 12 29 23l26 20q193 139 357 309q1 0 10 -11t19.5 -27t15.5 -31.5t-2 -24.5q-207 -267 -480 -459q-83 -57 -159 -71.5t-143 74.5q-97 128 -76 273q-188 -176 -411 -303q-62 -35 -133.5 -46.5t-128.5 41.5q-45 47 -69.5 114t-10.5 130zM-157 140q16 2 36 -3t37 -4 q50 6 95 28q128 63 240 153q131 99 259 207q-8 21 -3 26q28 15 56.5 37.5t30.5 42.5t-48 29q-73 11 -145 -4q-118 -32 -216 -106q-123 -84 -222 -195q-43 -48 -76 -102q-11 -21 -19 -50q-9 -38 -25 -59zM47 1026q40 125 137.5 131.5t216.5 -28.5q107 -30 204.5 -31.5 t158.5 83.5q0 -2 13 -18q12 -15 26.5 -35.5t23.5 -40.5t4 -31q-50 -91 -135 -91t-185 30q-77 23 -153 32q-119 11 -204 -43q-26 -22 -39 -69q0 -2 -1 -4q-1 1 -12 14t-25 32t-23.5 38t-6.5 31z" />
<glyph unicode="&#xe4;" horiz-adv-x="1294" d="M-227 287q49 162 207 296.5t314 186.5q84 28 169.5 16t139.5 -85q22 -33 37 -65q92 83 177 170q2 0 15.5 -17t29 -41t24.5 -45t1 -29l-1 -1l-2 -2q-59 -100 -131 -193q-34 -44 -66 -89q-22 -29 -57.5 -90t-40 -112.5t66.5 -53.5q70 4 142.5 49.5t130.5 93.5q16 13 30 23 l26 20q193 139 356 309q1 0 10 -10.5t19.5 -26.5t16 -31.5t-1.5 -25.5q-207 -267 -481 -459q-82 -57 -158.5 -71t-142.5 74q-97 128 -77 273q-188 -176 -410 -302q-62 -36 -134 -47.5t-128 42.5q-45 46 -70 113t-11 130zM-159 140q15 1 36 -4q20 -4 37 -4q49 6 95 28 q128 63 239 153q132 99 260 207q-8 22 -3 26q27 15 55.5 37.5t31 43t-47.5 29.5q-73 10 -146 -4q-117 -33 -215 -106q-124 -84 -222 -196q-43 -48 -77 -102q-11 -21 -18 -50q-10 -38 -25 -58zM219 1106q40 36 85 67q25 17 49 35q3 1 15 -15t25.5 -38.5t21.5 -41.5t1 -26 q-23 -18 -45 -39q-40 -37 -86 -68q-4 -1 -16.5 15t-26.5 39.5t-21.5 44t-1.5 27.5zM624 1106q40 36 86 67q25 17 48 35q4 1 16 -15t25.5 -38.5t21 -41.5t1.5 -26q-23 -18 -45 -39q-40 -37 -86 -68q-4 -1 -17 15t-26.5 39.5t-21 44t-2.5 27.5z" />
<glyph unicode="&#xe5;" horiz-adv-x="1299" d="M-226 288q50 161 207.5 295.5t314.5 187.5q83 28 168.5 15.5t139.5 -85.5q23 -33 38 -65q91 83 176 170q2 1 15.5 -16t29.5 -41.5t24.5 -45.5t0.5 -29l-1 -1t-2 -1q-59 -101 -131 -194q-34 -44 -65 -89q-22 -29 -58 -89.5t-40.5 -112.5t67.5 -54q69 4 141.5 50t130.5 94 q16 12 30 23l26 20q193 139 357 309q1 0 10 -11t19 -27t15.5 -31.5t-1.5 -24.5q-207 -267 -480 -460q-83 -56 -159.5 -70.5t-142.5 73.5q-97 128 -77 274q-188 -177 -410 -303q-62 -36 -134 -47t-128 42q-45 46 -70 113t-11 131zM-158 140q16 1 36 -4q20 -4 37 -4 q50 6 95 28q128 63 239 153q132 99 260 207q-8 22 -3 26q28 15 56 37.5t30.5 43t-47.5 29.5q-73 11 -145 -4q-118 -32 -216 -106q-123 -84 -222 -196q-43 -47 -76 -102q-11 -21 -19 -50q-10 -37 -25 -58zM417.5 1090.5q11.5 28.5 45.5 59.5q39 40 79 79q-14 20 -21.5 38.5 t-2.5 29.5q46 71 130 48q39 -13 64.5 -45t43.5 -68q47 -84 40.5 -167.5t-95.5 -138.5q-36 -22 -82 -34t-88 -2q-42 12 -67.5 50.5t-40.5 77.5q-17 44 -5.5 72.5zM542 1031q22 5 42 13q75 26 118 91q16 31 17 61q1 4 1 9l-6 2q-58 -65 -119 -128q-10 -9 -25 -23 q-14 -11 -28 -25z" />
<glyph unicode="&#xe6;" horiz-adv-x="1570" d="M-228 287q49 162 207 296.5t314 186.5q83 28 168.5 16t139.5 -85q23 -33 38 -65l-20 -138q110 156 230 239q3 1 6 3q48 37 98.5 55t90.5 -33q61 -82 52 -181q-29 -156 -151.5 -215t-268.5 -28l-1 1q-43 -74 -64 -153q-4 -16 -7 -33v-1q56 -25 119 -29q32 -2 64 1 q88 6 170 38q372 167 646 469q1 1 9.5 -10t18 -27t14.5 -31t-2 -24q-134 -163 -306.5 -317t-379.5 -213q-117 -31 -223 -6t-169 129v1q0 1 -1 1q0 1 -1 2q-5 9 -9 18q-19 42 -22 87q-6 40 -7 111q-188 -177 -411 -303q-62 -36 -133.5 -47t-128.5 42q-45 46 -69.5 113 t-10.5 130zM-161 140q16 1 36 -4q20 -4 37 -4q50 6 95 28q128 63 240 153q131 99 259 207q-8 22 -3 26q28 15 56.5 37.5t30.5 43t-48 29.5q-73 10 -145 -4q-118 -33 -216 -106q-123 -84 -222 -196q-43 -47 -76 -102q-11 -21 -19 -50q-9 -37 -25 -58zM752 450q94 6 170 68 q65 62 81 135q-18 -5 -29 -10q-86 -47 -154 -118q-35 -35 -68 -75z" />
<glyph unicode="&#xe7;" horiz-adv-x="848" d="M-143 317.5q29 140.5 127 258.5q114 158 295 221q73 18 110.5 -19t65.5 -97q5 -10 11 -21q27 -53 18 -57t-38 47q-24 38 -72 30t-97 -35.5t-75 -47.5q-122 -92 -202 -222q-44 -68 -68 -145l-7 -21q-9 -24 -6 -34t26 -21q81 -36 168 -22q216 35 400 174.5t336 293.5 q21 21 42 41q2 0 11 -11t19.5 -27t16 -31.5t-1.5 -24.5q-247 -316 -598 -501q-99 -45 -208 -47l-16 -66q77 -6 121 -98q33 -83 -3.5 -154.5t-91.5 -133.5q-2 -2 -4 -5q-1 0 -11 13.5t-21.5 33t-18 37t-1.5 25.5q8 12 22 30q23 29 49.5 66.5t39.5 73.5q-65 18 -119 -39 q-2 -2 -11 11t-19 32.5t-17 36.5t-5 24q2 10 5 21q13 50 26 101q-55 14 -103 53q-124 116 -95 256.5z" />
<glyph unicode="&#xe8;" horiz-adv-x="868" d="M-136 161q-59 160 53.5 327.5t242.5 255.5q2 2 5 3q48 37 98.5 55t90.5 -33q61 -82 52 -181q-29 -156 -151.5 -215t-267.5 -28q-1 0 -1 1h-1q-43 -74 -63 -153q-5 -16 -8 -32v-1v-1q56 -25 119 -29q32 -1 64 1q88 7 170 38q372 168 646 469q1 1 9.5 -10t18 -27t14.5 -31 t-2 -24q-134 -163 -306.5 -317t-379.5 -213q-122 -33 -232.5 -3.5t-170.5 148.5zM62 457q94 6 170 68q65 62 81 135q-18 -5 -29 -10q-86 -47 -154 -118q-35 -35 -68 -75zM353 961q1 -2 8.5 3.5t18 14t18.5 15.5t10 9t6 5q11 11 23 25.5t10 25.5q-38 141 12 277q1 4 -5 1 t-14.5 -8.5t-16 -11t-10.5 -7.5q-1 -1 -2 -3q-16 -14 -31 -31t-23 -36q-49 -139 -4 -279z" />
<glyph unicode="&#xe9;" horiz-adv-x="867" d="M-133 164q-58 160 54.5 327.5t241.5 254.5l6 4q48 37 98.5 55t90.5 -33q61 -82 51 -182q-29 -156 -151.5 -214.5t-267.5 -27.5h-1q-44 -73 -64 -152q-4 -16 -7 -33v-1q56 -26 119 -29q32 -2 64 0q88 7 170 39q372 167 645 469q2 0 10.5 -10.5t18 -26.5t14 -31.5 t-1.5 -23.5q-134 -164 -307 -317.5t-380 -213.5q-122 -32 -232.5 -2.5t-170.5 148.5zM66 460q93 5 170 68q65 61 81 135q-19 -5 -29 -10q-87 -47 -155 -118q-34 -35 -67 -75zM355 982q-2 -3 4.5 -2t16.5 5t18.5 7.5t10.5 4.5t3 2q19 10 37.5 23t30.5 31q79 124 68 270 q-1 2 -10 -1.5t-21 -9t-21.5 -10.5t-11.5 -7q-2 -1 -7 -4q-13 -8 -28 -19.5t-16 -22.5q6 -145 -74 -267z" />
<glyph unicode="&#xea;" horiz-adv-x="867" d="M-134 162q-59 160 53.5 328t241.5 255l6 4q48 37 98.5 54.5t90.5 -32.5q61 -82 51 -182q-28 -156 -150.5 -214.5t-268.5 -27.5h-1q-43 -73 -64 -152q-4 -16 -7 -33v-1q56 -26 119 -29q32 -2 64 0q88 7 170 39q372 167 645 469q2 0 10.5 -10.5t18 -26.5t14 -31.5 t-1.5 -23.5q-134 -164 -306.5 -317.5t-380.5 -213.5q-122 -32 -232.5 -2.5t-169.5 147.5zM64 458q94 6 170 69q65 61 81 135q-18 -5 -29 -10q-86 -47 -154 -118q-35 -35 -68 -76zM289 1050q159 189 363 330q4 2 16 -14t25.5 -39.5t22 -44.5t7.5 -28q-76 -217 -91 -446 q-1 -4 -6.5 0.5t-13 13.5t-13.5 17.5t-8 10.5q-2 5 -5 9q-12 19 -23 41t-10 41q8 99 28 195q-62 -55 -122 -111q-52 -49 -105 -97q-2 -1 -14 14.5t-26 37.5t-22 42t-3 28z" />
<glyph unicode="&#xeb;" horiz-adv-x="867" d="M-135 161q-59 160 53.5 327.5t241.5 255.5l6 4q48 36 98.5 54t90.5 -32q61 -82 51 -182q-28 -156 -151 -215t-268 -27h-1q-43 -73 -64 -152q-4 -17 -7 -33v-1q56 -26 119 -29q32 -2 64 0q88 7 170 39q372 167 645 468q2 1 10.5 -9.5t18 -26.5t14 -31.5t-1.5 -24.5 q-134 -163 -306.5 -316.5t-380.5 -213.5q-122 -33 -232.5 -3t-169.5 148zM63 457q94 6 170 68q65 62 81 136q-19 -5 -29 -10q-86 -47 -154 -119q-35 -35 -68 -75zM98 1104q40 37 86 67q24 17 48 35q3 1 15.5 -14.5t26 -38t21 -42t1.5 -25.5q-23 -19 -45 -39q-41 -38 -86 -68 q-5 -2 -17.5 14.5t-26 40t-21 43.5t-2.5 27zM504 1104q40 37 86 67q24 17 48 35q3 1 15.5 -14.5t26 -38t21 -42t1.5 -25.5q-23 -19 -46 -39q-40 -38 -85 -68q-5 -2 -17.5 14.5t-26 40t-21.5 43.5t-2 27z" />
<glyph unicode="&#xec;" horiz-adv-x="657" d="M-84 431q63 131 137 255q44 76 86 153q-1 -2 4.5 -10t14.5 -20q20 -24 38 -52.5t11 -46.5q-42 -80 -87 -159q-42 -75 -83 -152q-4 -6 -9 -16q-22 -39 -48 -98t-24 -105.5t65 -48.5q70 4 142 49.5t131 93.5q15 13 29 23l20 16q196 140 361 313q1 0 10.5 -12.5t20 -30.5 t15.5 -35t-2 -27q-206 -261 -479 -448q-83 -57 -159 -71t-143 74q-127 167 -51 355zM266 963q1 -2 9 3.5t18 14t18.5 15.5t9.5 9q3 2 6 5q11 11 23.5 25.5t10.5 26.5q-39 140 11 276q1 4 -4.5 1t-14.5 -8.5t-16.5 -11t-9.5 -7.5l-3 -3q-15 -14 -30.5 -30.5t-22.5 -36.5 q-49 -139 -5 -279z" />
<glyph unicode="&#xed;" horiz-adv-x="655" d="M-82 430q62 130 136 254q44 76 86 153q-1 -2 4.5 -10t15.5 -19q20 -25 37.5 -53.5t10.5 -46.5q-42 -80 -87 -159q-42 -75 -83 -151q-3 -7 -8 -16q-23 -40 -49 -99t-23.5 -105.5t64.5 -48.5q70 4 142.5 50t130.5 94q15 12 29 23q10 7 20 15q196 141 362 313q1 0 10 -12.5 t19.5 -30.5t15.5 -35t-1 -26q-207 -262 -480 -449q-83 -56 -159 -70.5t-142 73.5q-128 167 -51 356zM230 980q-1 -3 5 -2t16 5t18.5 7.5t11.5 4.5q1 1 3 2q18 10 36.5 23t30.5 31q79 124 68 270q-1 2 -10 -1.5t-20.5 -9t-21.5 -11t-11 -6.5q-3 -2 -7 -4q-14 -8 -29 -19.5 t-16 -22.5q6 -145 -74 -267z" />
<glyph unicode="&#xee;" horiz-adv-x="659" d="M-87 430q62 130 136 255q44 76 86 153q-1 -3 4.5 -10.5t15.5 -19.5q20 -24 38 -52.5t11 -46.5q-43 -80 -87 -159q-43 -75 -84 -152q-3 -7 -8 -16q-23 -39 -49 -98t-23.5 -106t64.5 -49q70 5 142.5 50.5t130.5 93.5q16 12 29 23q11 8 21 16q195 140 361 313q1 -1 10 -13 t19.5 -30.5t16 -35.5t-1.5 -26q-207 -261 -480 -448q-82 -57 -158.5 -71.5t-142.5 74.5q-128 166 -51 355zM42 1050q159 188 363 330q4 2 16 -14t25.5 -40t22 -44.5t7.5 -28.5q-76 -217 -91 -445q-1 -5 -6.5 -0.5t-13 13.5t-13.5 17.5t-8 11.5q-2 4 -5 9q-12 18 -23 40 t-10 42q8 98 27 194q-61 -54 -121 -111q-52 -49 -105 -97q-2 0 -14 15t-26 37t-22 42t-3 29z" />
<glyph unicode="&#xef;" horiz-adv-x="655" d="M-112 1105q40 37 86 67q24 17 48 35q3 1 15.5 -14.5t26 -38t21 -42t1.5 -25.5q-23 -19 -45 -39q-41 -38 -86 -68q-5 -2 -17.5 14.5t-26 40t-21 43.5t-2.5 27zM-84 430q62 131 136 255q44 76 86 153q-1 -2 4.5 -10t15.5 -20q20 -24 37.5 -52.5t10.5 -46.5 q-42 -80 -87 -159q-42 -75 -83 -152q-3 -6 -8 -15q-23 -40 -49 -99t-24 -105.5t65 -48.5q70 4 142 49.5t131 94.5q15 12 29 22l20 16q196 140 361 313q1 0 10.5 -12.5t20 -30.5t15.5 -35t-1 -27q-207 -261 -480 -448q-83 -57 -159 -71t-142 74q-128 167 -51 355zM294 1105 q40 37 86 67q24 17 48 35q3 1 15.5 -14.5t26 -38t21 -42t1.5 -25.5q-23 -19 -46 -39q-40 -38 -85 -68q-5 -2 -17.5 14.5t-26 40t-21.5 43.5t-2 27z" />
<glyph unicode="&#xf0;" horiz-adv-x="705" d="M-124.5 383.5q60.5 174.5 212.5 300.5v1q1 2 1 3q28 72 111 115t158 48q73 4 116 -35q-21 82 -61 175q-55 -35 -106 -75q-3 -2 -11 3t-15.5 13.5t-10 17.5t4.5 15q53 41 110 77q-45 75 -109 75q-15 0 -29 24t-24.5 54t-16.5 49q-3 11 -4 12q68 0 113 -59t74 -122 q6 -12 12 -23q38 24 77 46q8 3 18.5 -7t15.5 -23.5t-2 -18.5q-42 -23 -82 -49q57 -119 96 -246q9 -17 18 -35q49 -125 -13 -251.5t-143 -222.5q-42 -56 -115 -129t-155.5 -105t-154.5 34q-146 164 -85.5 338.5zM-67.5 161.5q12.5 -39.5 81.5 -29.5q90 20 166 91t131 142 q73 89 127 191q25 49 42 101q4 13 6 32q1 13 3 25q-10 2 -18 4t-10 3q-67 2 -128 -24q-49 -17 -100.5 -49.5t-71.5 -82.5l-0.5 0.5l-1.5 1.5q-1 -1 -1 -2q-152 -122 -219 -303q-19 -61 -6.5 -100.5z" />
<glyph unicode="&#xf1;" horiz-adv-x="1019" d="M-198 116l4 10t4 9q-1 8 2 13q1 3 3 6q2 2 3 5q75 198 161 393q74 169 141 341q1 0 12.5 -13t25.5 -32.5t23.5 -38.5t6.5 -30q-18 -52 -36 -102q79 96 175 167q56 43 127 63.5t130 -28.5q44 -42 71 -109.5t23 -128.5q-6 -56 -37 -107t-68 -97q-23 -29 -42 -56 q-1 -1 -2 -3q-22 -31 -47.5 -77t-23 -82t63.5 -40q65 2 125 45t104 86q183 175 327 381q0 -1 8 -12q9 -12 19.5 -28t16 -32.5t-1.5 -27.5q-40 -58 -79 -119q-102 -173 -242 -307q-43 -41 -101 -78t-121 -34q-109 21 -157 140t-14 215q37 81 94 150q47 60 83 126 q25 47 25 75.5t-58 25.5q-80 -10 -145 -60q-259 -209 -420 -521q-39 -66 -78 -129q-16 -41 -32 -83l-12.5 14t-28 35t-25.5 41.5t-7 33.5zM35 1091q40 126 137.5 132t216.5 -28q107 -30 204.5 -31.5t158.5 83.5q0 -2 13 -18q11 -15 26 -36t24 -40.5t4 -31.5 q-50 -90 -135 -90.5t-185 30.5q-77 23 -153 31q-119 12 -204 -42q-26 -22 -39 -69q0 -2 -1 -4q-1 0 -12 13t-25 32.5t-23.5 38t-6.5 30.5z" />
<glyph unicode="&#xf2;" horiz-adv-x="796" d="M-141 281q-1 123 73 228t166 179q1 1 4 -2q24 79 132 126q74 37 149 38t129 -67q99 -158 20 -313q172 35 293 174q2 0 11 -11.5t19 -28.5t15 -33.5t-3 -25.5q-86 -100 -183 -160t-224 -44q-14 -21 -28 -41q-39 -58 -113 -142.5t-161.5 -133.5t-167.5 0q-55 41 -91 115 t-40 142zM-71 173q12 -39 44.5 -43t69.5 10t62 30q125 77 222 204q-126 40 -194 164q-76 -70 -133 -156q-25 -38 -52.5 -99t-18.5 -110zM176 588q-14 -36 20 -60.5t90 -38.5t108 -19q41 66 70 132q15 37 22 73l10 38q-17 4 -32 7t-21 3q-64 -2 -150 -38.5t-117 -96.5z M348 968q1 -2 9 3.5t18 14t18.5 15.5t9.5 9q3 2 6 5q11 11 23.5 25.5t10.5 25.5q-39 141 11 277q1 4 -4.5 1t-14.5 -8.5t-16.5 -11t-9.5 -7.5l-3 -3q-15 -14 -30.5 -30.5t-22.5 -36.5q-49 -139 -5 -279z" />
<glyph unicode="&#xf3;" horiz-adv-x="796" d="M-142 282q-2 123 72.5 228t165.5 179q1 1 4 -2q24 78 133 126q74 37 149 38t128 -67q99 -158 21 -313q172 35 293 174q1 0 10 -11.5t19.5 -28.5t15 -33.5t-2.5 -25.5q-86 -100 -183 -160t-224 -44q-14 -21 -28 -41q-39 -58 -113 -142.5t-162 -133.5t-167 0 q-55 41 -91 115t-40 142zM-72 173q12 -38 44.5 -42t69.5 10t62 30q125 77 222 204q-126 40 -194 164q-77 -70 -133 -156q-26 -39 -53 -99.5t-18 -110.5zM174 589q-13 -37 21 -61t89.5 -38t108.5 -19q41 66 70 132q15 37 22 73q4 19 10 38q-17 4 -32.5 7t-20.5 3 q-65 -2 -150.5 -38.5t-117.5 -96.5zM364 987q-2 -3 4.5 -1.5t16.5 5t18.5 7t10.5 5.5l4 2q18 10 36.5 23t30.5 30q79 124 68 271q-1 2 -10 -1.5t-21 -9.5t-21.5 -11t-11.5 -6q-2 -2 -6 -4q-14 -8 -29 -19.5t-16 -23.5q6 -145 -74 -267z" />
<glyph unicode="&#xf4;" horiz-adv-x="796" d="M-141 281q-2 124 72.5 229t165.5 179q1 0 4 -2q24 78 133 126q74 37 149 38t128 -68q99 -158 21 -313q172 35 293 174q1 0 10 -11.5t19 -28.5t15 -33t-2 -25q-86 -100 -183 -160t-224 -45q-14 -21 -29 -41q-38 -57 -112.5 -142t-162 -134t-167.5 0q-54 41 -90 115.5 t-40 141.5zM-71 173q12 -39 44.5 -43t69 10t61.5 30q126 78 223 204q-126 40 -195 164q-76 -69 -132 -156q-26 -38 -53.5 -99t-17.5 -110zM175 588q-13 -36 21 -60t89.5 -38t107.5 -20q41 66 71 133q14 36 22 73q4 19 10 38q-17 3 -32.5 6t-20.5 3q-65 -1 -150.5 -37.5 t-117.5 -97.5zM227 1056q159 189 362 330q5 2 16.5 -14t25 -39.5t22.5 -44.5t7 -28q-75 -217 -91 -446q-1 -4 -6.5 0.5t-12.5 13.5t-13 17.5t-8 10.5q-3 5 -6 9q-12 19 -22.5 41t-9.5 41q7 99 27 195q-62 -55 -121 -111q-52 -49 -105 -97q-3 -1 -15 14.5t-26 37.5t-22 42 t-2 28z" />
<glyph unicode="&#xf5;" horiz-adv-x="796" d="M-144 282q-2 123 72.5 228t165.5 179q1 1 4 -2q24 78 133 126q74 37 149 38t128 -67q99 -158 21 -313q172 35 293 174q1 0 10 -11.5t19.5 -28.5t15 -33.5t-2.5 -25.5q-86 -100 -183 -160t-224 -44q-14 -21 -28 -41q-39 -58 -113 -142.5t-162 -133.5t-167 0 q-55 41 -91 115t-40 142zM-74 174q12 -39 44.5 -43t69.5 10t62 30q125 77 222 204q-126 40 -194 164q-77 -70 -133 -156q-26 -39 -53 -99.5t-18 -109.5zM-31 1031q40 126 137.5 132t216.5 -28q107 -30 204.5 -31.5t159.5 83.5q0 -2 12 -18q12 -15 26.5 -36t23.5 -40.5 t4 -31.5q-50 -90 -135 -90.5t-184 30.5q-78 22 -154 31q-119 11 -204 -42q-26 -22 -38 -69l-2 -4l-11.5 13t-25.5 32.5t-23.5 38t-6.5 30.5zM172 589q-13 -36 21 -60.5t89.5 -38.5t108.5 -19q41 66 70 132q15 37 22 73q4 19 10 38q-17 4 -32 7t-21 3q-65 -2 -150.5 -38.5 t-117.5 -96.5z" />
<glyph unicode="&#xf6;" horiz-adv-x="796" d="M-144 282q-1 123 73 228t166 179q1 1 4 -2q24 78 133 126q73 37 148 38t129 -67q99 -158 20 -313q172 35 294 174q1 0 10 -11.5t19 -28.5t15 -33.5t-3 -25.5q-86 -100 -183 -160t-224 -44q-14 -21 -28 -41q-39 -58 -113 -142.5t-161.5 -133.5t-167.5 0q-55 41 -90.5 115 t-40.5 142zM-74 174q13 -39 45 -43t69 10t62 30q126 77 222 204q-126 40 -194 164q-76 -70 -133 -156q-25 -39 -52.5 -99.5t-18.5 -109.5zM37 1112q40 37 86 67q25 17 48 35q3 1 15.5 -14.5t26 -38t21 -42t1.5 -25.5q-23 -19 -45 -39q-41 -38 -86 -69q-5 -1 -17.5 15 t-26 39.5t-21 44t-2.5 27.5zM173 589q-14 -36 20 -60.5t90 -38.5t108 -19q41 66 70 132q15 37 22 73l10 38q-16 4 -31.5 7t-21.5 3q-64 -2 -150 -38.5t-117 -96.5zM443 1112q40 37 86 67q24 17 48 35q3 1 15.5 -14.5t26 -38t21 -42t1.5 -25.5q-23 -19 -46 -39 q-40 -38 -85 -69q-5 -1 -17.5 15t-26 39.5t-21.5 44t-2 27.5z" />
<glyph unicode="&#xf7;" horiz-adv-x="1014" d="M87 647v140h839l1 -1v-139h-840zM382 377q0 15 16 31l82 84q15 14 29 14q13 0 31 -16l80 -86q12 -16 12 -29q0 -15 -14 -31l-80 -88q-20 -20 -29 -20q-16 0 -29 14l-88 101q-10 13 -10 26zM382 1070q0 15 16 31l82 84q15 14 29 14q13 0 31 -16l80 -86q12 -16 12 -29 q0 -15 -14 -31l-80 -88q-20 -20 -29 -20q-16 0 -29 14l-88 101q-10 13 -10 26z" />
<glyph unicode="&#xf8;" horiz-adv-x="796" d="M-156 270q-2 123 72.5 228t165.5 179q1 1 4 -2q24 78 133 126q20 10 39 17q73 237 134 478q0 -1 7 -9q10 -12 25 -31.5t26.5 -40.5t9.5 -34q-36 -172 -81 -342q68 -4 117 -68q99 -157 21 -312q172 35 293 174q1 0 10 -11.5t19 -28.5t15 -33.5t-2 -25.5 q-86 -100 -183 -160t-224 -44q-14 -21 -29 -41q-38 -58 -112.5 -142.5t-162.5 -133.5q-16 -9 -32 -15q-80 -202 -184 -392q0 1 -4.5 7.5t-12.5 16.5q-13 17 -29 40t-26.5 44t-6.5 33q53 141 112 279q-43 39 -74 102q-36 74 -40 142zM-86 161q12 -38 44 -42q20 -3 41 2 q80 177 148 359q-16 22 -30 47q-76 -70 -132 -156q-26 -39 -53.5 -99.5t-17.5 -110.5zM160 577q-9 -27 5 -46l31 92q-23 -21 -36 -46zM194 235q63 56 118 127q-36 12 -68 30l-12 -36q-11 -35 -23 -71q-8 -25 -15 -50zM273 477q54 -13 105 -18q41 66 71 132q14 37 22 73 q4 19 10 38q-17 4 -32.5 6.5t-20.5 3.5q-40 -1 -88 -16q-32 -110 -67 -219z" />
<glyph unicode="&#xf9;" horiz-adv-x="1185" d="M-73 363q5 123 70.5 231.5t144.5 203.5l36 46q0 -1 6 -10q11 -13 27.5 -35.5t27.5 -44.5t4 -34q-28 -40 -58 -80q-119 -142 -175 -316q-16 -57 -8.5 -112t70.5 -78q71 -16 133 25q147 101 245 257q9 11 17 23q47 64 91 131q74 114 159 218l0.5 -0.5l1.5 -1.5q2 5 5 10 l6 14q-1 -3 5 -11t16 -20q20 -24 37 -52t11 -46q-78 -164 -131 -337q-5 -14 -11 -30q-10 -25 -18 -53t-5 -51q8 -45 42 -58.5t72 -2.5q68 21 128 71.5t109 100.5l4 4q145 147 250 324q0 -1 4.5 -8t12.5 -17q20 -24 39 -54t12 -48q-136 -253 -359 -433q-73 -61 -141.5 -75.5 t-136.5 61.5q-100 113 -105 257q-56 -78 -118 -151q-57 -73 -144.5 -140t-185.5 -27q-85 47 -137 151t-53 198zM434 964q1 -2 9 3.5t18 14t18.5 15.5t9.5 9q2 2 6 5q11 11 23.5 25.5t10.5 25.5q-39 141 11 277q1 4 -5 1t-14.5 -8.5t-16 -11t-9.5 -7.5l-3 -3 q-15 -14 -30.5 -31t-22.5 -36q-50 -139 -5 -279z" />
<glyph unicode="&#xfa;" horiz-adv-x="1185" d="M-74 365q5 122 71 231t144 204q18 23 36 45l7 -9q10 -13 26.5 -35.5t27.5 -45t4 -33.5q-28 -40 -58 -80q-119 -143 -175 -316q-16 -57 -8.5 -112t70.5 -78q71 -16 133 24q147 101 246 257q8 12 17 24q46 64 90 130q74 114 159 219l0.5 -1t1.5 -2q2 6 5 11l6 14 q-1 -3 5 -11.5t16 -20.5q20 -24 37 -51.5t11 -45.5q-78 -164 -131 -337q-5 -14 -11 -30q-10 -26 -18 -53.5t-5 -50.5q8 -46 42 -59t72 -2q68 20 128 70.5t109 101.5l4 4q145 146 251 324q-1 -2 3.5 -8.5t13.5 -16.5q19 -25 38 -54.5t12 -47.5q-136 -253 -359 -434 q-73 -60 -141.5 -74.5t-136.5 61.5q-100 113 -105 256q-56 -78 -118 -150q-57 -74 -144.5 -140.5t-185.5 -27.5q-85 47 -137 151.5t-53 198.5zM476 984q-2 -3 4 -1.5t16 5t18.5 7t11.5 5.5q1 0 3 1q18 10 36.5 23.5t30.5 30.5q80 124 68 270q-1 2 -9.5 -1t-20.5 -9 t-21.5 -11t-11.5 -7q-3 -1 -7 -4q-13 -7 -28.5 -19t-16.5 -23q6 -145 -73 -267z" />
<glyph unicode="&#xfb;" horiz-adv-x="1185" d="M-74 363q5 123 71 231.5t144 203.5q18 23 36 45l7 -9q10 -13 26.5 -35.5t27.5 -44.5t4 -34q-28 -40 -58 -80q-119 -143 -175 -316q-16 -57 -8.5 -112t70.5 -78q71 -16 133 24q147 102 246 257q8 12 17 24q46 64 90 131q74 113 159 218l0.5 -0.5l1.5 -1.5q2 5 5 10l6 14 q-1 -3 5 -11t16 -21q20 -24 37 -51.5t11 -45.5q-78 -164 -131 -337q-5 -14 -11 -30q-10 -26 -18 -53.5t-5 -50.5q8 -46 42 -59t72 -2q68 20 128 70.5t109 101.5l4 4q145 147 251 324q-1 -2 3.5 -8.5t13.5 -16.5q19 -24 38 -54t12 -48q-136 -253 -359 -433 q-73 -61 -141.5 -75.5t-136.5 61.5q-100 113 -105 256q-56 -78 -118 -150q-57 -73 -144.5 -140t-185.5 -27q-85 46 -137 150.5t-53 198.5zM304 1052q159 188 363 329q4 3 16 -13t25.5 -40t22 -45t7.5 -28q-76 -217 -91 -445q-1 -5 -6.5 -0.5t-13 13.5t-13.5 17.5t-8 11.5 q-2 4 -5 9q-12 18 -23 40t-10 42q8 98 27 194q-61 -54 -121 -111q-52 -49 -105 -97q-2 -1 -14 14.5t-26 37.5t-22 42t-3 29z" />
<glyph unicode="&#xfc;" horiz-adv-x="1185" d="M-72 364q5 123 70.5 232t144.5 203l36 46q0 -1 6 -9q11 -14 27.5 -36.5t27 -44.5t4.5 -33q-28 -41 -58 -81q-119 -142 -175 -315q-16 -58 -8.5 -113t69.5 -78q72 -16 134 25q147 101 245 257q9 12 17 23q47 65 91 131q74 114 158 218q1 0 1.5 -0.5l1.5 -1.5q2 5 5 11 q3 7 6 13q-1 -2 5 -10.5t16 -20.5q19 -24 36.5 -52t11.5 -46q-78 -163 -131 -337q-5 -13 -11 -29q-10 -26 -18 -53.5t-5 -51.5q8 -45 42 -58.5t72 -2.5q67 21 127.5 71.5t108.5 100.5l5 5q145 146 250 323q0 -1 4.5 -8t12.5 -17q20 -24 39 -54t12 -47q-137 -253 -359 -434 q-73 -61 -141.5 -75.5t-136.5 61.5q-100 113 -105 257q-56 -78 -118 -151q-57 -73 -144.5 -139.5t-186.5 -27.5q-84 47 -136 151t-53 198zM197 1108q40 37 86 67q25 17 48 35q3 1 15.5 -14.5t26 -38t21 -42t1.5 -25.5q-23 -19 -45 -39q-41 -38 -86 -68q-5 -2 -17.5 14.5 t-26 40t-21 43.5t-2.5 27zM603 1108q40 37 86 67q24 17 48 35q3 1 15.5 -14.5t26 -38t21 -42t1.5 -25.5q-23 -19 -45 -39q-41 -38 -86 -68q-5 -2 -17.5 14.5t-26 40t-21 43.5t-2.5 27z" />
<glyph unicode="&#xfd;" horiz-adv-x="1160" d="M-483 -734q57 150 178.5 277t248.5 221q198 145 412 266q80 47 159 94q26 16 51 33l10 6q25 62 49 124q35 95 68 191q-28 -39 -48 -69q-15 -23 -22 -33q-95 -128 -208 -240q-70 -73 -163.5 -118.5t-185.5 21.5q-73 63 -113 163t-29 194q50 213 201 381q24 30 46 59 q0 -1 9 -13q12 -14 27.5 -36t25.5 -42.5t3 -31.5q-22 -31 -45 -62q-85 -107 -149 -228q-26 -54 -41.5 -126.5t9 -124.5t115.5 -45q79 12 146 67.5t118 112.5q131 144 243 303q11 14 20 28q34 53 66 72t74 -46q34 -55 30.5 -101.5t-24.5 -104.5q-3 -7 -5 -15 q-28 -88 -59 -174q55 38 111 76q195 126 369 279q2 1 9.5 -14.5t15 -37.5t10 -41.5t-4.5 -27.5q-278 -273 -604 -478q-56 -138 -120 -271q-145 -322 -357 -603q-75 -102 -194 -207t-255 -86q-124 35 -179 163.5t-18 244.5zM-440 -962q7 -17 32 -28t51.5 -16.5t39.5 -6.5 q80 2 151 48.5t126 100.5q291 301 462 685q24 48 46 96q-51 -32 -103 -63q-363 -198 -636 -505q-86 -96 -136 -213q-2 -5 -7 -23q-5 -16 -10.5 -34.5t-10 -31t-5.5 -9.5zM468 975q-1 -3 5 -1.5t16 5t18.5 7t11.5 5.5q1 1 3 2q18 10 36.5 23t30.5 30q79 124 68 271 q-1 2 -10 -1.5t-20.5 -9.5t-21 -11t-11.5 -6q-3 -2 -7 -5q-14 -7 -29 -18.5t-16 -23.5q6 -145 -74 -267z" />
<glyph unicode="&#xfe;" horiz-adv-x="1302" d="M187 -1q97 574 265 1133q154 560 360 1102q1 0 12.5 -12.5t25.5 -32t23.5 -38.5t5.5 -30q-126 -355 -240 -714q69 65 147.5 87t160.5 -42q74 -63 119 -160.5t52 -192.5q8 -138 -63 -255t-208 -155q-230 -43 -375 136q-65 -263 -122 -528q-46 -207 -95 -414q0 1 -7 10 q-10 12 -25 31.5t-26.5 40t-9.5 34.5zM485 875q148 -110 317.5 -48.5t231.5 240.5q32 116 -10 224t-185 80q-69 -20 -126.5 -72.5t-107.5 -110.5q-25 -28 -48 -53q-18 -61 -35 -122q-19 -69 -37 -138z" />
<glyph unicode="&#xff;" horiz-adv-x="1166" d="M-483 -734q57 150 179 277t249 221q198 145 412 266l158 94q26 17 52 33q4 3 9 6q25 62 49 124q36 95 68 191q-27 -39 -47 -69q-16 -23 -23 -33q-94 -128 -207 -240q-70 -73 -164 -118.5t-185 21.5q-73 63 -113 163t-29 195q49 212 201 380q23 30 45 60q0 -2 10 -13 q11 -15 27 -36.5t25.5 -42.5t3.5 -32q-23 -31 -46 -61q-85 -108 -148 -229q-27 -54 -42 -126.5t9 -124.5t115 -45q79 12 146 67.5t118 112.5q132 144 244 303q10 14 19 28q34 54 66 72.5t74 -46.5q34 -55 30.5 -101.5t-24.5 -104.5q-2 -7 -5 -15q-28 -88 -59 -174l112 76 q195 126 368 279q3 1 10 -14.5t14.5 -37.5t10 -41.5t-4.5 -27.5q-278 -273 -603 -478q-57 -137 -120 -271q-146 -322 -358 -603q-74 -102 -193.5 -207t-255.5 -86q-124 35 -178.5 163.5t-18.5 244.5zM-440 -962q8 -17 32.5 -28t51.5 -16.5t40 -5.5q79 1 150 47.5t126 100.5 q291 301 463 685l46 96q-52 -32 -104 -63q-362 -198 -636 -505q-86 -96 -136 -213q-1 -5 -6 -23q-5 -16 -10.5 -34.5t-10 -31t-6.5 -9.5zM214 1067q40 37 86 67q24 17 48 35q3 1 15.5 -14.5t26 -38t21 -42t1.5 -25.5q-23 -19 -46 -39q-40 -38 -85 -68q-5 -2 -17.5 14 t-26 39.5t-21.5 44t-2 27.5zM620 1067q40 37 85 67q25 17 49 35q3 1 15 -14.5t26 -38t21.5 -42t1.5 -25.5q-23 -19 -46 -39q-40 -38 -86 -68q-4 -2 -16.5 14t-26.5 39.5t-21.5 44t-1.5 27.5z" />
<glyph unicode="&#x2c6;" d="M221 1079l232 355h118l232 -355h-58l-233 216l-233 -216h-58z" />
<glyph unicode="&#x2dc;" d="M234 1132q19 106 68 158.5t129 52.5q46 -1 113 -24q64 -23 112 -23h4q36 0 58 20t36 66h54q-20 -103 -68.5 -154t-126.5 -51h-4q-50 0 -113 23q-66 24 -114 24q-39 0 -60.5 -20.5t-33.5 -71.5h-54z" />
<glyph unicode="&#x2000;" horiz-adv-x="1584" />
<glyph unicode="&#x2001;" horiz-adv-x="3168" />
<glyph unicode="&#x2002;" horiz-adv-x="1584" />
<glyph unicode="&#x2003;" horiz-adv-x="3168" />
<glyph unicode="&#x2004;" horiz-adv-x="1056" />
<glyph unicode="&#x2005;" horiz-adv-x="792" />
<glyph unicode="&#x2006;" horiz-adv-x="528" />
<glyph unicode="&#x2007;" horiz-adv-x="528" />
<glyph unicode="&#x2008;" horiz-adv-x="396" />
<glyph unicode="&#x2009;" horiz-adv-x="633" />
<glyph unicode="&#x200a;" horiz-adv-x="176" />
<glyph unicode="&#x2010;" horiz-adv-x="1515" d="M411 492q69 8 138 15q278 33 558 54q11 0 22.5 -18t21 -42.5t15.5 -43t6 -19.5q-276 -33 -554 -55l-142 -12q-14 0 -27.5 25.5t-23.5 54t-13 39.5z" />
<glyph unicode="&#x2011;" horiz-adv-x="1515" d="M411 492q69 8 138 15q278 33 558 54q11 0 22.5 -18t21 -42.5t15.5 -43t6 -19.5q-276 -33 -554 -55l-142 -12q-14 0 -27.5 25.5t-23.5 54t-13 39.5z" />
<glyph unicode="&#x2012;" horiz-adv-x="1515" d="M411 492q69 8 138 15q278 33 558 54q11 0 22.5 -18t21 -42.5t15.5 -43t6 -19.5q-276 -33 -554 -55l-142 -12q-14 0 -27.5 25.5t-23.5 54t-13 39.5z" />
<glyph unicode="&#x2013;" horiz-adv-x="1108" d="M56 419v120h996v-120h-996z" />
<glyph unicode="&#x2014;" horiz-adv-x="2048" d="M0 419v120h2048v-120h-2048z" />
<glyph unicode="&#x2018;" horiz-adv-x="557" d="M26 1055q1 -2 8.5 3t18 13.5t18.5 16t10 8.5q2 3 6 6q11 10 23 25t10 26q-38 140 12 277q1 3 -5 0.5t-14.5 -8.5t-16 -11.5t-10.5 -7.5l-2 -2q-16 -14 -31 -31t-23 -36q-49 -139 -4 -279z" />
<glyph unicode="&#x2019;" horiz-adv-x="557" d="M126 1030q-2 -3 4.5 -1.5t16 5t18 7t11.5 5.5q1 1 3 2q18 10 36.5 23t30.5 30q80 124 68 271q-1 2 -9.5 -1.5t-20.5 -9.5t-21.5 -11t-11.5 -6q-3 -2 -7 -4q-13 -8 -28.5 -19.5t-16.5 -22.5q6 -146 -73 -268z" />
<glyph unicode="&#x201a;" horiz-adv-x="557" d="M163 -82q-2 -3 4.5 -1.5t16 5t18 7t11.5 5.5q1 1 3 2q18 10 37 23t30 30q80 124 68 271q0 2 -9 -1.5t-21 -9.5t-21.5 -11t-11.5 -6q-3 -2 -7 -4q-13 -8 -28.5 -19.5t-15.5 -23.5q5 -145 -74 -267z" />
<glyph unicode="&#x201c;" horiz-adv-x="910" d="M304 1120q-12 147 68 271q12 17 30.5 30t36.5 23q2 1 3 2q3 1 11.5 5t18 7.5t16 4.5t4.5 -2q-79 -121 -73 -267q-1 -11 -16.5 -22.5t-28.5 -19.5q-4 -2 -7 -4q-2 -1 -11.5 -6.5t-21.5 -11t-20.5 -9t-9.5 -1.5zM494 1120q-11 147 68 271q12 17 30.5 30t36.5 23q2 1 3 2 q3 1 11.5 5t18.5 7.5t16 4.5t5 -2q-80 -121 -74 -267q-1 -11 -16 -22.5t-29 -19.5q-4 -2 -7 -4q-2 -1 -11.5 -6.5t-21 -11t-20.5 -9t-10 -1.5z" />
<glyph unicode="&#x201d;" horiz-adv-x="910" d="M227 1079q79 122 73 268q1 11 16.5 22.5t28.5 19.5q4 2 7 4q2 1 11.5 6t21.5 11t20.5 9.5t9.5 1.5q12 -147 -68 -271q-12 -17 -30.5 -30t-36.5 -23q-2 -1 -3 -2q-3 -2 -11.5 -5.5t-18 -7t-16 -5t-4.5 1.5zM417 1079q79 122 74 268q0 11 15.5 22.5t28.5 19.5q4 2 7 4 q2 1 11.5 6t21.5 11t21 9.5t9 1.5q12 -147 -68 -271q-11 -17 -30 -30t-37 -23q-1 -1 -3 -2q-3 -2 -11.5 -5.5t-18 -7t-16 -5t-4.5 1.5z" />
<glyph unicode="&#x201e;" horiz-adv-x="910" d="M119 114v42l119 125q44 0 88.5 -65.5t44.5 -151.5q0 -109 -71 -226.5t-139 -117.5v43q73 43 87 190q0 119 -129 161zM472 114v42l119 125q44 0 88.5 -65.5t44.5 -151.5q0 -109 -71 -226.5t-139 -117.5v43q73 43 87 190q0 119 -129 161z" />
<glyph unicode="&#x2022;" d="M216 718q0 123 87 209t210 86q122 0 208.5 -86.5t86.5 -208.5t-87.5 -209.5t-209.5 -87.5q-123 0 -209 87t-86 210z" />
<glyph unicode="&#x2026;" horiz-adv-x="2048" d="M129 136q0 15 16 31l82 84q15 14 29 14q13 0 31 -16l80 -86q12 -16 12 -29q0 -15 -14 -31l-80 -88q-20 -20 -29 -20q-16 0 -29 14l-88 101q-10 13 -10 26zM812 136q0 15 16 31l82 84q15 14 29 14q13 0 31 -16l80 -86q12 -16 12 -29q0 -15 -14 -31l-80 -88 q-20 -20 -29 -20q-16 0 -29 14l-88 101q-10 13 -10 26zM1495 136q0 15 16 31l82 84q15 14 29 14q13 0 31 -16l80 -86q12 -16 12 -29q0 -15 -14 -31l-80 -88q-20 -20 -29 -20q-16 0 -29 14l-88 101q-10 13 -10 26z" />
<glyph unicode="&#x202f;" horiz-adv-x="633" />
<glyph unicode="&#x205f;" horiz-adv-x="792" />
<glyph unicode="&#x25fc;" horiz-adv-x="865" d="M0 0v865h865v-865h-865z" />
</font>
</defs>
</svg>
